%TF.GenerationSoftware,Novarm,DipTrace,3.2.0.0*%
%TF.CreationDate,2018-08-20T17:19:43+05:00*%
%FSLAX26Y26*%
%MOIN*%
%TF.FileFunction,Soldermask,Bot*%
%TF.Part,Single*%
%ADD13C,0.08*%
%ADD14C,0.084*%
%ADD15C,0.085*%
%ADD16C,0.09*%
%ADD17C,0.088*%
%ADD18C,0.072992*%
%ADD19C,0.135984*%
%ADD33C,0.125984*%
%ADD34C,0.031497*%
%ADD35C,0.036*%
%ADD36C,0.035433*%
%ADD37C,0.038*%
%ADD38C,0.035*%
%ADD39C,0.04*%
G75*
G01*
%LPD*%
D33*
X104800Y110300D3*
X2837000D3*
X2842100Y2843800D3*
X109800D3*
D34*
X1416900Y234700D3*
X1816900D3*
X1416900Y333100D3*
X1816900D3*
D35*
X1916900Y983100D3*
X1316900Y683100D3*
X1916900Y1183100D3*
X1316900Y1383100D3*
Y1583100D3*
X1916900Y1483100D3*
Y1683100D3*
X1316900D3*
Y1183100D3*
Y983100D3*
X1916900Y883100D3*
X1316900Y1283100D3*
X1916900Y683100D3*
X1316900Y1483100D3*
X1916900Y1083100D3*
X1316900Y2083100D3*
X1916900Y783100D3*
Y1783100D3*
Y1583100D3*
Y1983100D3*
Y2083100D3*
Y1883100D3*
X1316900Y883100D3*
Y1083100D3*
Y783100D3*
Y1783100D3*
X1916900Y1383100D3*
Y1283100D3*
X1316900Y1883100D3*
Y1983100D3*
D36*
X1511000Y2483100D3*
X1766900D3*
D37*
X2166900D3*
X1016900Y1683100D3*
X2766900Y1733100D3*
X2066900Y2683100D3*
X1066900Y2133100D3*
X2266900Y2483100D3*
X2366900Y2683100D3*
X2066900Y2783100D3*
X1216900Y1483100D3*
X2066900Y2583100D3*
X2166900D3*
X2066900Y783100D3*
X2366900Y2583100D3*
X966900Y2133100D3*
X2066900Y883100D3*
X2466900Y2683100D3*
X1116900Y2833100D3*
X2666900Y2683100D3*
X2266900Y2583100D3*
X1316900Y2833100D3*
X2566900Y2583100D3*
X2766900Y1533100D3*
X2866900Y1233100D3*
X2766900Y1633100D3*
X566900Y483100D3*
X2666900Y2783100D3*
X2566900D3*
X1116900Y1683100D3*
X1216900Y1583100D3*
X1316900Y2733100D3*
X816900Y2833100D3*
X866900Y2233100D3*
X1966900Y2683100D3*
Y2783100D3*
X916900Y2833100D3*
X2266900Y2783100D3*
X2466900Y2583100D3*
X2666900Y1233100D3*
X2466900Y2783100D3*
X2666900Y2583100D3*
X2166900Y2783100D3*
X2766900Y1233100D3*
X1116900Y1583100D3*
X666900Y483100D3*
X2266900Y2683100D3*
X2566900D3*
Y1233100D3*
X2166900Y2683100D3*
X1966900Y2583100D3*
X766900Y2233100D3*
X1216900Y1683100D3*
Y1383100D3*
X966900Y2233100D3*
X1016900Y2833100D3*
X1066900Y2233100D3*
X1016900Y1583100D3*
X2366900Y2783100D3*
D38*
X466900Y683100D3*
X766900D3*
X1049300Y227200D3*
X366900Y1483100D3*
X2139700Y483100D3*
X872100Y227200D3*
X1116900Y1383100D3*
X1049300Y483100D3*
X1116900Y983100D3*
X766900Y1483100D3*
X1511400Y333100D3*
X872100Y483100D3*
X2316900D3*
X1716900Y333100D3*
Y633100D3*
X1511400D3*
X2139700Y227200D3*
X2316900D3*
D39*
X316900Y1383100D3*
X2816900Y2033100D3*
X266900Y1683100D3*
Y2383100D3*
X916900Y1283100D3*
X316900Y883100D3*
X916900Y783100D3*
X316900Y1183100D3*
X266900Y2183100D3*
X2816900Y2233100D3*
X316900Y1283100D3*
Y683100D3*
X266900Y1883100D3*
X316900Y983100D3*
X916900Y683100D3*
Y1083100D3*
X316900D3*
X916900Y983100D3*
Y1183100D3*
X316900Y783100D3*
X916900Y883100D3*
Y1383100D3*
D13*
X1317000Y2083000D3*
Y1983000D3*
Y1883000D3*
Y1783000D3*
Y1683000D3*
Y1583000D3*
Y1483000D3*
Y1383000D3*
Y1283000D3*
Y1183000D3*
Y1083000D3*
Y983000D3*
Y883000D3*
Y783000D3*
Y683000D3*
X1917000Y2083000D3*
Y1983000D3*
Y1883000D3*
Y1783000D3*
Y1683000D3*
Y1583000D3*
Y1483000D3*
Y1383000D3*
Y1283000D3*
Y1183000D3*
Y1083000D3*
Y983000D3*
Y883000D3*
Y783000D3*
Y683000D3*
D14*
X317000D3*
Y783000D3*
Y883000D3*
Y983000D3*
Y1083000D3*
Y1183000D3*
Y1283000D3*
Y1383000D3*
X917000D3*
Y1283000D3*
Y1183000D3*
Y1083000D3*
Y983000D3*
Y883000D3*
Y783000D3*
Y683000D3*
D15*
X767000Y1483000D3*
X367000D3*
X1117000Y983000D3*
Y1383000D3*
D16*
X267000Y2383000D3*
Y2183000D3*
Y1883000D3*
Y1683000D3*
X2817000Y2033000D3*
Y2233000D3*
D17*
X1067000D3*
X967000D3*
X867000D3*
X767000D3*
X667000Y483000D3*
X567000D3*
X2767000Y1733000D3*
Y1633000D3*
Y1533000D3*
X1967000Y2583000D3*
X2067000D3*
X2167000D3*
X2267000D3*
X2367000D3*
X2467000D3*
X2567000D3*
X2667000D3*
X1967000Y2683000D3*
X2067000D3*
X2167000D3*
X2267000D3*
X2367000D3*
X2467000D3*
X2567000D3*
X2667000D3*
X1967000Y2783000D3*
X2067000D3*
X2167000D3*
X2267000D3*
X2367000D3*
X2467000D3*
X2567000D3*
X2667000D3*
X2067000Y883000D3*
Y783000D3*
D15*
X1049000Y483000D3*
Y227000D3*
X872000Y483000D3*
Y227000D3*
X2317000Y483000D3*
Y227000D3*
X2140000Y483000D3*
Y227000D3*
D17*
X1217000Y1683000D3*
Y1583000D3*
Y1483000D3*
Y1383000D3*
X1017000Y1683000D3*
Y1583000D3*
X1117000Y1683000D3*
Y1583000D3*
X2567000Y1233000D3*
X2667000D3*
X2767000D3*
X2867000D3*
D18*
X1817000Y333000D3*
Y235000D3*
X1417000Y333000D3*
Y235000D3*
D15*
X1717000Y333000D3*
Y633000D3*
X1511000Y333000D3*
Y633000D3*
D17*
X2167000Y2483000D3*
X2267000D3*
X967000Y2133000D3*
X1067000D3*
X817000Y2833000D3*
X917000D3*
X1017000D3*
X1117000D3*
X1317000Y2733000D3*
Y2833000D3*
D15*
X467000Y683000D3*
X767000D3*
D13*
X1767000Y2483000D3*
X1511000D3*
X1767000D3*
X1511000D3*
X1767000D3*
X1511000D3*
D19*
X105000Y110000D3*
X110000Y2844000D3*
X2837000Y110000D3*
X2842000Y2844000D3*
G36*
X1356986Y2043000D2*
X1277014D1*
Y2123000D1*
X1356986D1*
Y2043000D1*
G37*
G36*
X311993Y2338000D2*
X222007D1*
Y2428000D1*
X311993D1*
Y2338000D1*
G37*
G36*
Y1838000D2*
X222007D1*
Y1928000D1*
X311993D1*
Y1838000D1*
G37*
G36*
X2861993Y1988000D2*
X2772007D1*
Y2078000D1*
X2861993D1*
Y1988000D1*
G37*
G36*
X1853496Y296504D2*
X1780504D1*
Y369496D1*
X1853496D1*
Y296504D1*
G37*
G36*
X1453496D2*
X1380504D1*
Y369496D1*
X1453496D1*
Y296504D1*
G37*
G36*
X314500Y1418500D2*
X318500D1*
Y1417500D1*
X314500D1*
Y1418500D1*
G37*
G36*
X913500D2*
X918500D1*
Y1417500D1*
X913500D1*
Y1418500D1*
G37*
G36*
X245500Y1417500D2*
X386500D1*
Y1416500D1*
X245500D1*
Y1417500D1*
G37*
G36*
X845500D2*
X986500D1*
Y1416500D1*
X845500D1*
Y1417500D1*
G37*
G36*
X245500Y1416500D2*
X386500D1*
Y1415500D1*
X245500D1*
Y1416500D1*
G37*
G36*
X845500D2*
X986500D1*
Y1415500D1*
X845500D1*
Y1416500D1*
G37*
G36*
X245500Y1415500D2*
X386500D1*
Y1414500D1*
X245500D1*
Y1415500D1*
G37*
G36*
X845500D2*
X986500D1*
Y1414500D1*
X845500D1*
Y1415500D1*
G37*
G36*
X245500Y1414500D2*
X386500D1*
Y1413500D1*
X245500D1*
Y1414500D1*
G37*
G36*
X845500D2*
X986500D1*
Y1413500D1*
X845500D1*
Y1414500D1*
G37*
G36*
X245500Y1413500D2*
X386500D1*
Y1412500D1*
X245500D1*
Y1413500D1*
G37*
G36*
X845500D2*
X986500D1*
Y1412500D1*
X845500D1*
Y1413500D1*
G37*
G36*
X245500Y1412500D2*
X386500D1*
Y1411500D1*
X245500D1*
Y1412500D1*
G37*
G36*
X845500D2*
X986500D1*
Y1411500D1*
X845500D1*
Y1412500D1*
G37*
G36*
X245500Y1411500D2*
X386500D1*
Y1410500D1*
X245500D1*
Y1411500D1*
G37*
G36*
X845500D2*
X986500D1*
Y1410500D1*
X845500D1*
Y1411500D1*
G37*
G36*
X245500Y1410500D2*
X386500D1*
Y1409500D1*
X245500D1*
Y1410500D1*
G37*
G36*
X845500D2*
X986500D1*
Y1409500D1*
X845500D1*
Y1410500D1*
G37*
G36*
X245500Y1409500D2*
X386500D1*
Y1408500D1*
X245500D1*
Y1409500D1*
G37*
G36*
X845500D2*
X986500D1*
Y1408500D1*
X845500D1*
Y1409500D1*
G37*
G36*
X245500Y1408500D2*
X386500D1*
Y1407500D1*
X245500D1*
Y1408500D1*
G37*
G36*
X845500D2*
X986500D1*
Y1407500D1*
X845500D1*
Y1408500D1*
G37*
G36*
X245500Y1407500D2*
X309500D1*
Y1406500D1*
X245500D1*
Y1407500D1*
G37*
G36*
X322500D2*
X386500D1*
Y1406500D1*
X322500D1*
Y1407500D1*
G37*
G36*
X845500D2*
X909500D1*
Y1406500D1*
X845500D1*
Y1407500D1*
G37*
G36*
X922500D2*
X986500D1*
Y1406500D1*
X922500D1*
Y1407500D1*
G37*
G36*
X245500Y1406500D2*
X307500D1*
Y1405500D1*
X245500D1*
Y1406500D1*
G37*
G36*
X325500D2*
X386500D1*
Y1405500D1*
X325500D1*
Y1406500D1*
G37*
G36*
X845500D2*
X906500D1*
Y1405500D1*
X845500D1*
Y1406500D1*
G37*
G36*
X925500D2*
X986500D1*
Y1405500D1*
X925500D1*
Y1406500D1*
G37*
G36*
X245500Y1405500D2*
X305500D1*
Y1404500D1*
X245500D1*
Y1405500D1*
G37*
G36*
X327500D2*
X386500D1*
Y1404500D1*
X327500D1*
Y1405500D1*
G37*
G36*
X845500D2*
X905500D1*
Y1404500D1*
X845500D1*
Y1405500D1*
G37*
G36*
X927500D2*
X986500D1*
Y1404500D1*
X927500D1*
Y1405500D1*
G37*
G36*
X245500Y1404500D2*
X303500D1*
Y1403500D1*
X245500D1*
Y1404500D1*
G37*
G36*
X329500D2*
X386500D1*
Y1403500D1*
X329500D1*
Y1404500D1*
G37*
G36*
X845500D2*
X903500D1*
Y1403500D1*
X845500D1*
Y1404500D1*
G37*
G36*
X929500D2*
X986500D1*
Y1403500D1*
X929500D1*
Y1404500D1*
G37*
G36*
X245500Y1403500D2*
X302500D1*
Y1402500D1*
X245500D1*
Y1403500D1*
G37*
G36*
X330500D2*
X386500D1*
Y1402500D1*
X330500D1*
Y1403500D1*
G37*
G36*
X845500D2*
X902500D1*
Y1402500D1*
X845500D1*
Y1403500D1*
G37*
G36*
X930500D2*
X986500D1*
Y1402500D1*
X930500D1*
Y1403500D1*
G37*
G36*
X245500Y1402500D2*
X300500D1*
Y1401500D1*
X245500D1*
Y1402500D1*
G37*
G36*
X331500D2*
X386500D1*
Y1401500D1*
X331500D1*
Y1402500D1*
G37*
G36*
X845500D2*
X900500D1*
Y1401500D1*
X845500D1*
Y1402500D1*
G37*
G36*
X931500D2*
X986500D1*
Y1401500D1*
X931500D1*
Y1402500D1*
G37*
G36*
X245500Y1401500D2*
X299500D1*
Y1400500D1*
X245500D1*
Y1401500D1*
G37*
G36*
X332500D2*
X386500D1*
Y1400500D1*
X332500D1*
Y1401500D1*
G37*
G36*
X845500D2*
X899500D1*
Y1400500D1*
X845500D1*
Y1401500D1*
G37*
G36*
X932500D2*
X986500D1*
Y1400500D1*
X932500D1*
Y1401500D1*
G37*
G36*
X245500Y1400500D2*
X298500D1*
Y1399500D1*
X245500D1*
Y1400500D1*
G37*
G36*
X333500D2*
X386500D1*
Y1399500D1*
X333500D1*
Y1400500D1*
G37*
G36*
X845500D2*
X898500D1*
Y1399500D1*
X845500D1*
Y1400500D1*
G37*
G36*
X933500D2*
X986500D1*
Y1399500D1*
X933500D1*
Y1400500D1*
G37*
G36*
X245500Y1399500D2*
X298500D1*
Y1398500D1*
X245500D1*
Y1399500D1*
G37*
G36*
X334500D2*
X386500D1*
Y1398500D1*
X334500D1*
Y1399500D1*
G37*
G36*
X845500D2*
X897500D1*
Y1398500D1*
X845500D1*
Y1399500D1*
G37*
G36*
X934500D2*
X986500D1*
Y1398500D1*
X934500D1*
Y1399500D1*
G37*
G36*
X245500Y1398500D2*
X297500D1*
Y1397500D1*
X245500D1*
Y1398500D1*
G37*
G36*
X335500D2*
X386500D1*
Y1397500D1*
X335500D1*
Y1398500D1*
G37*
G36*
X845500D2*
X897500D1*
Y1397500D1*
X845500D1*
Y1398500D1*
G37*
G36*
X935500D2*
X986500D1*
Y1397500D1*
X935500D1*
Y1398500D1*
G37*
G36*
X245500Y1397500D2*
X296500D1*
Y1396500D1*
X245500D1*
Y1397500D1*
G37*
G36*
X336500D2*
X386500D1*
Y1396500D1*
X336500D1*
Y1397500D1*
G37*
G36*
X845500D2*
X896500D1*
Y1396500D1*
X845500D1*
Y1397500D1*
G37*
G36*
X935500D2*
X986500D1*
Y1396500D1*
X935500D1*
Y1397500D1*
G37*
G36*
X245500Y1396500D2*
X295500D1*
Y1395500D1*
X245500D1*
Y1396500D1*
G37*
G36*
X336500D2*
X386500D1*
Y1395500D1*
X336500D1*
Y1396500D1*
G37*
G36*
X845500D2*
X895500D1*
Y1395500D1*
X845500D1*
Y1396500D1*
G37*
G36*
X936500D2*
X986500D1*
Y1395500D1*
X936500D1*
Y1396500D1*
G37*
G36*
X245500Y1395500D2*
X295500D1*
Y1394500D1*
X245500D1*
Y1395500D1*
G37*
G36*
X337500D2*
X386500D1*
Y1394500D1*
X337500D1*
Y1395500D1*
G37*
G36*
X845500D2*
X895500D1*
Y1394500D1*
X845500D1*
Y1395500D1*
G37*
G36*
X937500D2*
X986500D1*
Y1394500D1*
X937500D1*
Y1395500D1*
G37*
G36*
X245500Y1394500D2*
X294500D1*
Y1393500D1*
X245500D1*
Y1394500D1*
G37*
G36*
X337500D2*
X386500D1*
Y1393500D1*
X337500D1*
Y1394500D1*
G37*
G36*
X845500D2*
X894500D1*
Y1393500D1*
X845500D1*
Y1394500D1*
G37*
G36*
X937500D2*
X986500D1*
Y1393500D1*
X937500D1*
Y1394500D1*
G37*
G36*
X245500Y1393500D2*
X294500D1*
Y1392500D1*
X245500D1*
Y1393500D1*
G37*
G36*
X338500D2*
X386500D1*
Y1392500D1*
X338500D1*
Y1393500D1*
G37*
G36*
X845500D2*
X894500D1*
Y1392500D1*
X845500D1*
Y1393500D1*
G37*
G36*
X938500D2*
X986500D1*
Y1392500D1*
X938500D1*
Y1393500D1*
G37*
G36*
X245500Y1392500D2*
X294500D1*
Y1391500D1*
X245500D1*
Y1392500D1*
G37*
G36*
X338500D2*
X386500D1*
Y1391500D1*
X338500D1*
Y1392500D1*
G37*
G36*
X845500D2*
X893500D1*
Y1391500D1*
X845500D1*
Y1392500D1*
G37*
G36*
X938500D2*
X986500D1*
Y1391500D1*
X938500D1*
Y1392500D1*
G37*
G36*
X245500Y1391500D2*
X293500D1*
Y1390500D1*
X245500D1*
Y1391500D1*
G37*
G36*
X338500D2*
X386500D1*
Y1390500D1*
X338500D1*
Y1391500D1*
G37*
G36*
X845500D2*
X893500D1*
Y1390500D1*
X845500D1*
Y1391500D1*
G37*
G36*
X938500D2*
X986500D1*
Y1390500D1*
X938500D1*
Y1391500D1*
G37*
G36*
X245500Y1390500D2*
X293500D1*
Y1389500D1*
X245500D1*
Y1390500D1*
G37*
G36*
X339500D2*
X386500D1*
Y1389500D1*
X339500D1*
Y1390500D1*
G37*
G36*
X845500D2*
X893500D1*
Y1389500D1*
X845500D1*
Y1390500D1*
G37*
G36*
X939500D2*
X986500D1*
Y1389500D1*
X939500D1*
Y1390500D1*
G37*
G36*
X245500Y1389500D2*
X293500D1*
Y1388500D1*
X245500D1*
Y1389500D1*
G37*
G36*
X339500D2*
X386500D1*
Y1388500D1*
X339500D1*
Y1389500D1*
G37*
G36*
X845500D2*
X893500D1*
Y1388500D1*
X845500D1*
Y1389500D1*
G37*
G36*
X939500D2*
X986500D1*
Y1388500D1*
X939500D1*
Y1389500D1*
G37*
G36*
X245500Y1388500D2*
X293500D1*
Y1387500D1*
X245500D1*
Y1388500D1*
G37*
G36*
X339500D2*
X386500D1*
Y1387500D1*
X339500D1*
Y1388500D1*
G37*
G36*
X845500D2*
X892500D1*
Y1387500D1*
X845500D1*
Y1388500D1*
G37*
G36*
X939500D2*
X986500D1*
Y1387500D1*
X939500D1*
Y1388500D1*
G37*
G36*
X245500Y1387500D2*
X292500D1*
Y1386500D1*
X245500D1*
Y1387500D1*
G37*
G36*
X339500D2*
X386500D1*
Y1386500D1*
X339500D1*
Y1387500D1*
G37*
G36*
X845500D2*
X892500D1*
Y1386500D1*
X845500D1*
Y1387500D1*
G37*
G36*
X939500D2*
X986500D1*
Y1386500D1*
X939500D1*
Y1387500D1*
G37*
G36*
X245500Y1386500D2*
X292500D1*
Y1385500D1*
X245500D1*
Y1386500D1*
G37*
G36*
X339500D2*
X386500D1*
Y1385500D1*
X339500D1*
Y1386500D1*
G37*
G36*
X845500D2*
X892500D1*
Y1385500D1*
X845500D1*
Y1386500D1*
G37*
G36*
X939500D2*
X986500D1*
Y1385500D1*
X939500D1*
Y1386500D1*
G37*
G36*
X245500Y1385500D2*
X292500D1*
Y1384500D1*
X245500D1*
Y1385500D1*
G37*
G36*
X339500D2*
X386500D1*
Y1384500D1*
X339500D1*
Y1385500D1*
G37*
G36*
X845500D2*
X892500D1*
Y1384500D1*
X845500D1*
Y1385500D1*
G37*
G36*
X939500D2*
X986500D1*
Y1384500D1*
X939500D1*
Y1385500D1*
G37*
G36*
X245500Y1384500D2*
X292500D1*
Y1383500D1*
X245500D1*
Y1384500D1*
G37*
G36*
X339500D2*
X386500D1*
Y1383500D1*
X339500D1*
Y1384500D1*
G37*
G36*
X845500D2*
X892500D1*
Y1383500D1*
X845500D1*
Y1384500D1*
G37*
G36*
X939500D2*
X986500D1*
Y1383500D1*
X939500D1*
Y1384500D1*
G37*
G36*
X245500Y1383500D2*
X292500D1*
Y1382500D1*
X245500D1*
Y1383500D1*
G37*
G36*
X339500D2*
X386500D1*
Y1382500D1*
X339500D1*
Y1383500D1*
G37*
G36*
X845500D2*
X892500D1*
Y1382500D1*
X845500D1*
Y1383500D1*
G37*
G36*
X939500D2*
X986500D1*
Y1382500D1*
X939500D1*
Y1383500D1*
G37*
G36*
X245500Y1382500D2*
X292500D1*
Y1381500D1*
X245500D1*
Y1382500D1*
G37*
G36*
X339500D2*
X386500D1*
Y1381500D1*
X339500D1*
Y1382500D1*
G37*
G36*
X845500D2*
X892500D1*
Y1381500D1*
X845500D1*
Y1382500D1*
G37*
G36*
X939500D2*
X986500D1*
Y1381500D1*
X939500D1*
Y1382500D1*
G37*
G36*
X245500Y1381500D2*
X293500D1*
Y1380500D1*
X245500D1*
Y1381500D1*
G37*
G36*
X339500D2*
X386500D1*
Y1380500D1*
X339500D1*
Y1381500D1*
G37*
G36*
X845500D2*
X892500D1*
Y1380500D1*
X845500D1*
Y1381500D1*
G37*
G36*
X939500D2*
X986500D1*
Y1380500D1*
X939500D1*
Y1381500D1*
G37*
G36*
X245500Y1380500D2*
X293500D1*
Y1379500D1*
X245500D1*
Y1380500D1*
G37*
G36*
X339500D2*
X386500D1*
Y1379500D1*
X339500D1*
Y1380500D1*
G37*
G36*
X845500D2*
X893500D1*
Y1379500D1*
X845500D1*
Y1380500D1*
G37*
G36*
X939500D2*
X986500D1*
Y1379500D1*
X939500D1*
Y1380500D1*
G37*
G36*
X245500Y1379500D2*
X293500D1*
Y1378500D1*
X245500D1*
Y1379500D1*
G37*
G36*
X339500D2*
X386500D1*
Y1378500D1*
X339500D1*
Y1379500D1*
G37*
G36*
X845500D2*
X893500D1*
Y1378500D1*
X845500D1*
Y1379500D1*
G37*
G36*
X939500D2*
X986500D1*
Y1378500D1*
X939500D1*
Y1379500D1*
G37*
G36*
X245500Y1378500D2*
X293500D1*
Y1377500D1*
X245500D1*
Y1378500D1*
G37*
G36*
X339500D2*
X386500D1*
Y1377500D1*
X339500D1*
Y1378500D1*
G37*
G36*
X845500D2*
X893500D1*
Y1377500D1*
X845500D1*
Y1378500D1*
G37*
G36*
X938500D2*
X986500D1*
Y1377500D1*
X938500D1*
Y1378500D1*
G37*
G36*
X245500Y1377500D2*
X293500D1*
Y1376500D1*
X245500D1*
Y1377500D1*
G37*
G36*
X338500D2*
X386500D1*
Y1376500D1*
X338500D1*
Y1377500D1*
G37*
G36*
X845500D2*
X893500D1*
Y1376500D1*
X845500D1*
Y1377500D1*
G37*
G36*
X938500D2*
X986500D1*
Y1376500D1*
X938500D1*
Y1377500D1*
G37*
G36*
X245500Y1376500D2*
X294500D1*
Y1375500D1*
X245500D1*
Y1376500D1*
G37*
G36*
X338500D2*
X386500D1*
Y1375500D1*
X338500D1*
Y1376500D1*
G37*
G36*
X845500D2*
X894500D1*
Y1375500D1*
X845500D1*
Y1376500D1*
G37*
G36*
X938500D2*
X986500D1*
Y1375500D1*
X938500D1*
Y1376500D1*
G37*
G36*
X245500Y1375500D2*
X294500D1*
Y1374500D1*
X245500D1*
Y1375500D1*
G37*
G36*
X337500D2*
X386500D1*
Y1374500D1*
X337500D1*
Y1375500D1*
G37*
G36*
X845500D2*
X894500D1*
Y1374500D1*
X845500D1*
Y1375500D1*
G37*
G36*
X937500D2*
X986500D1*
Y1374500D1*
X937500D1*
Y1375500D1*
G37*
G36*
X245500Y1374500D2*
X295500D1*
Y1373500D1*
X245500D1*
Y1374500D1*
G37*
G36*
X337500D2*
X386500D1*
Y1373500D1*
X337500D1*
Y1374500D1*
G37*
G36*
X845500D2*
X895500D1*
Y1373500D1*
X845500D1*
Y1374500D1*
G37*
G36*
X937500D2*
X986500D1*
Y1373500D1*
X937500D1*
Y1374500D1*
G37*
G36*
X245500Y1373500D2*
X295500D1*
Y1372500D1*
X245500D1*
Y1373500D1*
G37*
G36*
X336500D2*
X386500D1*
Y1372500D1*
X336500D1*
Y1373500D1*
G37*
G36*
X845500D2*
X895500D1*
Y1372500D1*
X845500D1*
Y1373500D1*
G37*
G36*
X936500D2*
X986500D1*
Y1372500D1*
X936500D1*
Y1373500D1*
G37*
G36*
X245500Y1372500D2*
X296500D1*
Y1371500D1*
X245500D1*
Y1372500D1*
G37*
G36*
X336500D2*
X386500D1*
Y1371500D1*
X336500D1*
Y1372500D1*
G37*
G36*
X845500D2*
X896500D1*
Y1371500D1*
X845500D1*
Y1372500D1*
G37*
G36*
X936500D2*
X986500D1*
Y1371500D1*
X936500D1*
Y1372500D1*
G37*
G36*
X245500Y1371500D2*
X296500D1*
Y1370500D1*
X245500D1*
Y1371500D1*
G37*
G36*
X335500D2*
X386500D1*
Y1370500D1*
X335500D1*
Y1371500D1*
G37*
G36*
X845500D2*
X896500D1*
Y1370500D1*
X845500D1*
Y1371500D1*
G37*
G36*
X935500D2*
X986500D1*
Y1370500D1*
X935500D1*
Y1371500D1*
G37*
G36*
X245500Y1370500D2*
X297500D1*
Y1369500D1*
X245500D1*
Y1370500D1*
G37*
G36*
X334500D2*
X386500D1*
Y1369500D1*
X334500D1*
Y1370500D1*
G37*
G36*
X845500D2*
X897500D1*
Y1369500D1*
X845500D1*
Y1370500D1*
G37*
G36*
X934500D2*
X986500D1*
Y1369500D1*
X934500D1*
Y1370500D1*
G37*
G36*
X245500Y1369500D2*
X298500D1*
Y1368500D1*
X245500D1*
Y1369500D1*
G37*
G36*
X334500D2*
X386500D1*
Y1368500D1*
X334500D1*
Y1369500D1*
G37*
G36*
X845500D2*
X898500D1*
Y1368500D1*
X845500D1*
Y1369500D1*
G37*
G36*
X933500D2*
X986500D1*
Y1368500D1*
X933500D1*
Y1369500D1*
G37*
G36*
X245500Y1368500D2*
X299500D1*
Y1367500D1*
X245500D1*
Y1368500D1*
G37*
G36*
X333500D2*
X386500D1*
Y1367500D1*
X333500D1*
Y1368500D1*
G37*
G36*
X845500D2*
X899500D1*
Y1367500D1*
X845500D1*
Y1368500D1*
G37*
G36*
X933500D2*
X986500D1*
Y1367500D1*
X933500D1*
Y1368500D1*
G37*
G36*
X245500Y1367500D2*
X300500D1*
Y1366500D1*
X245500D1*
Y1367500D1*
G37*
G36*
X332500D2*
X386500D1*
Y1366500D1*
X332500D1*
Y1367500D1*
G37*
G36*
X845500D2*
X900500D1*
Y1366500D1*
X845500D1*
Y1367500D1*
G37*
G36*
X931500D2*
X986500D1*
Y1366500D1*
X931500D1*
Y1367500D1*
G37*
G36*
X245500Y1366500D2*
X301500D1*
Y1365500D1*
X245500D1*
Y1366500D1*
G37*
G36*
X330500D2*
X386500D1*
Y1365500D1*
X330500D1*
Y1366500D1*
G37*
G36*
X845500D2*
X901500D1*
Y1365500D1*
X845500D1*
Y1366500D1*
G37*
G36*
X930500D2*
X986500D1*
Y1365500D1*
X930500D1*
Y1366500D1*
G37*
G36*
X245500Y1365500D2*
X302500D1*
Y1364500D1*
X245500D1*
Y1365500D1*
G37*
G36*
X329500D2*
X386500D1*
Y1364500D1*
X329500D1*
Y1365500D1*
G37*
G36*
X845500D2*
X902500D1*
Y1364500D1*
X845500D1*
Y1365500D1*
G37*
G36*
X929500D2*
X986500D1*
Y1364500D1*
X929500D1*
Y1365500D1*
G37*
G36*
X245500Y1364500D2*
X304500D1*
Y1363500D1*
X245500D1*
Y1364500D1*
G37*
G36*
X328500D2*
X386500D1*
Y1363500D1*
X328500D1*
Y1364500D1*
G37*
G36*
X845500D2*
X904500D1*
Y1363500D1*
X845500D1*
Y1364500D1*
G37*
G36*
X927500D2*
X986500D1*
Y1363500D1*
X927500D1*
Y1364500D1*
G37*
G36*
X245500Y1363500D2*
X306500D1*
Y1362500D1*
X245500D1*
Y1363500D1*
G37*
G36*
X326500D2*
X386500D1*
Y1362500D1*
X326500D1*
Y1363500D1*
G37*
G36*
X845500D2*
X906500D1*
Y1362500D1*
X845500D1*
Y1363500D1*
G37*
G36*
X926500D2*
X986500D1*
Y1362500D1*
X926500D1*
Y1363500D1*
G37*
G36*
X245500Y1362500D2*
X308500D1*
Y1361500D1*
X245500D1*
Y1362500D1*
G37*
G36*
X323500D2*
X386500D1*
Y1361500D1*
X323500D1*
Y1362500D1*
G37*
G36*
X845500D2*
X908500D1*
Y1361500D1*
X845500D1*
Y1362500D1*
G37*
G36*
X923500D2*
X986500D1*
Y1361500D1*
X923500D1*
Y1362500D1*
G37*
G36*
X245500Y1361500D2*
X386500D1*
Y1360500D1*
X245500D1*
Y1361500D1*
G37*
G36*
X845500D2*
X986500D1*
Y1360500D1*
X845500D1*
Y1361500D1*
G37*
G36*
X245500Y1360500D2*
X386500D1*
Y1359500D1*
X245500D1*
Y1360500D1*
G37*
G36*
X845500D2*
X986500D1*
Y1359500D1*
X845500D1*
Y1360500D1*
G37*
G36*
X245500Y1359500D2*
X386500D1*
Y1358500D1*
X245500D1*
Y1359500D1*
G37*
G36*
X845500D2*
X986500D1*
Y1358500D1*
X845500D1*
Y1359500D1*
G37*
G36*
X245500Y1358500D2*
X386500D1*
Y1357500D1*
X245500D1*
Y1358500D1*
G37*
G36*
X845500D2*
X986500D1*
Y1357500D1*
X845500D1*
Y1358500D1*
G37*
G36*
X245500Y1357500D2*
X386500D1*
Y1356500D1*
X245500D1*
Y1357500D1*
G37*
G36*
X845500D2*
X986500D1*
Y1356500D1*
X845500D1*
Y1357500D1*
G37*
G36*
X245500Y1356500D2*
X386500D1*
Y1355500D1*
X245500D1*
Y1356500D1*
G37*
G36*
X845500D2*
X986500D1*
Y1355500D1*
X845500D1*
Y1356500D1*
G37*
G36*
X245500Y1355500D2*
X386500D1*
Y1354500D1*
X245500D1*
Y1355500D1*
G37*
G36*
X845500D2*
X986500D1*
Y1354500D1*
X845500D1*
Y1355500D1*
G37*
G36*
X245500Y1354500D2*
X386500D1*
Y1353500D1*
X245500D1*
Y1354500D1*
G37*
G36*
X845500D2*
X986500D1*
Y1353500D1*
X845500D1*
Y1354500D1*
G37*
G36*
X245500Y1353500D2*
X386500D1*
Y1352500D1*
X245500D1*
Y1353500D1*
G37*
G36*
X845500D2*
X986500D1*
Y1352500D1*
X845500D1*
Y1353500D1*
G37*
G36*
X245500Y1352500D2*
X386500D1*
Y1351500D1*
X245500D1*
Y1352500D1*
G37*
G36*
X845500D2*
X986500D1*
Y1351500D1*
X845500D1*
Y1352500D1*
G37*
G36*
X246500Y1351500D2*
X386500D1*
Y1350500D1*
X246500D1*
Y1351500D1*
G37*
G36*
X845500D2*
X986500D1*
Y1350500D1*
X845500D1*
Y1351500D1*
G37*
G36*
X313500Y1318500D2*
X319500D1*
Y1317500D1*
X313500D1*
Y1318500D1*
G37*
G36*
X912500D2*
X919500D1*
Y1317500D1*
X912500D1*
Y1318500D1*
G37*
G36*
X245500Y1317500D2*
X386500D1*
Y1316500D1*
X245500D1*
Y1317500D1*
G37*
G36*
X845500D2*
X986500D1*
Y1316500D1*
X845500D1*
Y1317500D1*
G37*
G36*
X245500Y1316500D2*
X386500D1*
Y1315500D1*
X245500D1*
Y1316500D1*
G37*
G36*
X845500D2*
X986500D1*
Y1315500D1*
X845500D1*
Y1316500D1*
G37*
G36*
X245500Y1315500D2*
X386500D1*
Y1314500D1*
X245500D1*
Y1315500D1*
G37*
G36*
X845500D2*
X986500D1*
Y1314500D1*
X845500D1*
Y1315500D1*
G37*
G36*
X245500Y1314500D2*
X386500D1*
Y1313500D1*
X245500D1*
Y1314500D1*
G37*
G36*
X845500D2*
X986500D1*
Y1313500D1*
X845500D1*
Y1314500D1*
G37*
G36*
X245500Y1313500D2*
X386500D1*
Y1312500D1*
X245500D1*
Y1313500D1*
G37*
G36*
X845500D2*
X986500D1*
Y1312500D1*
X845500D1*
Y1313500D1*
G37*
G36*
X245500Y1312500D2*
X386500D1*
Y1311500D1*
X245500D1*
Y1312500D1*
G37*
G36*
X845500D2*
X986500D1*
Y1311500D1*
X845500D1*
Y1312500D1*
G37*
G36*
X245500Y1311500D2*
X386500D1*
Y1310500D1*
X245500D1*
Y1311500D1*
G37*
G36*
X845500D2*
X986500D1*
Y1310500D1*
X845500D1*
Y1311500D1*
G37*
G36*
X245500Y1310500D2*
X386500D1*
Y1309500D1*
X245500D1*
Y1310500D1*
G37*
G36*
X845500D2*
X986500D1*
Y1309500D1*
X845500D1*
Y1310500D1*
G37*
G36*
X245500Y1309500D2*
X386500D1*
Y1308500D1*
X245500D1*
Y1309500D1*
G37*
G36*
X845500D2*
X986500D1*
Y1308500D1*
X845500D1*
Y1309500D1*
G37*
G36*
X245500Y1308500D2*
X386500D1*
Y1307500D1*
X245500D1*
Y1308500D1*
G37*
G36*
X845500D2*
X986500D1*
Y1307500D1*
X845500D1*
Y1308500D1*
G37*
G36*
X245500Y1307500D2*
X309500D1*
Y1306500D1*
X245500D1*
Y1307500D1*
G37*
G36*
X322500D2*
X386500D1*
Y1306500D1*
X322500D1*
Y1307500D1*
G37*
G36*
X845500D2*
X909500D1*
Y1306500D1*
X845500D1*
Y1307500D1*
G37*
G36*
X922500D2*
X986500D1*
Y1306500D1*
X922500D1*
Y1307500D1*
G37*
G36*
X245500Y1306500D2*
X307500D1*
Y1305500D1*
X245500D1*
Y1306500D1*
G37*
G36*
X325500D2*
X386500D1*
Y1305500D1*
X325500D1*
Y1306500D1*
G37*
G36*
X845500D2*
X906500D1*
Y1305500D1*
X845500D1*
Y1306500D1*
G37*
G36*
X925500D2*
X986500D1*
Y1305500D1*
X925500D1*
Y1306500D1*
G37*
G36*
X245500Y1305500D2*
X305500D1*
Y1304500D1*
X245500D1*
Y1305500D1*
G37*
G36*
X327500D2*
X386500D1*
Y1304500D1*
X327500D1*
Y1305500D1*
G37*
G36*
X845500D2*
X905500D1*
Y1304500D1*
X845500D1*
Y1305500D1*
G37*
G36*
X927500D2*
X986500D1*
Y1304500D1*
X927500D1*
Y1305500D1*
G37*
G36*
X245500Y1304500D2*
X303500D1*
Y1303500D1*
X245500D1*
Y1304500D1*
G37*
G36*
X329500D2*
X386500D1*
Y1303500D1*
X329500D1*
Y1304500D1*
G37*
G36*
X845500D2*
X903500D1*
Y1303500D1*
X845500D1*
Y1304500D1*
G37*
G36*
X929500D2*
X986500D1*
Y1303500D1*
X929500D1*
Y1304500D1*
G37*
G36*
X245500Y1303500D2*
X302500D1*
Y1302500D1*
X245500D1*
Y1303500D1*
G37*
G36*
X330500D2*
X386500D1*
Y1302500D1*
X330500D1*
Y1303500D1*
G37*
G36*
X845500D2*
X901500D1*
Y1302500D1*
X845500D1*
Y1303500D1*
G37*
G36*
X930500D2*
X986500D1*
Y1302500D1*
X930500D1*
Y1303500D1*
G37*
G36*
X245500Y1302500D2*
X300500D1*
Y1301500D1*
X245500D1*
Y1302500D1*
G37*
G36*
X331500D2*
X386500D1*
Y1301500D1*
X331500D1*
Y1302500D1*
G37*
G36*
X845500D2*
X900500D1*
Y1301500D1*
X845500D1*
Y1302500D1*
G37*
G36*
X931500D2*
X986500D1*
Y1301500D1*
X931500D1*
Y1302500D1*
G37*
G36*
X245500Y1301500D2*
X299500D1*
Y1300500D1*
X245500D1*
Y1301500D1*
G37*
G36*
X332500D2*
X386500D1*
Y1300500D1*
X332500D1*
Y1301500D1*
G37*
G36*
X845500D2*
X899500D1*
Y1300500D1*
X845500D1*
Y1301500D1*
G37*
G36*
X932500D2*
X986500D1*
Y1300500D1*
X932500D1*
Y1301500D1*
G37*
G36*
X245500Y1300500D2*
X298500D1*
Y1299500D1*
X245500D1*
Y1300500D1*
G37*
G36*
X333500D2*
X386500D1*
Y1299500D1*
X333500D1*
Y1300500D1*
G37*
G36*
X845500D2*
X898500D1*
Y1299500D1*
X845500D1*
Y1300500D1*
G37*
G36*
X933500D2*
X986500D1*
Y1299500D1*
X933500D1*
Y1300500D1*
G37*
G36*
X245500Y1299500D2*
X298500D1*
Y1298500D1*
X245500D1*
Y1299500D1*
G37*
G36*
X334500D2*
X386500D1*
Y1298500D1*
X334500D1*
Y1299500D1*
G37*
G36*
X845500D2*
X897500D1*
Y1298500D1*
X845500D1*
Y1299500D1*
G37*
G36*
X934500D2*
X986500D1*
Y1298500D1*
X934500D1*
Y1299500D1*
G37*
G36*
X245500Y1298500D2*
X297500D1*
Y1297500D1*
X245500D1*
Y1298500D1*
G37*
G36*
X335500D2*
X386500D1*
Y1297500D1*
X335500D1*
Y1298500D1*
G37*
G36*
X845500D2*
X897500D1*
Y1297500D1*
X845500D1*
Y1298500D1*
G37*
G36*
X935500D2*
X986500D1*
Y1297500D1*
X935500D1*
Y1298500D1*
G37*
G36*
X245500Y1297500D2*
X296500D1*
Y1296500D1*
X245500D1*
Y1297500D1*
G37*
G36*
X336500D2*
X386500D1*
Y1296500D1*
X336500D1*
Y1297500D1*
G37*
G36*
X845500D2*
X896500D1*
Y1296500D1*
X845500D1*
Y1297500D1*
G37*
G36*
X935500D2*
X986500D1*
Y1296500D1*
X935500D1*
Y1297500D1*
G37*
G36*
X245500Y1296500D2*
X295500D1*
Y1295500D1*
X245500D1*
Y1296500D1*
G37*
G36*
X336500D2*
X386500D1*
Y1295500D1*
X336500D1*
Y1296500D1*
G37*
G36*
X845500D2*
X895500D1*
Y1295500D1*
X845500D1*
Y1296500D1*
G37*
G36*
X936500D2*
X986500D1*
Y1295500D1*
X936500D1*
Y1296500D1*
G37*
G36*
X245500Y1295500D2*
X295500D1*
Y1294500D1*
X245500D1*
Y1295500D1*
G37*
G36*
X337500D2*
X386500D1*
Y1294500D1*
X337500D1*
Y1295500D1*
G37*
G36*
X845500D2*
X895500D1*
Y1294500D1*
X845500D1*
Y1295500D1*
G37*
G36*
X937500D2*
X986500D1*
Y1294500D1*
X937500D1*
Y1295500D1*
G37*
G36*
X245500Y1294500D2*
X294500D1*
Y1293500D1*
X245500D1*
Y1294500D1*
G37*
G36*
X337500D2*
X386500D1*
Y1293500D1*
X337500D1*
Y1294500D1*
G37*
G36*
X845500D2*
X894500D1*
Y1293500D1*
X845500D1*
Y1294500D1*
G37*
G36*
X937500D2*
X986500D1*
Y1293500D1*
X937500D1*
Y1294500D1*
G37*
G36*
X245500Y1293500D2*
X294500D1*
Y1292500D1*
X245500D1*
Y1293500D1*
G37*
G36*
X338500D2*
X386500D1*
Y1292500D1*
X338500D1*
Y1293500D1*
G37*
G36*
X845500D2*
X894500D1*
Y1292500D1*
X845500D1*
Y1293500D1*
G37*
G36*
X938500D2*
X986500D1*
Y1292500D1*
X938500D1*
Y1293500D1*
G37*
G36*
X245500Y1292500D2*
X294500D1*
Y1291500D1*
X245500D1*
Y1292500D1*
G37*
G36*
X338500D2*
X386500D1*
Y1291500D1*
X338500D1*
Y1292500D1*
G37*
G36*
X845500D2*
X893500D1*
Y1291500D1*
X845500D1*
Y1292500D1*
G37*
G36*
X938500D2*
X986500D1*
Y1291500D1*
X938500D1*
Y1292500D1*
G37*
G36*
X245500Y1291500D2*
X293500D1*
Y1290500D1*
X245500D1*
Y1291500D1*
G37*
G36*
X338500D2*
X386500D1*
Y1290500D1*
X338500D1*
Y1291500D1*
G37*
G36*
X845500D2*
X893500D1*
Y1290500D1*
X845500D1*
Y1291500D1*
G37*
G36*
X938500D2*
X986500D1*
Y1290500D1*
X938500D1*
Y1291500D1*
G37*
G36*
X245500Y1290500D2*
X293500D1*
Y1289500D1*
X245500D1*
Y1290500D1*
G37*
G36*
X339500D2*
X386500D1*
Y1289500D1*
X339500D1*
Y1290500D1*
G37*
G36*
X845500D2*
X893500D1*
Y1289500D1*
X845500D1*
Y1290500D1*
G37*
G36*
X939500D2*
X986500D1*
Y1289500D1*
X939500D1*
Y1290500D1*
G37*
G36*
X245500Y1289500D2*
X293500D1*
Y1288500D1*
X245500D1*
Y1289500D1*
G37*
G36*
X339500D2*
X386500D1*
Y1288500D1*
X339500D1*
Y1289500D1*
G37*
G36*
X845500D2*
X893500D1*
Y1288500D1*
X845500D1*
Y1289500D1*
G37*
G36*
X939500D2*
X986500D1*
Y1288500D1*
X939500D1*
Y1289500D1*
G37*
G36*
X245500Y1288500D2*
X293500D1*
Y1287500D1*
X245500D1*
Y1288500D1*
G37*
G36*
X339500D2*
X386500D1*
Y1287500D1*
X339500D1*
Y1288500D1*
G37*
G36*
X845500D2*
X892500D1*
Y1287500D1*
X845500D1*
Y1288500D1*
G37*
G36*
X939500D2*
X986500D1*
Y1287500D1*
X939500D1*
Y1288500D1*
G37*
G36*
X245500Y1287500D2*
X292500D1*
Y1286500D1*
X245500D1*
Y1287500D1*
G37*
G36*
X339500D2*
X386500D1*
Y1286500D1*
X339500D1*
Y1287500D1*
G37*
G36*
X845500D2*
X892500D1*
Y1286500D1*
X845500D1*
Y1287500D1*
G37*
G36*
X939500D2*
X986500D1*
Y1286500D1*
X939500D1*
Y1287500D1*
G37*
G36*
X245500Y1286500D2*
X292500D1*
Y1285500D1*
X245500D1*
Y1286500D1*
G37*
G36*
X339500D2*
X386500D1*
Y1285500D1*
X339500D1*
Y1286500D1*
G37*
G36*
X845500D2*
X892500D1*
Y1285500D1*
X845500D1*
Y1286500D1*
G37*
G36*
X939500D2*
X986500D1*
Y1285500D1*
X939500D1*
Y1286500D1*
G37*
G36*
X245500Y1285500D2*
X292500D1*
Y1284500D1*
X245500D1*
Y1285500D1*
G37*
G36*
X339500D2*
X386500D1*
Y1284500D1*
X339500D1*
Y1285500D1*
G37*
G36*
X845500D2*
X892500D1*
Y1284500D1*
X845500D1*
Y1285500D1*
G37*
G36*
X939500D2*
X986500D1*
Y1284500D1*
X939500D1*
Y1285500D1*
G37*
G36*
X245500Y1284500D2*
X292500D1*
Y1283500D1*
X245500D1*
Y1284500D1*
G37*
G36*
X339500D2*
X386500D1*
Y1283500D1*
X339500D1*
Y1284500D1*
G37*
G36*
X845500D2*
X892500D1*
Y1283500D1*
X845500D1*
Y1284500D1*
G37*
G36*
X939500D2*
X986500D1*
Y1283500D1*
X939500D1*
Y1284500D1*
G37*
G36*
X245500Y1283500D2*
X292500D1*
Y1282500D1*
X245500D1*
Y1283500D1*
G37*
G36*
X339500D2*
X386500D1*
Y1282500D1*
X339500D1*
Y1283500D1*
G37*
G36*
X845500D2*
X892500D1*
Y1282500D1*
X845500D1*
Y1283500D1*
G37*
G36*
X939500D2*
X986500D1*
Y1282500D1*
X939500D1*
Y1283500D1*
G37*
G36*
X245500Y1282500D2*
X292500D1*
Y1281500D1*
X245500D1*
Y1282500D1*
G37*
G36*
X339500D2*
X386500D1*
Y1281500D1*
X339500D1*
Y1282500D1*
G37*
G36*
X845500D2*
X892500D1*
Y1281500D1*
X845500D1*
Y1282500D1*
G37*
G36*
X939500D2*
X986500D1*
Y1281500D1*
X939500D1*
Y1282500D1*
G37*
G36*
X245500Y1281500D2*
X293500D1*
Y1280500D1*
X245500D1*
Y1281500D1*
G37*
G36*
X339500D2*
X386500D1*
Y1280500D1*
X339500D1*
Y1281500D1*
G37*
G36*
X845500D2*
X892500D1*
Y1280500D1*
X845500D1*
Y1281500D1*
G37*
G36*
X939500D2*
X986500D1*
Y1280500D1*
X939500D1*
Y1281500D1*
G37*
G36*
X245500Y1280500D2*
X293500D1*
Y1279500D1*
X245500D1*
Y1280500D1*
G37*
G36*
X339500D2*
X386500D1*
Y1279500D1*
X339500D1*
Y1280500D1*
G37*
G36*
X845500D2*
X893500D1*
Y1279500D1*
X845500D1*
Y1280500D1*
G37*
G36*
X939500D2*
X986500D1*
Y1279500D1*
X939500D1*
Y1280500D1*
G37*
G36*
X245500Y1279500D2*
X293500D1*
Y1278500D1*
X245500D1*
Y1279500D1*
G37*
G36*
X339500D2*
X386500D1*
Y1278500D1*
X339500D1*
Y1279500D1*
G37*
G36*
X845500D2*
X893500D1*
Y1278500D1*
X845500D1*
Y1279500D1*
G37*
G36*
X939500D2*
X986500D1*
Y1278500D1*
X939500D1*
Y1279500D1*
G37*
G36*
X245500Y1278500D2*
X293500D1*
Y1277500D1*
X245500D1*
Y1278500D1*
G37*
G36*
X338500D2*
X386500D1*
Y1277500D1*
X338500D1*
Y1278500D1*
G37*
G36*
X845500D2*
X893500D1*
Y1277500D1*
X845500D1*
Y1278500D1*
G37*
G36*
X938500D2*
X986500D1*
Y1277500D1*
X938500D1*
Y1278500D1*
G37*
G36*
X245500Y1277500D2*
X293500D1*
Y1276500D1*
X245500D1*
Y1277500D1*
G37*
G36*
X338500D2*
X386500D1*
Y1276500D1*
X338500D1*
Y1277500D1*
G37*
G36*
X845500D2*
X893500D1*
Y1276500D1*
X845500D1*
Y1277500D1*
G37*
G36*
X938500D2*
X986500D1*
Y1276500D1*
X938500D1*
Y1277500D1*
G37*
G36*
X245500Y1276500D2*
X294500D1*
Y1275500D1*
X245500D1*
Y1276500D1*
G37*
G36*
X338500D2*
X386500D1*
Y1275500D1*
X338500D1*
Y1276500D1*
G37*
G36*
X845500D2*
X894500D1*
Y1275500D1*
X845500D1*
Y1276500D1*
G37*
G36*
X938500D2*
X986500D1*
Y1275500D1*
X938500D1*
Y1276500D1*
G37*
G36*
X245500Y1275500D2*
X294500D1*
Y1274500D1*
X245500D1*
Y1275500D1*
G37*
G36*
X337500D2*
X386500D1*
Y1274500D1*
X337500D1*
Y1275500D1*
G37*
G36*
X845500D2*
X894500D1*
Y1274500D1*
X845500D1*
Y1275500D1*
G37*
G36*
X937500D2*
X986500D1*
Y1274500D1*
X937500D1*
Y1275500D1*
G37*
G36*
X245500Y1274500D2*
X295500D1*
Y1273500D1*
X245500D1*
Y1274500D1*
G37*
G36*
X337500D2*
X386500D1*
Y1273500D1*
X337500D1*
Y1274500D1*
G37*
G36*
X845500D2*
X895500D1*
Y1273500D1*
X845500D1*
Y1274500D1*
G37*
G36*
X937500D2*
X986500D1*
Y1273500D1*
X937500D1*
Y1274500D1*
G37*
G36*
X245500Y1273500D2*
X295500D1*
Y1272500D1*
X245500D1*
Y1273500D1*
G37*
G36*
X336500D2*
X386500D1*
Y1272500D1*
X336500D1*
Y1273500D1*
G37*
G36*
X845500D2*
X895500D1*
Y1272500D1*
X845500D1*
Y1273500D1*
G37*
G36*
X936500D2*
X986500D1*
Y1272500D1*
X936500D1*
Y1273500D1*
G37*
G36*
X245500Y1272500D2*
X296500D1*
Y1271500D1*
X245500D1*
Y1272500D1*
G37*
G36*
X336500D2*
X386500D1*
Y1271500D1*
X336500D1*
Y1272500D1*
G37*
G36*
X845500D2*
X896500D1*
Y1271500D1*
X845500D1*
Y1272500D1*
G37*
G36*
X936500D2*
X986500D1*
Y1271500D1*
X936500D1*
Y1272500D1*
G37*
G36*
X245500Y1271500D2*
X296500D1*
Y1270500D1*
X245500D1*
Y1271500D1*
G37*
G36*
X335500D2*
X386500D1*
Y1270500D1*
X335500D1*
Y1271500D1*
G37*
G36*
X845500D2*
X896500D1*
Y1270500D1*
X845500D1*
Y1271500D1*
G37*
G36*
X935500D2*
X986500D1*
Y1270500D1*
X935500D1*
Y1271500D1*
G37*
G36*
X245500Y1270500D2*
X297500D1*
Y1269500D1*
X245500D1*
Y1270500D1*
G37*
G36*
X334500D2*
X386500D1*
Y1269500D1*
X334500D1*
Y1270500D1*
G37*
G36*
X845500D2*
X897500D1*
Y1269500D1*
X845500D1*
Y1270500D1*
G37*
G36*
X934500D2*
X986500D1*
Y1269500D1*
X934500D1*
Y1270500D1*
G37*
G36*
X245500Y1269500D2*
X298500D1*
Y1268500D1*
X245500D1*
Y1269500D1*
G37*
G36*
X333500D2*
X386500D1*
Y1268500D1*
X333500D1*
Y1269500D1*
G37*
G36*
X845500D2*
X898500D1*
Y1268500D1*
X845500D1*
Y1269500D1*
G37*
G36*
X933500D2*
X986500D1*
Y1268500D1*
X933500D1*
Y1269500D1*
G37*
G36*
X245500Y1268500D2*
X299500D1*
Y1267500D1*
X245500D1*
Y1268500D1*
G37*
G36*
X333500D2*
X386500D1*
Y1267500D1*
X333500D1*
Y1268500D1*
G37*
G36*
X845500D2*
X899500D1*
Y1267500D1*
X845500D1*
Y1268500D1*
G37*
G36*
X932500D2*
X986500D1*
Y1267500D1*
X932500D1*
Y1268500D1*
G37*
G36*
X245500Y1267500D2*
X300500D1*
Y1266500D1*
X245500D1*
Y1267500D1*
G37*
G36*
X332500D2*
X386500D1*
Y1266500D1*
X332500D1*
Y1267500D1*
G37*
G36*
X845500D2*
X900500D1*
Y1266500D1*
X845500D1*
Y1267500D1*
G37*
G36*
X931500D2*
X986500D1*
Y1266500D1*
X931500D1*
Y1267500D1*
G37*
G36*
X245500Y1266500D2*
X301500D1*
Y1265500D1*
X245500D1*
Y1266500D1*
G37*
G36*
X330500D2*
X386500D1*
Y1265500D1*
X330500D1*
Y1266500D1*
G37*
G36*
X845500D2*
X901500D1*
Y1265500D1*
X845500D1*
Y1266500D1*
G37*
G36*
X930500D2*
X986500D1*
Y1265500D1*
X930500D1*
Y1266500D1*
G37*
G36*
X245500Y1265500D2*
X302500D1*
Y1264500D1*
X245500D1*
Y1265500D1*
G37*
G36*
X329500D2*
X386500D1*
Y1264500D1*
X329500D1*
Y1265500D1*
G37*
G36*
X845500D2*
X902500D1*
Y1264500D1*
X845500D1*
Y1265500D1*
G37*
G36*
X929500D2*
X986500D1*
Y1264500D1*
X929500D1*
Y1265500D1*
G37*
G36*
X245500Y1264500D2*
X304500D1*
Y1263500D1*
X245500D1*
Y1264500D1*
G37*
G36*
X328500D2*
X386500D1*
Y1263500D1*
X328500D1*
Y1264500D1*
G37*
G36*
X845500D2*
X904500D1*
Y1263500D1*
X845500D1*
Y1264500D1*
G37*
G36*
X927500D2*
X986500D1*
Y1263500D1*
X927500D1*
Y1264500D1*
G37*
G36*
X245500Y1263500D2*
X306500D1*
Y1262500D1*
X245500D1*
Y1263500D1*
G37*
G36*
X326500D2*
X386500D1*
Y1262500D1*
X326500D1*
Y1263500D1*
G37*
G36*
X845500D2*
X906500D1*
Y1262500D1*
X845500D1*
Y1263500D1*
G37*
G36*
X926500D2*
X986500D1*
Y1262500D1*
X926500D1*
Y1263500D1*
G37*
G36*
X245500Y1262500D2*
X308500D1*
Y1261500D1*
X245500D1*
Y1262500D1*
G37*
G36*
X323500D2*
X386500D1*
Y1261500D1*
X323500D1*
Y1262500D1*
G37*
G36*
X845500D2*
X908500D1*
Y1261500D1*
X845500D1*
Y1262500D1*
G37*
G36*
X923500D2*
X986500D1*
Y1261500D1*
X923500D1*
Y1262500D1*
G37*
G36*
X245500Y1261500D2*
X386500D1*
Y1260500D1*
X245500D1*
Y1261500D1*
G37*
G36*
X845500D2*
X986500D1*
Y1260500D1*
X845500D1*
Y1261500D1*
G37*
G36*
X245500Y1260500D2*
X386500D1*
Y1259500D1*
X245500D1*
Y1260500D1*
G37*
G36*
X845500D2*
X986500D1*
Y1259500D1*
X845500D1*
Y1260500D1*
G37*
G36*
X245500Y1259500D2*
X386500D1*
Y1258500D1*
X245500D1*
Y1259500D1*
G37*
G36*
X845500D2*
X986500D1*
Y1258500D1*
X845500D1*
Y1259500D1*
G37*
G36*
X245500Y1258500D2*
X386500D1*
Y1257500D1*
X245500D1*
Y1258500D1*
G37*
G36*
X845500D2*
X986500D1*
Y1257500D1*
X845500D1*
Y1258500D1*
G37*
G36*
X245500Y1257500D2*
X386500D1*
Y1256500D1*
X245500D1*
Y1257500D1*
G37*
G36*
X845500D2*
X986500D1*
Y1256500D1*
X845500D1*
Y1257500D1*
G37*
G36*
X245500Y1256500D2*
X386500D1*
Y1255500D1*
X245500D1*
Y1256500D1*
G37*
G36*
X845500D2*
X986500D1*
Y1255500D1*
X845500D1*
Y1256500D1*
G37*
G36*
X245500Y1255500D2*
X386500D1*
Y1254500D1*
X245500D1*
Y1255500D1*
G37*
G36*
X845500D2*
X986500D1*
Y1254500D1*
X845500D1*
Y1255500D1*
G37*
G36*
X245500Y1254500D2*
X386500D1*
Y1253500D1*
X245500D1*
Y1254500D1*
G37*
G36*
X845500D2*
X986500D1*
Y1253500D1*
X845500D1*
Y1254500D1*
G37*
G36*
X245500Y1253500D2*
X386500D1*
Y1252500D1*
X245500D1*
Y1253500D1*
G37*
G36*
X845500D2*
X986500D1*
Y1252500D1*
X845500D1*
Y1253500D1*
G37*
G36*
X245500Y1252500D2*
X386500D1*
Y1251500D1*
X245500D1*
Y1252500D1*
G37*
G36*
X845500D2*
X986500D1*
Y1251500D1*
X845500D1*
Y1252500D1*
G37*
G36*
X246500Y1251500D2*
X386500D1*
Y1250500D1*
X246500D1*
Y1251500D1*
G37*
G36*
X845500D2*
X986500D1*
Y1250500D1*
X845500D1*
Y1251500D1*
G37*
G36*
X312500Y1218500D2*
X319500D1*
Y1217500D1*
X312500D1*
Y1218500D1*
G37*
G36*
X912500D2*
X919500D1*
Y1217500D1*
X912500D1*
Y1218500D1*
G37*
G36*
X245500Y1217500D2*
X386500D1*
Y1216500D1*
X245500D1*
Y1217500D1*
G37*
G36*
X845500D2*
X986500D1*
Y1216500D1*
X845500D1*
Y1217500D1*
G37*
G36*
X245500Y1216500D2*
X386500D1*
Y1215500D1*
X245500D1*
Y1216500D1*
G37*
G36*
X845500D2*
X986500D1*
Y1215500D1*
X845500D1*
Y1216500D1*
G37*
G36*
X245500Y1215500D2*
X386500D1*
Y1214500D1*
X245500D1*
Y1215500D1*
G37*
G36*
X845500D2*
X986500D1*
Y1214500D1*
X845500D1*
Y1215500D1*
G37*
G36*
X245500Y1214500D2*
X386500D1*
Y1213500D1*
X245500D1*
Y1214500D1*
G37*
G36*
X845500D2*
X986500D1*
Y1213500D1*
X845500D1*
Y1214500D1*
G37*
G36*
X245500Y1213500D2*
X386500D1*
Y1212500D1*
X245500D1*
Y1213500D1*
G37*
G36*
X845500D2*
X986500D1*
Y1212500D1*
X845500D1*
Y1213500D1*
G37*
G36*
X245500Y1212500D2*
X386500D1*
Y1211500D1*
X245500D1*
Y1212500D1*
G37*
G36*
X845500D2*
X986500D1*
Y1211500D1*
X845500D1*
Y1212500D1*
G37*
G36*
X245500Y1211500D2*
X386500D1*
Y1210500D1*
X245500D1*
Y1211500D1*
G37*
G36*
X845500D2*
X986500D1*
Y1210500D1*
X845500D1*
Y1211500D1*
G37*
G36*
X245500Y1210500D2*
X386500D1*
Y1209500D1*
X245500D1*
Y1210500D1*
G37*
G36*
X845500D2*
X986500D1*
Y1209500D1*
X845500D1*
Y1210500D1*
G37*
G36*
X245500Y1209500D2*
X386500D1*
Y1208500D1*
X245500D1*
Y1209500D1*
G37*
G36*
X845500D2*
X986500D1*
Y1208500D1*
X845500D1*
Y1209500D1*
G37*
G36*
X245500Y1208500D2*
X386500D1*
Y1207500D1*
X245500D1*
Y1208500D1*
G37*
G36*
X845500D2*
X986500D1*
Y1207500D1*
X845500D1*
Y1208500D1*
G37*
G36*
X245500Y1207500D2*
X309500D1*
Y1206500D1*
X245500D1*
Y1207500D1*
G37*
G36*
X322500D2*
X386500D1*
Y1206500D1*
X322500D1*
Y1207500D1*
G37*
G36*
X845500D2*
X909500D1*
Y1206500D1*
X845500D1*
Y1207500D1*
G37*
G36*
X922500D2*
X986500D1*
Y1206500D1*
X922500D1*
Y1207500D1*
G37*
G36*
X245500Y1206500D2*
X306500D1*
Y1205500D1*
X245500D1*
Y1206500D1*
G37*
G36*
X325500D2*
X386500D1*
Y1205500D1*
X325500D1*
Y1206500D1*
G37*
G36*
X845500D2*
X906500D1*
Y1205500D1*
X845500D1*
Y1206500D1*
G37*
G36*
X925500D2*
X986500D1*
Y1205500D1*
X925500D1*
Y1206500D1*
G37*
G36*
X245500Y1205500D2*
X305500D1*
Y1204500D1*
X245500D1*
Y1205500D1*
G37*
G36*
X327500D2*
X386500D1*
Y1204500D1*
X327500D1*
Y1205500D1*
G37*
G36*
X845500D2*
X904500D1*
Y1204500D1*
X845500D1*
Y1205500D1*
G37*
G36*
X927500D2*
X986500D1*
Y1204500D1*
X927500D1*
Y1205500D1*
G37*
G36*
X245500Y1204500D2*
X303500D1*
Y1203500D1*
X245500D1*
Y1204500D1*
G37*
G36*
X329500D2*
X386500D1*
Y1203500D1*
X329500D1*
Y1204500D1*
G37*
G36*
X845500D2*
X903500D1*
Y1203500D1*
X845500D1*
Y1204500D1*
G37*
G36*
X929500D2*
X986500D1*
Y1203500D1*
X929500D1*
Y1204500D1*
G37*
G36*
X245500Y1203500D2*
X302500D1*
Y1202500D1*
X245500D1*
Y1203500D1*
G37*
G36*
X330500D2*
X386500D1*
Y1202500D1*
X330500D1*
Y1203500D1*
G37*
G36*
X845500D2*
X901500D1*
Y1202500D1*
X845500D1*
Y1203500D1*
G37*
G36*
X930500D2*
X986500D1*
Y1202500D1*
X930500D1*
Y1203500D1*
G37*
G36*
X245500Y1202500D2*
X300500D1*
Y1201500D1*
X245500D1*
Y1202500D1*
G37*
G36*
X331500D2*
X386500D1*
Y1201500D1*
X331500D1*
Y1202500D1*
G37*
G36*
X845500D2*
X900500D1*
Y1201500D1*
X845500D1*
Y1202500D1*
G37*
G36*
X931500D2*
X986500D1*
Y1201500D1*
X931500D1*
Y1202500D1*
G37*
G36*
X245500Y1201500D2*
X299500D1*
Y1200500D1*
X245500D1*
Y1201500D1*
G37*
G36*
X332500D2*
X386500D1*
Y1200500D1*
X332500D1*
Y1201500D1*
G37*
G36*
X845500D2*
X899500D1*
Y1200500D1*
X845500D1*
Y1201500D1*
G37*
G36*
X932500D2*
X986500D1*
Y1200500D1*
X932500D1*
Y1201500D1*
G37*
G36*
X245500Y1200500D2*
X298500D1*
Y1199500D1*
X245500D1*
Y1200500D1*
G37*
G36*
X333500D2*
X386500D1*
Y1199500D1*
X333500D1*
Y1200500D1*
G37*
G36*
X845500D2*
X898500D1*
Y1199500D1*
X845500D1*
Y1200500D1*
G37*
G36*
X933500D2*
X986500D1*
Y1199500D1*
X933500D1*
Y1200500D1*
G37*
G36*
X245500Y1199500D2*
X298500D1*
Y1198500D1*
X245500D1*
Y1199500D1*
G37*
G36*
X334500D2*
X386500D1*
Y1198500D1*
X334500D1*
Y1199500D1*
G37*
G36*
X845500D2*
X897500D1*
Y1198500D1*
X845500D1*
Y1199500D1*
G37*
G36*
X934500D2*
X986500D1*
Y1198500D1*
X934500D1*
Y1199500D1*
G37*
G36*
X245500Y1198500D2*
X297500D1*
Y1197500D1*
X245500D1*
Y1198500D1*
G37*
G36*
X335500D2*
X386500D1*
Y1197500D1*
X335500D1*
Y1198500D1*
G37*
G36*
X845500D2*
X897500D1*
Y1197500D1*
X845500D1*
Y1198500D1*
G37*
G36*
X935500D2*
X986500D1*
Y1197500D1*
X935500D1*
Y1198500D1*
G37*
G36*
X245500Y1197500D2*
X296500D1*
Y1196500D1*
X245500D1*
Y1197500D1*
G37*
G36*
X336500D2*
X386500D1*
Y1196500D1*
X336500D1*
Y1197500D1*
G37*
G36*
X845500D2*
X896500D1*
Y1196500D1*
X845500D1*
Y1197500D1*
G37*
G36*
X936500D2*
X986500D1*
Y1196500D1*
X936500D1*
Y1197500D1*
G37*
G36*
X245500Y1196500D2*
X295500D1*
Y1195500D1*
X245500D1*
Y1196500D1*
G37*
G36*
X336500D2*
X386500D1*
Y1195500D1*
X336500D1*
Y1196500D1*
G37*
G36*
X845500D2*
X895500D1*
Y1195500D1*
X845500D1*
Y1196500D1*
G37*
G36*
X936500D2*
X986500D1*
Y1195500D1*
X936500D1*
Y1196500D1*
G37*
G36*
X245500Y1195500D2*
X295500D1*
Y1194500D1*
X245500D1*
Y1195500D1*
G37*
G36*
X337500D2*
X386500D1*
Y1194500D1*
X337500D1*
Y1195500D1*
G37*
G36*
X845500D2*
X895500D1*
Y1194500D1*
X845500D1*
Y1195500D1*
G37*
G36*
X937500D2*
X986500D1*
Y1194500D1*
X937500D1*
Y1195500D1*
G37*
G36*
X245500Y1194500D2*
X294500D1*
Y1193500D1*
X245500D1*
Y1194500D1*
G37*
G36*
X337500D2*
X386500D1*
Y1193500D1*
X337500D1*
Y1194500D1*
G37*
G36*
X845500D2*
X894500D1*
Y1193500D1*
X845500D1*
Y1194500D1*
G37*
G36*
X937500D2*
X986500D1*
Y1193500D1*
X937500D1*
Y1194500D1*
G37*
G36*
X245500Y1193500D2*
X294500D1*
Y1192500D1*
X245500D1*
Y1193500D1*
G37*
G36*
X338500D2*
X386500D1*
Y1192500D1*
X338500D1*
Y1193500D1*
G37*
G36*
X845500D2*
X894500D1*
Y1192500D1*
X845500D1*
Y1193500D1*
G37*
G36*
X938500D2*
X986500D1*
Y1192500D1*
X938500D1*
Y1193500D1*
G37*
G36*
X245500Y1192500D2*
X294500D1*
Y1191500D1*
X245500D1*
Y1192500D1*
G37*
G36*
X338500D2*
X386500D1*
Y1191500D1*
X338500D1*
Y1192500D1*
G37*
G36*
X845500D2*
X893500D1*
Y1191500D1*
X845500D1*
Y1192500D1*
G37*
G36*
X938500D2*
X986500D1*
Y1191500D1*
X938500D1*
Y1192500D1*
G37*
G36*
X245500Y1191500D2*
X293500D1*
Y1190500D1*
X245500D1*
Y1191500D1*
G37*
G36*
X338500D2*
X386500D1*
Y1190500D1*
X338500D1*
Y1191500D1*
G37*
G36*
X845500D2*
X893500D1*
Y1190500D1*
X845500D1*
Y1191500D1*
G37*
G36*
X938500D2*
X986500D1*
Y1190500D1*
X938500D1*
Y1191500D1*
G37*
G36*
X245500Y1190500D2*
X293500D1*
Y1189500D1*
X245500D1*
Y1190500D1*
G37*
G36*
X339500D2*
X386500D1*
Y1189500D1*
X339500D1*
Y1190500D1*
G37*
G36*
X845500D2*
X893500D1*
Y1189500D1*
X845500D1*
Y1190500D1*
G37*
G36*
X939500D2*
X986500D1*
Y1189500D1*
X939500D1*
Y1190500D1*
G37*
G36*
X245500Y1189500D2*
X293500D1*
Y1188500D1*
X245500D1*
Y1189500D1*
G37*
G36*
X339500D2*
X386500D1*
Y1188500D1*
X339500D1*
Y1189500D1*
G37*
G36*
X845500D2*
X893500D1*
Y1188500D1*
X845500D1*
Y1189500D1*
G37*
G36*
X939500D2*
X986500D1*
Y1188500D1*
X939500D1*
Y1189500D1*
G37*
G36*
X245500Y1188500D2*
X293500D1*
Y1187500D1*
X245500D1*
Y1188500D1*
G37*
G36*
X339500D2*
X386500D1*
Y1187500D1*
X339500D1*
Y1188500D1*
G37*
G36*
X845500D2*
X892500D1*
Y1187500D1*
X845500D1*
Y1188500D1*
G37*
G36*
X939500D2*
X986500D1*
Y1187500D1*
X939500D1*
Y1188500D1*
G37*
G36*
X245500Y1187500D2*
X292500D1*
Y1186500D1*
X245500D1*
Y1187500D1*
G37*
G36*
X339500D2*
X386500D1*
Y1186500D1*
X339500D1*
Y1187500D1*
G37*
G36*
X845500D2*
X892500D1*
Y1186500D1*
X845500D1*
Y1187500D1*
G37*
G36*
X939500D2*
X986500D1*
Y1186500D1*
X939500D1*
Y1187500D1*
G37*
G36*
X245500Y1186500D2*
X292500D1*
Y1185500D1*
X245500D1*
Y1186500D1*
G37*
G36*
X339500D2*
X386500D1*
Y1185500D1*
X339500D1*
Y1186500D1*
G37*
G36*
X845500D2*
X892500D1*
Y1185500D1*
X845500D1*
Y1186500D1*
G37*
G36*
X939500D2*
X986500D1*
Y1185500D1*
X939500D1*
Y1186500D1*
G37*
G36*
X245500Y1185500D2*
X292500D1*
Y1184500D1*
X245500D1*
Y1185500D1*
G37*
G36*
X339500D2*
X386500D1*
Y1184500D1*
X339500D1*
Y1185500D1*
G37*
G36*
X845500D2*
X892500D1*
Y1184500D1*
X845500D1*
Y1185500D1*
G37*
G36*
X939500D2*
X986500D1*
Y1184500D1*
X939500D1*
Y1185500D1*
G37*
G36*
X245500Y1184500D2*
X292500D1*
Y1183500D1*
X245500D1*
Y1184500D1*
G37*
G36*
X339500D2*
X386500D1*
Y1183500D1*
X339500D1*
Y1184500D1*
G37*
G36*
X845500D2*
X892500D1*
Y1183500D1*
X845500D1*
Y1184500D1*
G37*
G36*
X939500D2*
X986500D1*
Y1183500D1*
X939500D1*
Y1184500D1*
G37*
G36*
X245500Y1183500D2*
X292500D1*
Y1182500D1*
X245500D1*
Y1183500D1*
G37*
G36*
X339500D2*
X386500D1*
Y1182500D1*
X339500D1*
Y1183500D1*
G37*
G36*
X845500D2*
X892500D1*
Y1182500D1*
X845500D1*
Y1183500D1*
G37*
G36*
X939500D2*
X986500D1*
Y1182500D1*
X939500D1*
Y1183500D1*
G37*
G36*
X245500Y1182500D2*
X292500D1*
Y1181500D1*
X245500D1*
Y1182500D1*
G37*
G36*
X339500D2*
X386500D1*
Y1181500D1*
X339500D1*
Y1182500D1*
G37*
G36*
X845500D2*
X892500D1*
Y1181500D1*
X845500D1*
Y1182500D1*
G37*
G36*
X939500D2*
X986500D1*
Y1181500D1*
X939500D1*
Y1182500D1*
G37*
G36*
X245500Y1181500D2*
X293500D1*
Y1180500D1*
X245500D1*
Y1181500D1*
G37*
G36*
X339500D2*
X386500D1*
Y1180500D1*
X339500D1*
Y1181500D1*
G37*
G36*
X845500D2*
X892500D1*
Y1180500D1*
X845500D1*
Y1181500D1*
G37*
G36*
X939500D2*
X986500D1*
Y1180500D1*
X939500D1*
Y1181500D1*
G37*
G36*
X245500Y1180500D2*
X293500D1*
Y1179500D1*
X245500D1*
Y1180500D1*
G37*
G36*
X339500D2*
X386500D1*
Y1179500D1*
X339500D1*
Y1180500D1*
G37*
G36*
X845500D2*
X893500D1*
Y1179500D1*
X845500D1*
Y1180500D1*
G37*
G36*
X939500D2*
X986500D1*
Y1179500D1*
X939500D1*
Y1180500D1*
G37*
G36*
X245500Y1179500D2*
X293500D1*
Y1178500D1*
X245500D1*
Y1179500D1*
G37*
G36*
X339500D2*
X386500D1*
Y1178500D1*
X339500D1*
Y1179500D1*
G37*
G36*
X845500D2*
X893500D1*
Y1178500D1*
X845500D1*
Y1179500D1*
G37*
G36*
X939500D2*
X986500D1*
Y1178500D1*
X939500D1*
Y1179500D1*
G37*
G36*
X245500Y1178500D2*
X293500D1*
Y1177500D1*
X245500D1*
Y1178500D1*
G37*
G36*
X338500D2*
X386500D1*
Y1177500D1*
X338500D1*
Y1178500D1*
G37*
G36*
X845500D2*
X893500D1*
Y1177500D1*
X845500D1*
Y1178500D1*
G37*
G36*
X938500D2*
X986500D1*
Y1177500D1*
X938500D1*
Y1178500D1*
G37*
G36*
X245500Y1177500D2*
X293500D1*
Y1176500D1*
X245500D1*
Y1177500D1*
G37*
G36*
X338500D2*
X386500D1*
Y1176500D1*
X338500D1*
Y1177500D1*
G37*
G36*
X845500D2*
X893500D1*
Y1176500D1*
X845500D1*
Y1177500D1*
G37*
G36*
X938500D2*
X986500D1*
Y1176500D1*
X938500D1*
Y1177500D1*
G37*
G36*
X245500Y1176500D2*
X294500D1*
Y1175500D1*
X245500D1*
Y1176500D1*
G37*
G36*
X338500D2*
X386500D1*
Y1175500D1*
X338500D1*
Y1176500D1*
G37*
G36*
X845500D2*
X894500D1*
Y1175500D1*
X845500D1*
Y1176500D1*
G37*
G36*
X938500D2*
X986500D1*
Y1175500D1*
X938500D1*
Y1176500D1*
G37*
G36*
X245500Y1175500D2*
X294500D1*
Y1174500D1*
X245500D1*
Y1175500D1*
G37*
G36*
X337500D2*
X386500D1*
Y1174500D1*
X337500D1*
Y1175500D1*
G37*
G36*
X845500D2*
X894500D1*
Y1174500D1*
X845500D1*
Y1175500D1*
G37*
G36*
X937500D2*
X986500D1*
Y1174500D1*
X937500D1*
Y1175500D1*
G37*
G36*
X245500Y1174500D2*
X295500D1*
Y1173500D1*
X245500D1*
Y1174500D1*
G37*
G36*
X337500D2*
X386500D1*
Y1173500D1*
X337500D1*
Y1174500D1*
G37*
G36*
X845500D2*
X895500D1*
Y1173500D1*
X845500D1*
Y1174500D1*
G37*
G36*
X937500D2*
X986500D1*
Y1173500D1*
X937500D1*
Y1174500D1*
G37*
G36*
X245500Y1173500D2*
X295500D1*
Y1172500D1*
X245500D1*
Y1173500D1*
G37*
G36*
X336500D2*
X386500D1*
Y1172500D1*
X336500D1*
Y1173500D1*
G37*
G36*
X845500D2*
X895500D1*
Y1172500D1*
X845500D1*
Y1173500D1*
G37*
G36*
X936500D2*
X986500D1*
Y1172500D1*
X936500D1*
Y1173500D1*
G37*
G36*
X245500Y1172500D2*
X296500D1*
Y1171500D1*
X245500D1*
Y1172500D1*
G37*
G36*
X336500D2*
X386500D1*
Y1171500D1*
X336500D1*
Y1172500D1*
G37*
G36*
X845500D2*
X896500D1*
Y1171500D1*
X845500D1*
Y1172500D1*
G37*
G36*
X936500D2*
X986500D1*
Y1171500D1*
X936500D1*
Y1172500D1*
G37*
G36*
X245500Y1171500D2*
X296500D1*
Y1170500D1*
X245500D1*
Y1171500D1*
G37*
G36*
X335500D2*
X386500D1*
Y1170500D1*
X335500D1*
Y1171500D1*
G37*
G36*
X845500D2*
X896500D1*
Y1170500D1*
X845500D1*
Y1171500D1*
G37*
G36*
X935500D2*
X986500D1*
Y1170500D1*
X935500D1*
Y1171500D1*
G37*
G36*
X245500Y1170500D2*
X297500D1*
Y1169500D1*
X245500D1*
Y1170500D1*
G37*
G36*
X334500D2*
X386500D1*
Y1169500D1*
X334500D1*
Y1170500D1*
G37*
G36*
X845500D2*
X897500D1*
Y1169500D1*
X845500D1*
Y1170500D1*
G37*
G36*
X934500D2*
X986500D1*
Y1169500D1*
X934500D1*
Y1170500D1*
G37*
G36*
X245500Y1169500D2*
X298500D1*
Y1168500D1*
X245500D1*
Y1169500D1*
G37*
G36*
X333500D2*
X386500D1*
Y1168500D1*
X333500D1*
Y1169500D1*
G37*
G36*
X845500D2*
X898500D1*
Y1168500D1*
X845500D1*
Y1169500D1*
G37*
G36*
X933500D2*
X986500D1*
Y1168500D1*
X933500D1*
Y1169500D1*
G37*
G36*
X245500Y1168500D2*
X299500D1*
Y1167500D1*
X245500D1*
Y1168500D1*
G37*
G36*
X333500D2*
X386500D1*
Y1167500D1*
X333500D1*
Y1168500D1*
G37*
G36*
X845500D2*
X899500D1*
Y1167500D1*
X845500D1*
Y1168500D1*
G37*
G36*
X932500D2*
X986500D1*
Y1167500D1*
X932500D1*
Y1168500D1*
G37*
G36*
X245500Y1167500D2*
X300500D1*
Y1166500D1*
X245500D1*
Y1167500D1*
G37*
G36*
X332500D2*
X386500D1*
Y1166500D1*
X332500D1*
Y1167500D1*
G37*
G36*
X845500D2*
X900500D1*
Y1166500D1*
X845500D1*
Y1167500D1*
G37*
G36*
X931500D2*
X986500D1*
Y1166500D1*
X931500D1*
Y1167500D1*
G37*
G36*
X245500Y1166500D2*
X301500D1*
Y1165500D1*
X245500D1*
Y1166500D1*
G37*
G36*
X330500D2*
X386500D1*
Y1165500D1*
X330500D1*
Y1166500D1*
G37*
G36*
X845500D2*
X901500D1*
Y1165500D1*
X845500D1*
Y1166500D1*
G37*
G36*
X930500D2*
X986500D1*
Y1165500D1*
X930500D1*
Y1166500D1*
G37*
G36*
X245500Y1165500D2*
X303500D1*
Y1164500D1*
X245500D1*
Y1165500D1*
G37*
G36*
X329500D2*
X386500D1*
Y1164500D1*
X329500D1*
Y1165500D1*
G37*
G36*
X845500D2*
X902500D1*
Y1164500D1*
X845500D1*
Y1165500D1*
G37*
G36*
X929500D2*
X986500D1*
Y1164500D1*
X929500D1*
Y1165500D1*
G37*
G36*
X245500Y1164500D2*
X304500D1*
Y1163500D1*
X245500D1*
Y1164500D1*
G37*
G36*
X327500D2*
X386500D1*
Y1163500D1*
X327500D1*
Y1164500D1*
G37*
G36*
X845500D2*
X904500D1*
Y1163500D1*
X845500D1*
Y1164500D1*
G37*
G36*
X927500D2*
X986500D1*
Y1163500D1*
X927500D1*
Y1164500D1*
G37*
G36*
X245500Y1163500D2*
X306500D1*
Y1162500D1*
X245500D1*
Y1163500D1*
G37*
G36*
X326500D2*
X386500D1*
Y1162500D1*
X326500D1*
Y1163500D1*
G37*
G36*
X845500D2*
X906500D1*
Y1162500D1*
X845500D1*
Y1163500D1*
G37*
G36*
X926500D2*
X986500D1*
Y1162500D1*
X926500D1*
Y1163500D1*
G37*
G36*
X245500Y1162500D2*
X308500D1*
Y1161500D1*
X245500D1*
Y1162500D1*
G37*
G36*
X323500D2*
X386500D1*
Y1161500D1*
X323500D1*
Y1162500D1*
G37*
G36*
X845500D2*
X908500D1*
Y1161500D1*
X845500D1*
Y1162500D1*
G37*
G36*
X923500D2*
X986500D1*
Y1161500D1*
X923500D1*
Y1162500D1*
G37*
G36*
X245500Y1161500D2*
X386500D1*
Y1160500D1*
X245500D1*
Y1161500D1*
G37*
G36*
X845500D2*
X986500D1*
Y1160500D1*
X845500D1*
Y1161500D1*
G37*
G36*
X245500Y1160500D2*
X386500D1*
Y1159500D1*
X245500D1*
Y1160500D1*
G37*
G36*
X845500D2*
X986500D1*
Y1159500D1*
X845500D1*
Y1160500D1*
G37*
G36*
X245500Y1159500D2*
X386500D1*
Y1158500D1*
X245500D1*
Y1159500D1*
G37*
G36*
X845500D2*
X986500D1*
Y1158500D1*
X845500D1*
Y1159500D1*
G37*
G36*
X245500Y1158500D2*
X386500D1*
Y1157500D1*
X245500D1*
Y1158500D1*
G37*
G36*
X845500D2*
X986500D1*
Y1157500D1*
X845500D1*
Y1158500D1*
G37*
G36*
X245500Y1157500D2*
X386500D1*
Y1156500D1*
X245500D1*
Y1157500D1*
G37*
G36*
X845500D2*
X986500D1*
Y1156500D1*
X845500D1*
Y1157500D1*
G37*
G36*
X245500Y1156500D2*
X386500D1*
Y1155500D1*
X245500D1*
Y1156500D1*
G37*
G36*
X845500D2*
X986500D1*
Y1155500D1*
X845500D1*
Y1156500D1*
G37*
G36*
X245500Y1155500D2*
X386500D1*
Y1154500D1*
X245500D1*
Y1155500D1*
G37*
G36*
X845500D2*
X986500D1*
Y1154500D1*
X845500D1*
Y1155500D1*
G37*
G36*
X245500Y1154500D2*
X386500D1*
Y1153500D1*
X245500D1*
Y1154500D1*
G37*
G36*
X845500D2*
X986500D1*
Y1153500D1*
X845500D1*
Y1154500D1*
G37*
G36*
X245500Y1153500D2*
X386500D1*
Y1152500D1*
X245500D1*
Y1153500D1*
G37*
G36*
X845500D2*
X986500D1*
Y1152500D1*
X845500D1*
Y1153500D1*
G37*
G36*
X245500Y1152500D2*
X386500D1*
Y1151500D1*
X245500D1*
Y1152500D1*
G37*
G36*
X845500D2*
X986500D1*
Y1151500D1*
X845500D1*
Y1152500D1*
G37*
G36*
X246500Y1151500D2*
X386500D1*
Y1150500D1*
X246500D1*
Y1151500D1*
G37*
G36*
X845500D2*
X986500D1*
Y1150500D1*
X845500D1*
Y1151500D1*
G37*
G36*
X312500Y1118500D2*
X320500D1*
Y1117500D1*
X312500D1*
Y1118500D1*
G37*
G36*
X912500D2*
X920500D1*
Y1117500D1*
X912500D1*
Y1118500D1*
G37*
G36*
X245500Y1117500D2*
X386500D1*
Y1116500D1*
X245500D1*
Y1117500D1*
G37*
G36*
X845500D2*
X986500D1*
Y1116500D1*
X845500D1*
Y1117500D1*
G37*
G36*
X245500Y1116500D2*
X386500D1*
Y1115500D1*
X245500D1*
Y1116500D1*
G37*
G36*
X845500D2*
X986500D1*
Y1115500D1*
X845500D1*
Y1116500D1*
G37*
G36*
X245500Y1115500D2*
X386500D1*
Y1114500D1*
X245500D1*
Y1115500D1*
G37*
G36*
X845500D2*
X986500D1*
Y1114500D1*
X845500D1*
Y1115500D1*
G37*
G36*
X245500Y1114500D2*
X386500D1*
Y1113500D1*
X245500D1*
Y1114500D1*
G37*
G36*
X845500D2*
X986500D1*
Y1113500D1*
X845500D1*
Y1114500D1*
G37*
G36*
X245500Y1113500D2*
X386500D1*
Y1112500D1*
X245500D1*
Y1113500D1*
G37*
G36*
X845500D2*
X986500D1*
Y1112500D1*
X845500D1*
Y1113500D1*
G37*
G36*
X245500Y1112500D2*
X386500D1*
Y1111500D1*
X245500D1*
Y1112500D1*
G37*
G36*
X845500D2*
X986500D1*
Y1111500D1*
X845500D1*
Y1112500D1*
G37*
G36*
X245500Y1111500D2*
X386500D1*
Y1110500D1*
X245500D1*
Y1111500D1*
G37*
G36*
X845500D2*
X986500D1*
Y1110500D1*
X845500D1*
Y1111500D1*
G37*
G36*
X245500Y1110500D2*
X386500D1*
Y1109500D1*
X245500D1*
Y1110500D1*
G37*
G36*
X845500D2*
X986500D1*
Y1109500D1*
X845500D1*
Y1110500D1*
G37*
G36*
X245500Y1109500D2*
X386500D1*
Y1108500D1*
X245500D1*
Y1109500D1*
G37*
G36*
X845500D2*
X986500D1*
Y1108500D1*
X845500D1*
Y1109500D1*
G37*
G36*
X245500Y1108500D2*
X386500D1*
Y1107500D1*
X245500D1*
Y1108500D1*
G37*
G36*
X845500D2*
X986500D1*
Y1107500D1*
X845500D1*
Y1108500D1*
G37*
G36*
X245500Y1107500D2*
X309500D1*
Y1106500D1*
X245500D1*
Y1107500D1*
G37*
G36*
X322500D2*
X386500D1*
Y1106500D1*
X322500D1*
Y1107500D1*
G37*
G36*
X845500D2*
X909500D1*
Y1106500D1*
X845500D1*
Y1107500D1*
G37*
G36*
X922500D2*
X986500D1*
Y1106500D1*
X922500D1*
Y1107500D1*
G37*
G36*
X245500Y1106500D2*
X306500D1*
Y1105500D1*
X245500D1*
Y1106500D1*
G37*
G36*
X325500D2*
X386500D1*
Y1105500D1*
X325500D1*
Y1106500D1*
G37*
G36*
X845500D2*
X906500D1*
Y1105500D1*
X845500D1*
Y1106500D1*
G37*
G36*
X925500D2*
X986500D1*
Y1105500D1*
X925500D1*
Y1106500D1*
G37*
G36*
X245500Y1105500D2*
X305500D1*
Y1104500D1*
X245500D1*
Y1105500D1*
G37*
G36*
X327500D2*
X386500D1*
Y1104500D1*
X327500D1*
Y1105500D1*
G37*
G36*
X845500D2*
X904500D1*
Y1104500D1*
X845500D1*
Y1105500D1*
G37*
G36*
X927500D2*
X986500D1*
Y1104500D1*
X927500D1*
Y1105500D1*
G37*
G36*
X245500Y1104500D2*
X303500D1*
Y1103500D1*
X245500D1*
Y1104500D1*
G37*
G36*
X329500D2*
X386500D1*
Y1103500D1*
X329500D1*
Y1104500D1*
G37*
G36*
X845500D2*
X903500D1*
Y1103500D1*
X845500D1*
Y1104500D1*
G37*
G36*
X929500D2*
X986500D1*
Y1103500D1*
X929500D1*
Y1104500D1*
G37*
G36*
X245500Y1103500D2*
X302500D1*
Y1102500D1*
X245500D1*
Y1103500D1*
G37*
G36*
X330500D2*
X386500D1*
Y1102500D1*
X330500D1*
Y1103500D1*
G37*
G36*
X845500D2*
X901500D1*
Y1102500D1*
X845500D1*
Y1103500D1*
G37*
G36*
X930500D2*
X986500D1*
Y1102500D1*
X930500D1*
Y1103500D1*
G37*
G36*
X245500Y1102500D2*
X300500D1*
Y1101500D1*
X245500D1*
Y1102500D1*
G37*
G36*
X331500D2*
X386500D1*
Y1101500D1*
X331500D1*
Y1102500D1*
G37*
G36*
X845500D2*
X900500D1*
Y1101500D1*
X845500D1*
Y1102500D1*
G37*
G36*
X931500D2*
X986500D1*
Y1101500D1*
X931500D1*
Y1102500D1*
G37*
G36*
X245500Y1101500D2*
X299500D1*
Y1100500D1*
X245500D1*
Y1101500D1*
G37*
G36*
X332500D2*
X386500D1*
Y1100500D1*
X332500D1*
Y1101500D1*
G37*
G36*
X845500D2*
X899500D1*
Y1100500D1*
X845500D1*
Y1101500D1*
G37*
G36*
X932500D2*
X986500D1*
Y1100500D1*
X932500D1*
Y1101500D1*
G37*
G36*
X245500Y1100500D2*
X298500D1*
Y1099500D1*
X245500D1*
Y1100500D1*
G37*
G36*
X333500D2*
X386500D1*
Y1099500D1*
X333500D1*
Y1100500D1*
G37*
G36*
X845500D2*
X898500D1*
Y1099500D1*
X845500D1*
Y1100500D1*
G37*
G36*
X933500D2*
X986500D1*
Y1099500D1*
X933500D1*
Y1100500D1*
G37*
G36*
X245500Y1099500D2*
X298500D1*
Y1098500D1*
X245500D1*
Y1099500D1*
G37*
G36*
X334500D2*
X386500D1*
Y1098500D1*
X334500D1*
Y1099500D1*
G37*
G36*
X845500D2*
X897500D1*
Y1098500D1*
X845500D1*
Y1099500D1*
G37*
G36*
X934500D2*
X986500D1*
Y1098500D1*
X934500D1*
Y1099500D1*
G37*
G36*
X245500Y1098500D2*
X297500D1*
Y1097500D1*
X245500D1*
Y1098500D1*
G37*
G36*
X335500D2*
X386500D1*
Y1097500D1*
X335500D1*
Y1098500D1*
G37*
G36*
X845500D2*
X897500D1*
Y1097500D1*
X845500D1*
Y1098500D1*
G37*
G36*
X935500D2*
X986500D1*
Y1097500D1*
X935500D1*
Y1098500D1*
G37*
G36*
X245500Y1097500D2*
X296500D1*
Y1096500D1*
X245500D1*
Y1097500D1*
G37*
G36*
X336500D2*
X386500D1*
Y1096500D1*
X336500D1*
Y1097500D1*
G37*
G36*
X845500D2*
X896500D1*
Y1096500D1*
X845500D1*
Y1097500D1*
G37*
G36*
X936500D2*
X986500D1*
Y1096500D1*
X936500D1*
Y1097500D1*
G37*
G36*
X245500Y1096500D2*
X295500D1*
Y1095500D1*
X245500D1*
Y1096500D1*
G37*
G36*
X336500D2*
X386500D1*
Y1095500D1*
X336500D1*
Y1096500D1*
G37*
G36*
X845500D2*
X895500D1*
Y1095500D1*
X845500D1*
Y1096500D1*
G37*
G36*
X936500D2*
X986500D1*
Y1095500D1*
X936500D1*
Y1096500D1*
G37*
G36*
X245500Y1095500D2*
X295500D1*
Y1094500D1*
X245500D1*
Y1095500D1*
G37*
G36*
X337500D2*
X386500D1*
Y1094500D1*
X337500D1*
Y1095500D1*
G37*
G36*
X845500D2*
X895500D1*
Y1094500D1*
X845500D1*
Y1095500D1*
G37*
G36*
X937500D2*
X986500D1*
Y1094500D1*
X937500D1*
Y1095500D1*
G37*
G36*
X245500Y1094500D2*
X294500D1*
Y1093500D1*
X245500D1*
Y1094500D1*
G37*
G36*
X337500D2*
X386500D1*
Y1093500D1*
X337500D1*
Y1094500D1*
G37*
G36*
X845500D2*
X894500D1*
Y1093500D1*
X845500D1*
Y1094500D1*
G37*
G36*
X937500D2*
X986500D1*
Y1093500D1*
X937500D1*
Y1094500D1*
G37*
G36*
X245500Y1093500D2*
X294500D1*
Y1092500D1*
X245500D1*
Y1093500D1*
G37*
G36*
X338500D2*
X386500D1*
Y1092500D1*
X338500D1*
Y1093500D1*
G37*
G36*
X845500D2*
X894500D1*
Y1092500D1*
X845500D1*
Y1093500D1*
G37*
G36*
X938500D2*
X986500D1*
Y1092500D1*
X938500D1*
Y1093500D1*
G37*
G36*
X245500Y1092500D2*
X294500D1*
Y1091500D1*
X245500D1*
Y1092500D1*
G37*
G36*
X338500D2*
X386500D1*
Y1091500D1*
X338500D1*
Y1092500D1*
G37*
G36*
X845500D2*
X893500D1*
Y1091500D1*
X845500D1*
Y1092500D1*
G37*
G36*
X938500D2*
X986500D1*
Y1091500D1*
X938500D1*
Y1092500D1*
G37*
G36*
X245500Y1091500D2*
X293500D1*
Y1090500D1*
X245500D1*
Y1091500D1*
G37*
G36*
X338500D2*
X386500D1*
Y1090500D1*
X338500D1*
Y1091500D1*
G37*
G36*
X845500D2*
X893500D1*
Y1090500D1*
X845500D1*
Y1091500D1*
G37*
G36*
X938500D2*
X986500D1*
Y1090500D1*
X938500D1*
Y1091500D1*
G37*
G36*
X245500Y1090500D2*
X293500D1*
Y1089500D1*
X245500D1*
Y1090500D1*
G37*
G36*
X339500D2*
X386500D1*
Y1089500D1*
X339500D1*
Y1090500D1*
G37*
G36*
X845500D2*
X893500D1*
Y1089500D1*
X845500D1*
Y1090500D1*
G37*
G36*
X939500D2*
X986500D1*
Y1089500D1*
X939500D1*
Y1090500D1*
G37*
G36*
X245500Y1089500D2*
X293500D1*
Y1088500D1*
X245500D1*
Y1089500D1*
G37*
G36*
X339500D2*
X386500D1*
Y1088500D1*
X339500D1*
Y1089500D1*
G37*
G36*
X845500D2*
X893500D1*
Y1088500D1*
X845500D1*
Y1089500D1*
G37*
G36*
X939500D2*
X986500D1*
Y1088500D1*
X939500D1*
Y1089500D1*
G37*
G36*
X245500Y1088500D2*
X293500D1*
Y1087500D1*
X245500D1*
Y1088500D1*
G37*
G36*
X339500D2*
X386500D1*
Y1087500D1*
X339500D1*
Y1088500D1*
G37*
G36*
X845500D2*
X892500D1*
Y1087500D1*
X845500D1*
Y1088500D1*
G37*
G36*
X939500D2*
X986500D1*
Y1087500D1*
X939500D1*
Y1088500D1*
G37*
G36*
X245500Y1087500D2*
X292500D1*
Y1086500D1*
X245500D1*
Y1087500D1*
G37*
G36*
X339500D2*
X386500D1*
Y1086500D1*
X339500D1*
Y1087500D1*
G37*
G36*
X845500D2*
X892500D1*
Y1086500D1*
X845500D1*
Y1087500D1*
G37*
G36*
X939500D2*
X986500D1*
Y1086500D1*
X939500D1*
Y1087500D1*
G37*
G36*
X245500Y1086500D2*
X292500D1*
Y1085500D1*
X245500D1*
Y1086500D1*
G37*
G36*
X339500D2*
X386500D1*
Y1085500D1*
X339500D1*
Y1086500D1*
G37*
G36*
X845500D2*
X892500D1*
Y1085500D1*
X845500D1*
Y1086500D1*
G37*
G36*
X939500D2*
X986500D1*
Y1085500D1*
X939500D1*
Y1086500D1*
G37*
G36*
X245500Y1085500D2*
X292500D1*
Y1084500D1*
X245500D1*
Y1085500D1*
G37*
G36*
X339500D2*
X386500D1*
Y1084500D1*
X339500D1*
Y1085500D1*
G37*
G36*
X845500D2*
X892500D1*
Y1084500D1*
X845500D1*
Y1085500D1*
G37*
G36*
X939500D2*
X986500D1*
Y1084500D1*
X939500D1*
Y1085500D1*
G37*
G36*
X245500Y1084500D2*
X292500D1*
Y1083500D1*
X245500D1*
Y1084500D1*
G37*
G36*
X339500D2*
X386500D1*
Y1083500D1*
X339500D1*
Y1084500D1*
G37*
G36*
X845500D2*
X892500D1*
Y1083500D1*
X845500D1*
Y1084500D1*
G37*
G36*
X939500D2*
X986500D1*
Y1083500D1*
X939500D1*
Y1084500D1*
G37*
G36*
X245500Y1083500D2*
X292500D1*
Y1082500D1*
X245500D1*
Y1083500D1*
G37*
G36*
X339500D2*
X386500D1*
Y1082500D1*
X339500D1*
Y1083500D1*
G37*
G36*
X845500D2*
X892500D1*
Y1082500D1*
X845500D1*
Y1083500D1*
G37*
G36*
X939500D2*
X986500D1*
Y1082500D1*
X939500D1*
Y1083500D1*
G37*
G36*
X245500Y1082500D2*
X292500D1*
Y1081500D1*
X245500D1*
Y1082500D1*
G37*
G36*
X339500D2*
X386500D1*
Y1081500D1*
X339500D1*
Y1082500D1*
G37*
G36*
X845500D2*
X892500D1*
Y1081500D1*
X845500D1*
Y1082500D1*
G37*
G36*
X939500D2*
X986500D1*
Y1081500D1*
X939500D1*
Y1082500D1*
G37*
G36*
X245500Y1081500D2*
X293500D1*
Y1080500D1*
X245500D1*
Y1081500D1*
G37*
G36*
X339500D2*
X386500D1*
Y1080500D1*
X339500D1*
Y1081500D1*
G37*
G36*
X845500D2*
X892500D1*
Y1080500D1*
X845500D1*
Y1081500D1*
G37*
G36*
X939500D2*
X986500D1*
Y1080500D1*
X939500D1*
Y1081500D1*
G37*
G36*
X245500Y1080500D2*
X293500D1*
Y1079500D1*
X245500D1*
Y1080500D1*
G37*
G36*
X339500D2*
X386500D1*
Y1079500D1*
X339500D1*
Y1080500D1*
G37*
G36*
X845500D2*
X893500D1*
Y1079500D1*
X845500D1*
Y1080500D1*
G37*
G36*
X939500D2*
X986500D1*
Y1079500D1*
X939500D1*
Y1080500D1*
G37*
G36*
X245500Y1079500D2*
X293500D1*
Y1078500D1*
X245500D1*
Y1079500D1*
G37*
G36*
X339500D2*
X386500D1*
Y1078500D1*
X339500D1*
Y1079500D1*
G37*
G36*
X845500D2*
X893500D1*
Y1078500D1*
X845500D1*
Y1079500D1*
G37*
G36*
X939500D2*
X986500D1*
Y1078500D1*
X939500D1*
Y1079500D1*
G37*
G36*
X245500Y1078500D2*
X293500D1*
Y1077500D1*
X245500D1*
Y1078500D1*
G37*
G36*
X338500D2*
X386500D1*
Y1077500D1*
X338500D1*
Y1078500D1*
G37*
G36*
X845500D2*
X893500D1*
Y1077500D1*
X845500D1*
Y1078500D1*
G37*
G36*
X938500D2*
X986500D1*
Y1077500D1*
X938500D1*
Y1078500D1*
G37*
G36*
X245500Y1077500D2*
X293500D1*
Y1076500D1*
X245500D1*
Y1077500D1*
G37*
G36*
X338500D2*
X386500D1*
Y1076500D1*
X338500D1*
Y1077500D1*
G37*
G36*
X845500D2*
X893500D1*
Y1076500D1*
X845500D1*
Y1077500D1*
G37*
G36*
X938500D2*
X986500D1*
Y1076500D1*
X938500D1*
Y1077500D1*
G37*
G36*
X245500Y1076500D2*
X294500D1*
Y1075500D1*
X245500D1*
Y1076500D1*
G37*
G36*
X338500D2*
X386500D1*
Y1075500D1*
X338500D1*
Y1076500D1*
G37*
G36*
X845500D2*
X894500D1*
Y1075500D1*
X845500D1*
Y1076500D1*
G37*
G36*
X938500D2*
X986500D1*
Y1075500D1*
X938500D1*
Y1076500D1*
G37*
G36*
X245500Y1075500D2*
X294500D1*
Y1074500D1*
X245500D1*
Y1075500D1*
G37*
G36*
X337500D2*
X386500D1*
Y1074500D1*
X337500D1*
Y1075500D1*
G37*
G36*
X845500D2*
X894500D1*
Y1074500D1*
X845500D1*
Y1075500D1*
G37*
G36*
X937500D2*
X986500D1*
Y1074500D1*
X937500D1*
Y1075500D1*
G37*
G36*
X245500Y1074500D2*
X295500D1*
Y1073500D1*
X245500D1*
Y1074500D1*
G37*
G36*
X337500D2*
X386500D1*
Y1073500D1*
X337500D1*
Y1074500D1*
G37*
G36*
X845500D2*
X895500D1*
Y1073500D1*
X845500D1*
Y1074500D1*
G37*
G36*
X937500D2*
X986500D1*
Y1073500D1*
X937500D1*
Y1074500D1*
G37*
G36*
X245500Y1073500D2*
X295500D1*
Y1072500D1*
X245500D1*
Y1073500D1*
G37*
G36*
X336500D2*
X386500D1*
Y1072500D1*
X336500D1*
Y1073500D1*
G37*
G36*
X845500D2*
X895500D1*
Y1072500D1*
X845500D1*
Y1073500D1*
G37*
G36*
X936500D2*
X986500D1*
Y1072500D1*
X936500D1*
Y1073500D1*
G37*
G36*
X245500Y1072500D2*
X296500D1*
Y1071500D1*
X245500D1*
Y1072500D1*
G37*
G36*
X336500D2*
X386500D1*
Y1071500D1*
X336500D1*
Y1072500D1*
G37*
G36*
X845500D2*
X896500D1*
Y1071500D1*
X845500D1*
Y1072500D1*
G37*
G36*
X936500D2*
X986500D1*
Y1071500D1*
X936500D1*
Y1072500D1*
G37*
G36*
X245500Y1071500D2*
X297500D1*
Y1070500D1*
X245500D1*
Y1071500D1*
G37*
G36*
X335500D2*
X386500D1*
Y1070500D1*
X335500D1*
Y1071500D1*
G37*
G36*
X845500D2*
X896500D1*
Y1070500D1*
X845500D1*
Y1071500D1*
G37*
G36*
X935500D2*
X986500D1*
Y1070500D1*
X935500D1*
Y1071500D1*
G37*
G36*
X245500Y1070500D2*
X297500D1*
Y1069500D1*
X245500D1*
Y1070500D1*
G37*
G36*
X334500D2*
X386500D1*
Y1069500D1*
X334500D1*
Y1070500D1*
G37*
G36*
X845500D2*
X897500D1*
Y1069500D1*
X845500D1*
Y1070500D1*
G37*
G36*
X934500D2*
X986500D1*
Y1069500D1*
X934500D1*
Y1070500D1*
G37*
G36*
X245500Y1069500D2*
X298500D1*
Y1068500D1*
X245500D1*
Y1069500D1*
G37*
G36*
X333500D2*
X386500D1*
Y1068500D1*
X333500D1*
Y1069500D1*
G37*
G36*
X845500D2*
X898500D1*
Y1068500D1*
X845500D1*
Y1069500D1*
G37*
G36*
X933500D2*
X986500D1*
Y1068500D1*
X933500D1*
Y1069500D1*
G37*
G36*
X245500Y1068500D2*
X299500D1*
Y1067500D1*
X245500D1*
Y1068500D1*
G37*
G36*
X333500D2*
X386500D1*
Y1067500D1*
X333500D1*
Y1068500D1*
G37*
G36*
X845500D2*
X899500D1*
Y1067500D1*
X845500D1*
Y1068500D1*
G37*
G36*
X932500D2*
X986500D1*
Y1067500D1*
X932500D1*
Y1068500D1*
G37*
G36*
X245500Y1067500D2*
X300500D1*
Y1066500D1*
X245500D1*
Y1067500D1*
G37*
G36*
X331500D2*
X386500D1*
Y1066500D1*
X331500D1*
Y1067500D1*
G37*
G36*
X845500D2*
X900500D1*
Y1066500D1*
X845500D1*
Y1067500D1*
G37*
G36*
X931500D2*
X986500D1*
Y1066500D1*
X931500D1*
Y1067500D1*
G37*
G36*
X245500Y1066500D2*
X301500D1*
Y1065500D1*
X245500D1*
Y1066500D1*
G37*
G36*
X330500D2*
X386500D1*
Y1065500D1*
X330500D1*
Y1066500D1*
G37*
G36*
X845500D2*
X901500D1*
Y1065500D1*
X845500D1*
Y1066500D1*
G37*
G36*
X930500D2*
X986500D1*
Y1065500D1*
X930500D1*
Y1066500D1*
G37*
G36*
X245500Y1065500D2*
X303500D1*
Y1064500D1*
X245500D1*
Y1065500D1*
G37*
G36*
X329500D2*
X386500D1*
Y1064500D1*
X329500D1*
Y1065500D1*
G37*
G36*
X845500D2*
X902500D1*
Y1064500D1*
X845500D1*
Y1065500D1*
G37*
G36*
X929500D2*
X986500D1*
Y1064500D1*
X929500D1*
Y1065500D1*
G37*
G36*
X245500Y1064500D2*
X304500D1*
Y1063500D1*
X245500D1*
Y1064500D1*
G37*
G36*
X327500D2*
X386500D1*
Y1063500D1*
X327500D1*
Y1064500D1*
G37*
G36*
X845500D2*
X904500D1*
Y1063500D1*
X845500D1*
Y1064500D1*
G37*
G36*
X927500D2*
X986500D1*
Y1063500D1*
X927500D1*
Y1064500D1*
G37*
G36*
X245500Y1063500D2*
X306500D1*
Y1062500D1*
X245500D1*
Y1063500D1*
G37*
G36*
X326500D2*
X386500D1*
Y1062500D1*
X326500D1*
Y1063500D1*
G37*
G36*
X845500D2*
X906500D1*
Y1062500D1*
X845500D1*
Y1063500D1*
G37*
G36*
X925500D2*
X986500D1*
Y1062500D1*
X925500D1*
Y1063500D1*
G37*
G36*
X245500Y1062500D2*
X308500D1*
Y1061500D1*
X245500D1*
Y1062500D1*
G37*
G36*
X323500D2*
X386500D1*
Y1061500D1*
X323500D1*
Y1062500D1*
G37*
G36*
X845500D2*
X908500D1*
Y1061500D1*
X845500D1*
Y1062500D1*
G37*
G36*
X923500D2*
X986500D1*
Y1061500D1*
X923500D1*
Y1062500D1*
G37*
G36*
X245500Y1061500D2*
X386500D1*
Y1060500D1*
X245500D1*
Y1061500D1*
G37*
G36*
X845500D2*
X986500D1*
Y1060500D1*
X845500D1*
Y1061500D1*
G37*
G36*
X245500Y1060500D2*
X386500D1*
Y1059500D1*
X245500D1*
Y1060500D1*
G37*
G36*
X845500D2*
X986500D1*
Y1059500D1*
X845500D1*
Y1060500D1*
G37*
G36*
X245500Y1059500D2*
X386500D1*
Y1058500D1*
X245500D1*
Y1059500D1*
G37*
G36*
X845500D2*
X986500D1*
Y1058500D1*
X845500D1*
Y1059500D1*
G37*
G36*
X245500Y1058500D2*
X386500D1*
Y1057500D1*
X245500D1*
Y1058500D1*
G37*
G36*
X845500D2*
X986500D1*
Y1057500D1*
X845500D1*
Y1058500D1*
G37*
G36*
X245500Y1057500D2*
X386500D1*
Y1056500D1*
X245500D1*
Y1057500D1*
G37*
G36*
X845500D2*
X986500D1*
Y1056500D1*
X845500D1*
Y1057500D1*
G37*
G36*
X245500Y1056500D2*
X386500D1*
Y1055500D1*
X245500D1*
Y1056500D1*
G37*
G36*
X845500D2*
X986500D1*
Y1055500D1*
X845500D1*
Y1056500D1*
G37*
G36*
X245500Y1055500D2*
X386500D1*
Y1054500D1*
X245500D1*
Y1055500D1*
G37*
G36*
X845500D2*
X986500D1*
Y1054500D1*
X845500D1*
Y1055500D1*
G37*
G36*
X245500Y1054500D2*
X386500D1*
Y1053500D1*
X245500D1*
Y1054500D1*
G37*
G36*
X845500D2*
X986500D1*
Y1053500D1*
X845500D1*
Y1054500D1*
G37*
G36*
X245500Y1053500D2*
X386500D1*
Y1052500D1*
X245500D1*
Y1053500D1*
G37*
G36*
X845500D2*
X986500D1*
Y1052500D1*
X845500D1*
Y1053500D1*
G37*
G36*
X245500Y1052500D2*
X386500D1*
Y1051500D1*
X245500D1*
Y1052500D1*
G37*
G36*
X845500D2*
X986500D1*
Y1051500D1*
X845500D1*
Y1052500D1*
G37*
G36*
X246500Y1051500D2*
X386500D1*
Y1050500D1*
X246500D1*
Y1051500D1*
G37*
G36*
X845500D2*
X986500D1*
Y1050500D1*
X845500D1*
Y1051500D1*
G37*
G36*
X311500Y1018500D2*
X320500D1*
Y1017500D1*
X311500D1*
Y1018500D1*
G37*
G36*
X911500D2*
X920500D1*
Y1017500D1*
X911500D1*
Y1018500D1*
G37*
G36*
X245500Y1017500D2*
X386500D1*
Y1016500D1*
X245500D1*
Y1017500D1*
G37*
G36*
X845500D2*
X986500D1*
Y1016500D1*
X845500D1*
Y1017500D1*
G37*
G36*
X245500Y1016500D2*
X386500D1*
Y1015500D1*
X245500D1*
Y1016500D1*
G37*
G36*
X845500D2*
X986500D1*
Y1015500D1*
X845500D1*
Y1016500D1*
G37*
G36*
X245500Y1015500D2*
X386500D1*
Y1014500D1*
X245500D1*
Y1015500D1*
G37*
G36*
X845500D2*
X986500D1*
Y1014500D1*
X845500D1*
Y1015500D1*
G37*
G36*
X245500Y1014500D2*
X386500D1*
Y1013500D1*
X245500D1*
Y1014500D1*
G37*
G36*
X845500D2*
X986500D1*
Y1013500D1*
X845500D1*
Y1014500D1*
G37*
G36*
X245500Y1013500D2*
X386500D1*
Y1012500D1*
X245500D1*
Y1013500D1*
G37*
G36*
X845500D2*
X986500D1*
Y1012500D1*
X845500D1*
Y1013500D1*
G37*
G36*
X245500Y1012500D2*
X386500D1*
Y1011500D1*
X245500D1*
Y1012500D1*
G37*
G36*
X845500D2*
X986500D1*
Y1011500D1*
X845500D1*
Y1012500D1*
G37*
G36*
X245500Y1011500D2*
X386500D1*
Y1010500D1*
X245500D1*
Y1011500D1*
G37*
G36*
X845500D2*
X986500D1*
Y1010500D1*
X845500D1*
Y1011500D1*
G37*
G36*
X245500Y1010500D2*
X386500D1*
Y1009500D1*
X245500D1*
Y1010500D1*
G37*
G36*
X845500D2*
X986500D1*
Y1009500D1*
X845500D1*
Y1010500D1*
G37*
G36*
X245500Y1009500D2*
X386500D1*
Y1008500D1*
X245500D1*
Y1009500D1*
G37*
G36*
X845500D2*
X986500D1*
Y1008500D1*
X845500D1*
Y1009500D1*
G37*
G36*
X245500Y1008500D2*
X386500D1*
Y1007500D1*
X245500D1*
Y1008500D1*
G37*
G36*
X845500D2*
X986500D1*
Y1007500D1*
X845500D1*
Y1008500D1*
G37*
G36*
X245500Y1007500D2*
X309500D1*
Y1006500D1*
X245500D1*
Y1007500D1*
G37*
G36*
X323500D2*
X386500D1*
Y1006500D1*
X323500D1*
Y1007500D1*
G37*
G36*
X845500D2*
X909500D1*
Y1006500D1*
X845500D1*
Y1007500D1*
G37*
G36*
X922500D2*
X986500D1*
Y1006500D1*
X922500D1*
Y1007500D1*
G37*
G36*
X245500Y1006500D2*
X306500D1*
Y1005500D1*
X245500D1*
Y1006500D1*
G37*
G36*
X325500D2*
X386500D1*
Y1005500D1*
X325500D1*
Y1006500D1*
G37*
G36*
X845500D2*
X906500D1*
Y1005500D1*
X845500D1*
Y1006500D1*
G37*
G36*
X925500D2*
X986500D1*
Y1005500D1*
X925500D1*
Y1006500D1*
G37*
G36*
X245500Y1005500D2*
X305500D1*
Y1004500D1*
X245500D1*
Y1005500D1*
G37*
G36*
X327500D2*
X386500D1*
Y1004500D1*
X327500D1*
Y1005500D1*
G37*
G36*
X845500D2*
X904500D1*
Y1004500D1*
X845500D1*
Y1005500D1*
G37*
G36*
X927500D2*
X986500D1*
Y1004500D1*
X927500D1*
Y1005500D1*
G37*
G36*
X245500Y1004500D2*
X303500D1*
Y1003500D1*
X245500D1*
Y1004500D1*
G37*
G36*
X329500D2*
X386500D1*
Y1003500D1*
X329500D1*
Y1004500D1*
G37*
G36*
X845500D2*
X903500D1*
Y1003500D1*
X845500D1*
Y1004500D1*
G37*
G36*
X929500D2*
X986500D1*
Y1003500D1*
X929500D1*
Y1004500D1*
G37*
G36*
X245500Y1003500D2*
X302500D1*
Y1002500D1*
X245500D1*
Y1003500D1*
G37*
G36*
X330500D2*
X386500D1*
Y1002500D1*
X330500D1*
Y1003500D1*
G37*
G36*
X845500D2*
X901500D1*
Y1002500D1*
X845500D1*
Y1003500D1*
G37*
G36*
X930500D2*
X986500D1*
Y1002500D1*
X930500D1*
Y1003500D1*
G37*
G36*
X245500Y1002500D2*
X300500D1*
Y1001500D1*
X245500D1*
Y1002500D1*
G37*
G36*
X331500D2*
X386500D1*
Y1001500D1*
X331500D1*
Y1002500D1*
G37*
G36*
X845500D2*
X900500D1*
Y1001500D1*
X845500D1*
Y1002500D1*
G37*
G36*
X931500D2*
X986500D1*
Y1001500D1*
X931500D1*
Y1002500D1*
G37*
G36*
X245500Y1001500D2*
X299500D1*
Y1000500D1*
X245500D1*
Y1001500D1*
G37*
G36*
X332500D2*
X386500D1*
Y1000500D1*
X332500D1*
Y1001500D1*
G37*
G36*
X845500D2*
X899500D1*
Y1000500D1*
X845500D1*
Y1001500D1*
G37*
G36*
X932500D2*
X986500D1*
Y1000500D1*
X932500D1*
Y1001500D1*
G37*
G36*
X245500Y1000500D2*
X298500D1*
Y999500D1*
X245500D1*
Y1000500D1*
G37*
G36*
X333500D2*
X386500D1*
Y999500D1*
X333500D1*
Y1000500D1*
G37*
G36*
X845500D2*
X898500D1*
Y999500D1*
X845500D1*
Y1000500D1*
G37*
G36*
X933500D2*
X986500D1*
Y999500D1*
X933500D1*
Y1000500D1*
G37*
G36*
X245500Y999500D2*
X297500D1*
Y998500D1*
X245500D1*
Y999500D1*
G37*
G36*
X334500D2*
X386500D1*
Y998500D1*
X334500D1*
Y999500D1*
G37*
G36*
X845500D2*
X897500D1*
Y998500D1*
X845500D1*
Y999500D1*
G37*
G36*
X934500D2*
X986500D1*
Y998500D1*
X934500D1*
Y999500D1*
G37*
G36*
X245500Y998500D2*
X297500D1*
Y997500D1*
X245500D1*
Y998500D1*
G37*
G36*
X335500D2*
X386500D1*
Y997500D1*
X335500D1*
Y998500D1*
G37*
G36*
X845500D2*
X897500D1*
Y997500D1*
X845500D1*
Y998500D1*
G37*
G36*
X935500D2*
X986500D1*
Y997500D1*
X935500D1*
Y998500D1*
G37*
G36*
X245500Y997500D2*
X296500D1*
Y996500D1*
X245500D1*
Y997500D1*
G37*
G36*
X336500D2*
X386500D1*
Y996500D1*
X336500D1*
Y997500D1*
G37*
G36*
X845500D2*
X896500D1*
Y996500D1*
X845500D1*
Y997500D1*
G37*
G36*
X936500D2*
X986500D1*
Y996500D1*
X936500D1*
Y997500D1*
G37*
G36*
X245500Y996500D2*
X295500D1*
Y995500D1*
X245500D1*
Y996500D1*
G37*
G36*
X336500D2*
X386500D1*
Y995500D1*
X336500D1*
Y996500D1*
G37*
G36*
X845500D2*
X895500D1*
Y995500D1*
X845500D1*
Y996500D1*
G37*
G36*
X936500D2*
X986500D1*
Y995500D1*
X936500D1*
Y996500D1*
G37*
G36*
X245500Y995500D2*
X295500D1*
Y994500D1*
X245500D1*
Y995500D1*
G37*
G36*
X337500D2*
X386500D1*
Y994500D1*
X337500D1*
Y995500D1*
G37*
G36*
X845500D2*
X895500D1*
Y994500D1*
X845500D1*
Y995500D1*
G37*
G36*
X937500D2*
X986500D1*
Y994500D1*
X937500D1*
Y995500D1*
G37*
G36*
X245500Y994500D2*
X294500D1*
Y993500D1*
X245500D1*
Y994500D1*
G37*
G36*
X337500D2*
X386500D1*
Y993500D1*
X337500D1*
Y994500D1*
G37*
G36*
X845500D2*
X894500D1*
Y993500D1*
X845500D1*
Y994500D1*
G37*
G36*
X937500D2*
X986500D1*
Y993500D1*
X937500D1*
Y994500D1*
G37*
G36*
X245500Y993500D2*
X294500D1*
Y992500D1*
X245500D1*
Y993500D1*
G37*
G36*
X338500D2*
X386500D1*
Y992500D1*
X338500D1*
Y993500D1*
G37*
G36*
X845500D2*
X894500D1*
Y992500D1*
X845500D1*
Y993500D1*
G37*
G36*
X938500D2*
X986500D1*
Y992500D1*
X938500D1*
Y993500D1*
G37*
G36*
X245500Y992500D2*
X294500D1*
Y991500D1*
X245500D1*
Y992500D1*
G37*
G36*
X338500D2*
X386500D1*
Y991500D1*
X338500D1*
Y992500D1*
G37*
G36*
X845500D2*
X893500D1*
Y991500D1*
X845500D1*
Y992500D1*
G37*
G36*
X938500D2*
X986500D1*
Y991500D1*
X938500D1*
Y992500D1*
G37*
G36*
X245500Y991500D2*
X293500D1*
Y990500D1*
X245500D1*
Y991500D1*
G37*
G36*
X338500D2*
X386500D1*
Y990500D1*
X338500D1*
Y991500D1*
G37*
G36*
X845500D2*
X893500D1*
Y990500D1*
X845500D1*
Y991500D1*
G37*
G36*
X938500D2*
X986500D1*
Y990500D1*
X938500D1*
Y991500D1*
G37*
G36*
X245500Y990500D2*
X293500D1*
Y989500D1*
X245500D1*
Y990500D1*
G37*
G36*
X339500D2*
X386500D1*
Y989500D1*
X339500D1*
Y990500D1*
G37*
G36*
X845500D2*
X893500D1*
Y989500D1*
X845500D1*
Y990500D1*
G37*
G36*
X939500D2*
X986500D1*
Y989500D1*
X939500D1*
Y990500D1*
G37*
G36*
X245500Y989500D2*
X293500D1*
Y988500D1*
X245500D1*
Y989500D1*
G37*
G36*
X339500D2*
X386500D1*
Y988500D1*
X339500D1*
Y989500D1*
G37*
G36*
X845500D2*
X893500D1*
Y988500D1*
X845500D1*
Y989500D1*
G37*
G36*
X939500D2*
X986500D1*
Y988500D1*
X939500D1*
Y989500D1*
G37*
G36*
X245500Y988500D2*
X293500D1*
Y987500D1*
X245500D1*
Y988500D1*
G37*
G36*
X339500D2*
X386500D1*
Y987500D1*
X339500D1*
Y988500D1*
G37*
G36*
X845500D2*
X892500D1*
Y987500D1*
X845500D1*
Y988500D1*
G37*
G36*
X939500D2*
X986500D1*
Y987500D1*
X939500D1*
Y988500D1*
G37*
G36*
X245500Y987500D2*
X292500D1*
Y986500D1*
X245500D1*
Y987500D1*
G37*
G36*
X339500D2*
X386500D1*
Y986500D1*
X339500D1*
Y987500D1*
G37*
G36*
X845500D2*
X892500D1*
Y986500D1*
X845500D1*
Y987500D1*
G37*
G36*
X939500D2*
X986500D1*
Y986500D1*
X939500D1*
Y987500D1*
G37*
G36*
X245500Y986500D2*
X292500D1*
Y985500D1*
X245500D1*
Y986500D1*
G37*
G36*
X339500D2*
X386500D1*
Y985500D1*
X339500D1*
Y986500D1*
G37*
G36*
X845500D2*
X892500D1*
Y985500D1*
X845500D1*
Y986500D1*
G37*
G36*
X939500D2*
X986500D1*
Y985500D1*
X939500D1*
Y986500D1*
G37*
G36*
X245500Y985500D2*
X292500D1*
Y984500D1*
X245500D1*
Y985500D1*
G37*
G36*
X339500D2*
X386500D1*
Y984500D1*
X339500D1*
Y985500D1*
G37*
G36*
X845500D2*
X892500D1*
Y984500D1*
X845500D1*
Y985500D1*
G37*
G36*
X939500D2*
X986500D1*
Y984500D1*
X939500D1*
Y985500D1*
G37*
G36*
X245500Y984500D2*
X292500D1*
Y983500D1*
X245500D1*
Y984500D1*
G37*
G36*
X339500D2*
X386500D1*
Y983500D1*
X339500D1*
Y984500D1*
G37*
G36*
X845500D2*
X892500D1*
Y983500D1*
X845500D1*
Y984500D1*
G37*
G36*
X939500D2*
X986500D1*
Y983500D1*
X939500D1*
Y984500D1*
G37*
G36*
X245500Y983500D2*
X292500D1*
Y982500D1*
X245500D1*
Y983500D1*
G37*
G36*
X339500D2*
X386500D1*
Y982500D1*
X339500D1*
Y983500D1*
G37*
G36*
X845500D2*
X892500D1*
Y982500D1*
X845500D1*
Y983500D1*
G37*
G36*
X939500D2*
X986500D1*
Y982500D1*
X939500D1*
Y983500D1*
G37*
G36*
X245500Y982500D2*
X292500D1*
Y981500D1*
X245500D1*
Y982500D1*
G37*
G36*
X339500D2*
X386500D1*
Y981500D1*
X339500D1*
Y982500D1*
G37*
G36*
X845500D2*
X892500D1*
Y981500D1*
X845500D1*
Y982500D1*
G37*
G36*
X939500D2*
X986500D1*
Y981500D1*
X939500D1*
Y982500D1*
G37*
G36*
X245500Y981500D2*
X293500D1*
Y980500D1*
X245500D1*
Y981500D1*
G37*
G36*
X339500D2*
X386500D1*
Y980500D1*
X339500D1*
Y981500D1*
G37*
G36*
X845500D2*
X892500D1*
Y980500D1*
X845500D1*
Y981500D1*
G37*
G36*
X939500D2*
X986500D1*
Y980500D1*
X939500D1*
Y981500D1*
G37*
G36*
X245500Y980500D2*
X293500D1*
Y979500D1*
X245500D1*
Y980500D1*
G37*
G36*
X339500D2*
X386500D1*
Y979500D1*
X339500D1*
Y980500D1*
G37*
G36*
X845500D2*
X893500D1*
Y979500D1*
X845500D1*
Y980500D1*
G37*
G36*
X939500D2*
X986500D1*
Y979500D1*
X939500D1*
Y980500D1*
G37*
G36*
X245500Y979500D2*
X293500D1*
Y978500D1*
X245500D1*
Y979500D1*
G37*
G36*
X339500D2*
X386500D1*
Y978500D1*
X339500D1*
Y979500D1*
G37*
G36*
X845500D2*
X893500D1*
Y978500D1*
X845500D1*
Y979500D1*
G37*
G36*
X939500D2*
X986500D1*
Y978500D1*
X939500D1*
Y979500D1*
G37*
G36*
X245500Y978500D2*
X293500D1*
Y977500D1*
X245500D1*
Y978500D1*
G37*
G36*
X338500D2*
X386500D1*
Y977500D1*
X338500D1*
Y978500D1*
G37*
G36*
X845500D2*
X893500D1*
Y977500D1*
X845500D1*
Y978500D1*
G37*
G36*
X938500D2*
X986500D1*
Y977500D1*
X938500D1*
Y978500D1*
G37*
G36*
X245500Y977500D2*
X293500D1*
Y976500D1*
X245500D1*
Y977500D1*
G37*
G36*
X338500D2*
X386500D1*
Y976500D1*
X338500D1*
Y977500D1*
G37*
G36*
X845500D2*
X893500D1*
Y976500D1*
X845500D1*
Y977500D1*
G37*
G36*
X938500D2*
X986500D1*
Y976500D1*
X938500D1*
Y977500D1*
G37*
G36*
X245500Y976500D2*
X294500D1*
Y975500D1*
X245500D1*
Y976500D1*
G37*
G36*
X338500D2*
X386500D1*
Y975500D1*
X338500D1*
Y976500D1*
G37*
G36*
X845500D2*
X894500D1*
Y975500D1*
X845500D1*
Y976500D1*
G37*
G36*
X938500D2*
X986500D1*
Y975500D1*
X938500D1*
Y976500D1*
G37*
G36*
X245500Y975500D2*
X294500D1*
Y974500D1*
X245500D1*
Y975500D1*
G37*
G36*
X337500D2*
X386500D1*
Y974500D1*
X337500D1*
Y975500D1*
G37*
G36*
X845500D2*
X894500D1*
Y974500D1*
X845500D1*
Y975500D1*
G37*
G36*
X937500D2*
X986500D1*
Y974500D1*
X937500D1*
Y975500D1*
G37*
G36*
X245500Y974500D2*
X295500D1*
Y973500D1*
X245500D1*
Y974500D1*
G37*
G36*
X337500D2*
X386500D1*
Y973500D1*
X337500D1*
Y974500D1*
G37*
G36*
X845500D2*
X895500D1*
Y973500D1*
X845500D1*
Y974500D1*
G37*
G36*
X937500D2*
X986500D1*
Y973500D1*
X937500D1*
Y974500D1*
G37*
G36*
X245500Y973500D2*
X295500D1*
Y972500D1*
X245500D1*
Y973500D1*
G37*
G36*
X336500D2*
X386500D1*
Y972500D1*
X336500D1*
Y973500D1*
G37*
G36*
X845500D2*
X895500D1*
Y972500D1*
X845500D1*
Y973500D1*
G37*
G36*
X936500D2*
X986500D1*
Y972500D1*
X936500D1*
Y973500D1*
G37*
G36*
X245500Y972500D2*
X296500D1*
Y971500D1*
X245500D1*
Y972500D1*
G37*
G36*
X336500D2*
X386500D1*
Y971500D1*
X336500D1*
Y972500D1*
G37*
G36*
X845500D2*
X896500D1*
Y971500D1*
X845500D1*
Y972500D1*
G37*
G36*
X936500D2*
X986500D1*
Y971500D1*
X936500D1*
Y972500D1*
G37*
G36*
X245500Y971500D2*
X297500D1*
Y970500D1*
X245500D1*
Y971500D1*
G37*
G36*
X335500D2*
X386500D1*
Y970500D1*
X335500D1*
Y971500D1*
G37*
G36*
X845500D2*
X896500D1*
Y970500D1*
X845500D1*
Y971500D1*
G37*
G36*
X935500D2*
X986500D1*
Y970500D1*
X935500D1*
Y971500D1*
G37*
G36*
X245500Y970500D2*
X297500D1*
Y969500D1*
X245500D1*
Y970500D1*
G37*
G36*
X334500D2*
X386500D1*
Y969500D1*
X334500D1*
Y970500D1*
G37*
G36*
X845500D2*
X897500D1*
Y969500D1*
X845500D1*
Y970500D1*
G37*
G36*
X934500D2*
X986500D1*
Y969500D1*
X934500D1*
Y970500D1*
G37*
G36*
X245500Y969500D2*
X298500D1*
Y968500D1*
X245500D1*
Y969500D1*
G37*
G36*
X333500D2*
X386500D1*
Y968500D1*
X333500D1*
Y969500D1*
G37*
G36*
X845500D2*
X898500D1*
Y968500D1*
X845500D1*
Y969500D1*
G37*
G36*
X933500D2*
X986500D1*
Y968500D1*
X933500D1*
Y969500D1*
G37*
G36*
X245500Y968500D2*
X299500D1*
Y967500D1*
X245500D1*
Y968500D1*
G37*
G36*
X333500D2*
X386500D1*
Y967500D1*
X333500D1*
Y968500D1*
G37*
G36*
X845500D2*
X899500D1*
Y967500D1*
X845500D1*
Y968500D1*
G37*
G36*
X932500D2*
X986500D1*
Y967500D1*
X932500D1*
Y968500D1*
G37*
G36*
X245500Y967500D2*
X300500D1*
Y966500D1*
X245500D1*
Y967500D1*
G37*
G36*
X331500D2*
X386500D1*
Y966500D1*
X331500D1*
Y967500D1*
G37*
G36*
X845500D2*
X900500D1*
Y966500D1*
X845500D1*
Y967500D1*
G37*
G36*
X931500D2*
X986500D1*
Y966500D1*
X931500D1*
Y967500D1*
G37*
G36*
X245500Y966500D2*
X301500D1*
Y965500D1*
X245500D1*
Y966500D1*
G37*
G36*
X330500D2*
X386500D1*
Y965500D1*
X330500D1*
Y966500D1*
G37*
G36*
X845500D2*
X901500D1*
Y965500D1*
X845500D1*
Y966500D1*
G37*
G36*
X930500D2*
X986500D1*
Y965500D1*
X930500D1*
Y966500D1*
G37*
G36*
X245500Y965500D2*
X303500D1*
Y964500D1*
X245500D1*
Y965500D1*
G37*
G36*
X329500D2*
X386500D1*
Y964500D1*
X329500D1*
Y965500D1*
G37*
G36*
X845500D2*
X902500D1*
Y964500D1*
X845500D1*
Y965500D1*
G37*
G36*
X929500D2*
X986500D1*
Y964500D1*
X929500D1*
Y965500D1*
G37*
G36*
X245500Y964500D2*
X304500D1*
Y963500D1*
X245500D1*
Y964500D1*
G37*
G36*
X327500D2*
X386500D1*
Y963500D1*
X327500D1*
Y964500D1*
G37*
G36*
X845500D2*
X904500D1*
Y963500D1*
X845500D1*
Y964500D1*
G37*
G36*
X927500D2*
X986500D1*
Y963500D1*
X927500D1*
Y964500D1*
G37*
G36*
X245500Y963500D2*
X306500D1*
Y962500D1*
X245500D1*
Y963500D1*
G37*
G36*
X326500D2*
X386500D1*
Y962500D1*
X326500D1*
Y963500D1*
G37*
G36*
X845500D2*
X906500D1*
Y962500D1*
X845500D1*
Y963500D1*
G37*
G36*
X925500D2*
X986500D1*
Y962500D1*
X925500D1*
Y963500D1*
G37*
G36*
X245500Y962500D2*
X309500D1*
Y961500D1*
X245500D1*
Y962500D1*
G37*
G36*
X323500D2*
X386500D1*
Y961500D1*
X323500D1*
Y962500D1*
G37*
G36*
X845500D2*
X908500D1*
Y961500D1*
X845500D1*
Y962500D1*
G37*
G36*
X923500D2*
X986500D1*
Y961500D1*
X923500D1*
Y962500D1*
G37*
G36*
X245500Y961500D2*
X386500D1*
Y960500D1*
X245500D1*
Y961500D1*
G37*
G36*
X845500D2*
X986500D1*
Y960500D1*
X845500D1*
Y961500D1*
G37*
G36*
X245500Y960500D2*
X386500D1*
Y959500D1*
X245500D1*
Y960500D1*
G37*
G36*
X845500D2*
X986500D1*
Y959500D1*
X845500D1*
Y960500D1*
G37*
G36*
X245500Y959500D2*
X386500D1*
Y958500D1*
X245500D1*
Y959500D1*
G37*
G36*
X845500D2*
X986500D1*
Y958500D1*
X845500D1*
Y959500D1*
G37*
G36*
X245500Y958500D2*
X386500D1*
Y957500D1*
X245500D1*
Y958500D1*
G37*
G36*
X845500D2*
X986500D1*
Y957500D1*
X845500D1*
Y958500D1*
G37*
G36*
X245500Y957500D2*
X386500D1*
Y956500D1*
X245500D1*
Y957500D1*
G37*
G36*
X845500D2*
X986500D1*
Y956500D1*
X845500D1*
Y957500D1*
G37*
G36*
X245500Y956500D2*
X386500D1*
Y955500D1*
X245500D1*
Y956500D1*
G37*
G36*
X845500D2*
X986500D1*
Y955500D1*
X845500D1*
Y956500D1*
G37*
G36*
X245500Y955500D2*
X386500D1*
Y954500D1*
X245500D1*
Y955500D1*
G37*
G36*
X845500D2*
X986500D1*
Y954500D1*
X845500D1*
Y955500D1*
G37*
G36*
X245500Y954500D2*
X386500D1*
Y953500D1*
X245500D1*
Y954500D1*
G37*
G36*
X845500D2*
X986500D1*
Y953500D1*
X845500D1*
Y954500D1*
G37*
G36*
X245500Y953500D2*
X386500D1*
Y952500D1*
X245500D1*
Y953500D1*
G37*
G36*
X845500D2*
X986500D1*
Y952500D1*
X845500D1*
Y953500D1*
G37*
G36*
X245500Y952500D2*
X386500D1*
Y951500D1*
X245500D1*
Y952500D1*
G37*
G36*
X845500D2*
X986500D1*
Y951500D1*
X845500D1*
Y952500D1*
G37*
G36*
X246500Y951500D2*
X386500D1*
Y950500D1*
X246500D1*
Y951500D1*
G37*
G36*
X846500D2*
X986500D1*
Y950500D1*
X846500D1*
Y951500D1*
G37*
G36*
X311500Y918500D2*
X320500D1*
Y917500D1*
X311500D1*
Y918500D1*
G37*
G36*
X911500D2*
X920500D1*
Y917500D1*
X911500D1*
Y918500D1*
G37*
G36*
X245500Y917500D2*
X386500D1*
Y916500D1*
X245500D1*
Y917500D1*
G37*
G36*
X845500D2*
X986500D1*
Y916500D1*
X845500D1*
Y917500D1*
G37*
G36*
X245500Y916500D2*
X386500D1*
Y915500D1*
X245500D1*
Y916500D1*
G37*
G36*
X845500D2*
X986500D1*
Y915500D1*
X845500D1*
Y916500D1*
G37*
G36*
X245500Y915500D2*
X386500D1*
Y914500D1*
X245500D1*
Y915500D1*
G37*
G36*
X845500D2*
X986500D1*
Y914500D1*
X845500D1*
Y915500D1*
G37*
G36*
X245500Y914500D2*
X386500D1*
Y913500D1*
X245500D1*
Y914500D1*
G37*
G36*
X845500D2*
X986500D1*
Y913500D1*
X845500D1*
Y914500D1*
G37*
G36*
X245500Y913500D2*
X386500D1*
Y912500D1*
X245500D1*
Y913500D1*
G37*
G36*
X845500D2*
X986500D1*
Y912500D1*
X845500D1*
Y913500D1*
G37*
G36*
X245500Y912500D2*
X386500D1*
Y911500D1*
X245500D1*
Y912500D1*
G37*
G36*
X845500D2*
X986500D1*
Y911500D1*
X845500D1*
Y912500D1*
G37*
G36*
X245500Y911500D2*
X386500D1*
Y910500D1*
X245500D1*
Y911500D1*
G37*
G36*
X845500D2*
X986500D1*
Y910500D1*
X845500D1*
Y911500D1*
G37*
G36*
X245500Y910500D2*
X386500D1*
Y909500D1*
X245500D1*
Y910500D1*
G37*
G36*
X845500D2*
X986500D1*
Y909500D1*
X845500D1*
Y910500D1*
G37*
G36*
X245500Y909500D2*
X386500D1*
Y908500D1*
X245500D1*
Y909500D1*
G37*
G36*
X845500D2*
X986500D1*
Y908500D1*
X845500D1*
Y909500D1*
G37*
G36*
X245500Y908500D2*
X386500D1*
Y907500D1*
X245500D1*
Y908500D1*
G37*
G36*
X845500D2*
X986500D1*
Y907500D1*
X845500D1*
Y908500D1*
G37*
G36*
X245500Y907500D2*
X309500D1*
Y906500D1*
X245500D1*
Y907500D1*
G37*
G36*
X323500D2*
X386500D1*
Y906500D1*
X323500D1*
Y907500D1*
G37*
G36*
X845500D2*
X909500D1*
Y906500D1*
X845500D1*
Y907500D1*
G37*
G36*
X923500D2*
X986500D1*
Y906500D1*
X923500D1*
Y907500D1*
G37*
G36*
X245500Y906500D2*
X306500D1*
Y905500D1*
X245500D1*
Y906500D1*
G37*
G36*
X325500D2*
X386500D1*
Y905500D1*
X325500D1*
Y906500D1*
G37*
G36*
X845500D2*
X906500D1*
Y905500D1*
X845500D1*
Y906500D1*
G37*
G36*
X925500D2*
X986500D1*
Y905500D1*
X925500D1*
Y906500D1*
G37*
G36*
X245500Y905500D2*
X304500D1*
Y904500D1*
X245500D1*
Y905500D1*
G37*
G36*
X327500D2*
X386500D1*
Y904500D1*
X327500D1*
Y905500D1*
G37*
G36*
X845500D2*
X904500D1*
Y904500D1*
X845500D1*
Y905500D1*
G37*
G36*
X927500D2*
X986500D1*
Y904500D1*
X927500D1*
Y905500D1*
G37*
G36*
X245500Y904500D2*
X303500D1*
Y903500D1*
X245500D1*
Y904500D1*
G37*
G36*
X329500D2*
X386500D1*
Y903500D1*
X329500D1*
Y904500D1*
G37*
G36*
X845500D2*
X903500D1*
Y903500D1*
X845500D1*
Y904500D1*
G37*
G36*
X929500D2*
X986500D1*
Y903500D1*
X929500D1*
Y904500D1*
G37*
G36*
X245500Y903500D2*
X302500D1*
Y902500D1*
X245500D1*
Y903500D1*
G37*
G36*
X330500D2*
X386500D1*
Y902500D1*
X330500D1*
Y903500D1*
G37*
G36*
X845500D2*
X901500D1*
Y902500D1*
X845500D1*
Y903500D1*
G37*
G36*
X930500D2*
X986500D1*
Y902500D1*
X930500D1*
Y903500D1*
G37*
G36*
X245500Y902500D2*
X300500D1*
Y901500D1*
X245500D1*
Y902500D1*
G37*
G36*
X331500D2*
X386500D1*
Y901500D1*
X331500D1*
Y902500D1*
G37*
G36*
X845500D2*
X900500D1*
Y901500D1*
X845500D1*
Y902500D1*
G37*
G36*
X931500D2*
X986500D1*
Y901500D1*
X931500D1*
Y902500D1*
G37*
G36*
X245500Y901500D2*
X299500D1*
Y900500D1*
X245500D1*
Y901500D1*
G37*
G36*
X332500D2*
X386500D1*
Y900500D1*
X332500D1*
Y901500D1*
G37*
G36*
X845500D2*
X899500D1*
Y900500D1*
X845500D1*
Y901500D1*
G37*
G36*
X932500D2*
X986500D1*
Y900500D1*
X932500D1*
Y901500D1*
G37*
G36*
X245500Y900500D2*
X298500D1*
Y899500D1*
X245500D1*
Y900500D1*
G37*
G36*
X333500D2*
X386500D1*
Y899500D1*
X333500D1*
Y900500D1*
G37*
G36*
X845500D2*
X898500D1*
Y899500D1*
X845500D1*
Y900500D1*
G37*
G36*
X933500D2*
X986500D1*
Y899500D1*
X933500D1*
Y900500D1*
G37*
G36*
X245500Y899500D2*
X297500D1*
Y898500D1*
X245500D1*
Y899500D1*
G37*
G36*
X334500D2*
X386500D1*
Y898500D1*
X334500D1*
Y899500D1*
G37*
G36*
X845500D2*
X897500D1*
Y898500D1*
X845500D1*
Y899500D1*
G37*
G36*
X934500D2*
X986500D1*
Y898500D1*
X934500D1*
Y899500D1*
G37*
G36*
X245500Y898500D2*
X297500D1*
Y897500D1*
X245500D1*
Y898500D1*
G37*
G36*
X335500D2*
X386500D1*
Y897500D1*
X335500D1*
Y898500D1*
G37*
G36*
X845500D2*
X896500D1*
Y897500D1*
X845500D1*
Y898500D1*
G37*
G36*
X935500D2*
X986500D1*
Y897500D1*
X935500D1*
Y898500D1*
G37*
G36*
X245500Y897500D2*
X296500D1*
Y896500D1*
X245500D1*
Y897500D1*
G37*
G36*
X336500D2*
X386500D1*
Y896500D1*
X336500D1*
Y897500D1*
G37*
G36*
X845500D2*
X896500D1*
Y896500D1*
X845500D1*
Y897500D1*
G37*
G36*
X936500D2*
X986500D1*
Y896500D1*
X936500D1*
Y897500D1*
G37*
G36*
X245500Y896500D2*
X295500D1*
Y895500D1*
X245500D1*
Y896500D1*
G37*
G36*
X336500D2*
X386500D1*
Y895500D1*
X336500D1*
Y896500D1*
G37*
G36*
X845500D2*
X895500D1*
Y895500D1*
X845500D1*
Y896500D1*
G37*
G36*
X936500D2*
X986500D1*
Y895500D1*
X936500D1*
Y896500D1*
G37*
G36*
X245500Y895500D2*
X295500D1*
Y894500D1*
X245500D1*
Y895500D1*
G37*
G36*
X337500D2*
X386500D1*
Y894500D1*
X337500D1*
Y895500D1*
G37*
G36*
X845500D2*
X895500D1*
Y894500D1*
X845500D1*
Y895500D1*
G37*
G36*
X937500D2*
X986500D1*
Y894500D1*
X937500D1*
Y895500D1*
G37*
G36*
X245500Y894500D2*
X294500D1*
Y893500D1*
X245500D1*
Y894500D1*
G37*
G36*
X337500D2*
X386500D1*
Y893500D1*
X337500D1*
Y894500D1*
G37*
G36*
X845500D2*
X894500D1*
Y893500D1*
X845500D1*
Y894500D1*
G37*
G36*
X937500D2*
X986500D1*
Y893500D1*
X937500D1*
Y894500D1*
G37*
G36*
X245500Y893500D2*
X294500D1*
Y892500D1*
X245500D1*
Y893500D1*
G37*
G36*
X338500D2*
X386500D1*
Y892500D1*
X338500D1*
Y893500D1*
G37*
G36*
X845500D2*
X894500D1*
Y892500D1*
X845500D1*
Y893500D1*
G37*
G36*
X938500D2*
X986500D1*
Y892500D1*
X938500D1*
Y893500D1*
G37*
G36*
X245500Y892500D2*
X294500D1*
Y891500D1*
X245500D1*
Y892500D1*
G37*
G36*
X338500D2*
X386500D1*
Y891500D1*
X338500D1*
Y892500D1*
G37*
G36*
X845500D2*
X893500D1*
Y891500D1*
X845500D1*
Y892500D1*
G37*
G36*
X938500D2*
X986500D1*
Y891500D1*
X938500D1*
Y892500D1*
G37*
G36*
X245500Y891500D2*
X293500D1*
Y890500D1*
X245500D1*
Y891500D1*
G37*
G36*
X338500D2*
X386500D1*
Y890500D1*
X338500D1*
Y891500D1*
G37*
G36*
X845500D2*
X893500D1*
Y890500D1*
X845500D1*
Y891500D1*
G37*
G36*
X938500D2*
X986500D1*
Y890500D1*
X938500D1*
Y891500D1*
G37*
G36*
X245500Y890500D2*
X293500D1*
Y889500D1*
X245500D1*
Y890500D1*
G37*
G36*
X339500D2*
X386500D1*
Y889500D1*
X339500D1*
Y890500D1*
G37*
G36*
X845500D2*
X893500D1*
Y889500D1*
X845500D1*
Y890500D1*
G37*
G36*
X939500D2*
X986500D1*
Y889500D1*
X939500D1*
Y890500D1*
G37*
G36*
X245500Y889500D2*
X293500D1*
Y888500D1*
X245500D1*
Y889500D1*
G37*
G36*
X339500D2*
X386500D1*
Y888500D1*
X339500D1*
Y889500D1*
G37*
G36*
X845500D2*
X893500D1*
Y888500D1*
X845500D1*
Y889500D1*
G37*
G36*
X939500D2*
X986500D1*
Y888500D1*
X939500D1*
Y889500D1*
G37*
G36*
X245500Y888500D2*
X293500D1*
Y887500D1*
X245500D1*
Y888500D1*
G37*
G36*
X339500D2*
X386500D1*
Y887500D1*
X339500D1*
Y888500D1*
G37*
G36*
X845500D2*
X892500D1*
Y887500D1*
X845500D1*
Y888500D1*
G37*
G36*
X939500D2*
X986500D1*
Y887500D1*
X939500D1*
Y888500D1*
G37*
G36*
X245500Y887500D2*
X292500D1*
Y886500D1*
X245500D1*
Y887500D1*
G37*
G36*
X339500D2*
X386500D1*
Y886500D1*
X339500D1*
Y887500D1*
G37*
G36*
X845500D2*
X892500D1*
Y886500D1*
X845500D1*
Y887500D1*
G37*
G36*
X939500D2*
X986500D1*
Y886500D1*
X939500D1*
Y887500D1*
G37*
G36*
X245500Y886500D2*
X292500D1*
Y885500D1*
X245500D1*
Y886500D1*
G37*
G36*
X339500D2*
X386500D1*
Y885500D1*
X339500D1*
Y886500D1*
G37*
G36*
X845500D2*
X892500D1*
Y885500D1*
X845500D1*
Y886500D1*
G37*
G36*
X939500D2*
X986500D1*
Y885500D1*
X939500D1*
Y886500D1*
G37*
G36*
X245500Y885500D2*
X292500D1*
Y884500D1*
X245500D1*
Y885500D1*
G37*
G36*
X339500D2*
X386500D1*
Y884500D1*
X339500D1*
Y885500D1*
G37*
G36*
X845500D2*
X892500D1*
Y884500D1*
X845500D1*
Y885500D1*
G37*
G36*
X939500D2*
X986500D1*
Y884500D1*
X939500D1*
Y885500D1*
G37*
G36*
X245500Y884500D2*
X292500D1*
Y883500D1*
X245500D1*
Y884500D1*
G37*
G36*
X339500D2*
X386500D1*
Y883500D1*
X339500D1*
Y884500D1*
G37*
G36*
X845500D2*
X892500D1*
Y883500D1*
X845500D1*
Y884500D1*
G37*
G36*
X939500D2*
X986500D1*
Y883500D1*
X939500D1*
Y884500D1*
G37*
G36*
X245500Y883500D2*
X292500D1*
Y882500D1*
X245500D1*
Y883500D1*
G37*
G36*
X339500D2*
X386500D1*
Y882500D1*
X339500D1*
Y883500D1*
G37*
G36*
X845500D2*
X892500D1*
Y882500D1*
X845500D1*
Y883500D1*
G37*
G36*
X939500D2*
X986500D1*
Y882500D1*
X939500D1*
Y883500D1*
G37*
G36*
X245500Y882500D2*
X292500D1*
Y881500D1*
X245500D1*
Y882500D1*
G37*
G36*
X339500D2*
X386500D1*
Y881500D1*
X339500D1*
Y882500D1*
G37*
G36*
X845500D2*
X892500D1*
Y881500D1*
X845500D1*
Y882500D1*
G37*
G36*
X939500D2*
X986500D1*
Y881500D1*
X939500D1*
Y882500D1*
G37*
G36*
X245500Y881500D2*
X293500D1*
Y880500D1*
X245500D1*
Y881500D1*
G37*
G36*
X339500D2*
X386500D1*
Y880500D1*
X339500D1*
Y881500D1*
G37*
G36*
X845500D2*
X892500D1*
Y880500D1*
X845500D1*
Y881500D1*
G37*
G36*
X939500D2*
X986500D1*
Y880500D1*
X939500D1*
Y881500D1*
G37*
G36*
X245500Y880500D2*
X293500D1*
Y879500D1*
X245500D1*
Y880500D1*
G37*
G36*
X339500D2*
X386500D1*
Y879500D1*
X339500D1*
Y880500D1*
G37*
G36*
X845500D2*
X893500D1*
Y879500D1*
X845500D1*
Y880500D1*
G37*
G36*
X939500D2*
X986500D1*
Y879500D1*
X939500D1*
Y880500D1*
G37*
G36*
X245500Y879500D2*
X293500D1*
Y878500D1*
X245500D1*
Y879500D1*
G37*
G36*
X339500D2*
X386500D1*
Y878500D1*
X339500D1*
Y879500D1*
G37*
G36*
X845500D2*
X893500D1*
Y878500D1*
X845500D1*
Y879500D1*
G37*
G36*
X939500D2*
X986500D1*
Y878500D1*
X939500D1*
Y879500D1*
G37*
G36*
X245500Y878500D2*
X293500D1*
Y877500D1*
X245500D1*
Y878500D1*
G37*
G36*
X338500D2*
X386500D1*
Y877500D1*
X338500D1*
Y878500D1*
G37*
G36*
X845500D2*
X893500D1*
Y877500D1*
X845500D1*
Y878500D1*
G37*
G36*
X938500D2*
X986500D1*
Y877500D1*
X938500D1*
Y878500D1*
G37*
G36*
X245500Y877500D2*
X293500D1*
Y876500D1*
X245500D1*
Y877500D1*
G37*
G36*
X338500D2*
X386500D1*
Y876500D1*
X338500D1*
Y877500D1*
G37*
G36*
X845500D2*
X893500D1*
Y876500D1*
X845500D1*
Y877500D1*
G37*
G36*
X938500D2*
X986500D1*
Y876500D1*
X938500D1*
Y877500D1*
G37*
G36*
X245500Y876500D2*
X294500D1*
Y875500D1*
X245500D1*
Y876500D1*
G37*
G36*
X338500D2*
X386500D1*
Y875500D1*
X338500D1*
Y876500D1*
G37*
G36*
X845500D2*
X894500D1*
Y875500D1*
X845500D1*
Y876500D1*
G37*
G36*
X938500D2*
X986500D1*
Y875500D1*
X938500D1*
Y876500D1*
G37*
G36*
X245500Y875500D2*
X294500D1*
Y874500D1*
X245500D1*
Y875500D1*
G37*
G36*
X337500D2*
X386500D1*
Y874500D1*
X337500D1*
Y875500D1*
G37*
G36*
X845500D2*
X894500D1*
Y874500D1*
X845500D1*
Y875500D1*
G37*
G36*
X937500D2*
X986500D1*
Y874500D1*
X937500D1*
Y875500D1*
G37*
G36*
X245500Y874500D2*
X295500D1*
Y873500D1*
X245500D1*
Y874500D1*
G37*
G36*
X337500D2*
X386500D1*
Y873500D1*
X337500D1*
Y874500D1*
G37*
G36*
X845500D2*
X895500D1*
Y873500D1*
X845500D1*
Y874500D1*
G37*
G36*
X937500D2*
X986500D1*
Y873500D1*
X937500D1*
Y874500D1*
G37*
G36*
X245500Y873500D2*
X295500D1*
Y872500D1*
X245500D1*
Y873500D1*
G37*
G36*
X336500D2*
X386500D1*
Y872500D1*
X336500D1*
Y873500D1*
G37*
G36*
X845500D2*
X895500D1*
Y872500D1*
X845500D1*
Y873500D1*
G37*
G36*
X936500D2*
X986500D1*
Y872500D1*
X936500D1*
Y873500D1*
G37*
G36*
X245500Y872500D2*
X296500D1*
Y871500D1*
X245500D1*
Y872500D1*
G37*
G36*
X336500D2*
X386500D1*
Y871500D1*
X336500D1*
Y872500D1*
G37*
G36*
X845500D2*
X896500D1*
Y871500D1*
X845500D1*
Y872500D1*
G37*
G36*
X936500D2*
X986500D1*
Y871500D1*
X936500D1*
Y872500D1*
G37*
G36*
X245500Y871500D2*
X297500D1*
Y870500D1*
X245500D1*
Y871500D1*
G37*
G36*
X335500D2*
X386500D1*
Y870500D1*
X335500D1*
Y871500D1*
G37*
G36*
X845500D2*
X896500D1*
Y870500D1*
X845500D1*
Y871500D1*
G37*
G36*
X935500D2*
X986500D1*
Y870500D1*
X935500D1*
Y871500D1*
G37*
G36*
X245500Y870500D2*
X297500D1*
Y869500D1*
X245500D1*
Y870500D1*
G37*
G36*
X334500D2*
X386500D1*
Y869500D1*
X334500D1*
Y870500D1*
G37*
G36*
X845500D2*
X897500D1*
Y869500D1*
X845500D1*
Y870500D1*
G37*
G36*
X934500D2*
X986500D1*
Y869500D1*
X934500D1*
Y870500D1*
G37*
G36*
X245500Y869500D2*
X298500D1*
Y868500D1*
X245500D1*
Y869500D1*
G37*
G36*
X333500D2*
X386500D1*
Y868500D1*
X333500D1*
Y869500D1*
G37*
G36*
X845500D2*
X898500D1*
Y868500D1*
X845500D1*
Y869500D1*
G37*
G36*
X933500D2*
X986500D1*
Y868500D1*
X933500D1*
Y869500D1*
G37*
G36*
X245500Y868500D2*
X299500D1*
Y867500D1*
X245500D1*
Y868500D1*
G37*
G36*
X333500D2*
X386500D1*
Y867500D1*
X333500D1*
Y868500D1*
G37*
G36*
X845500D2*
X899500D1*
Y867500D1*
X845500D1*
Y868500D1*
G37*
G36*
X932500D2*
X986500D1*
Y867500D1*
X932500D1*
Y868500D1*
G37*
G36*
X245500Y867500D2*
X300500D1*
Y866500D1*
X245500D1*
Y867500D1*
G37*
G36*
X331500D2*
X386500D1*
Y866500D1*
X331500D1*
Y867500D1*
G37*
G36*
X845500D2*
X900500D1*
Y866500D1*
X845500D1*
Y867500D1*
G37*
G36*
X931500D2*
X986500D1*
Y866500D1*
X931500D1*
Y867500D1*
G37*
G36*
X245500Y866500D2*
X301500D1*
Y865500D1*
X245500D1*
Y866500D1*
G37*
G36*
X330500D2*
X386500D1*
Y865500D1*
X330500D1*
Y866500D1*
G37*
G36*
X845500D2*
X901500D1*
Y865500D1*
X845500D1*
Y866500D1*
G37*
G36*
X930500D2*
X986500D1*
Y865500D1*
X930500D1*
Y866500D1*
G37*
G36*
X245500Y865500D2*
X303500D1*
Y864500D1*
X245500D1*
Y865500D1*
G37*
G36*
X329500D2*
X386500D1*
Y864500D1*
X329500D1*
Y865500D1*
G37*
G36*
X845500D2*
X902500D1*
Y864500D1*
X845500D1*
Y865500D1*
G37*
G36*
X929500D2*
X986500D1*
Y864500D1*
X929500D1*
Y865500D1*
G37*
G36*
X245500Y864500D2*
X304500D1*
Y863500D1*
X245500D1*
Y864500D1*
G37*
G36*
X327500D2*
X386500D1*
Y863500D1*
X327500D1*
Y864500D1*
G37*
G36*
X845500D2*
X904500D1*
Y863500D1*
X845500D1*
Y864500D1*
G37*
G36*
X927500D2*
X986500D1*
Y863500D1*
X927500D1*
Y864500D1*
G37*
G36*
X245500Y863500D2*
X306500D1*
Y862500D1*
X245500D1*
Y863500D1*
G37*
G36*
X326500D2*
X386500D1*
Y862500D1*
X326500D1*
Y863500D1*
G37*
G36*
X845500D2*
X906500D1*
Y862500D1*
X845500D1*
Y863500D1*
G37*
G36*
X925500D2*
X986500D1*
Y862500D1*
X925500D1*
Y863500D1*
G37*
G36*
X245500Y862500D2*
X309500D1*
Y861500D1*
X245500D1*
Y862500D1*
G37*
G36*
X323500D2*
X386500D1*
Y861500D1*
X323500D1*
Y862500D1*
G37*
G36*
X845500D2*
X909500D1*
Y861500D1*
X845500D1*
Y862500D1*
G37*
G36*
X923500D2*
X986500D1*
Y861500D1*
X923500D1*
Y862500D1*
G37*
G36*
X245500Y861500D2*
X386500D1*
Y860500D1*
X245500D1*
Y861500D1*
G37*
G36*
X845500D2*
X986500D1*
Y860500D1*
X845500D1*
Y861500D1*
G37*
G36*
X245500Y860500D2*
X386500D1*
Y859500D1*
X245500D1*
Y860500D1*
G37*
G36*
X845500D2*
X986500D1*
Y859500D1*
X845500D1*
Y860500D1*
G37*
G36*
X245500Y859500D2*
X386500D1*
Y858500D1*
X245500D1*
Y859500D1*
G37*
G36*
X845500D2*
X986500D1*
Y858500D1*
X845500D1*
Y859500D1*
G37*
G36*
X245500Y858500D2*
X386500D1*
Y857500D1*
X245500D1*
Y858500D1*
G37*
G36*
X845500D2*
X986500D1*
Y857500D1*
X845500D1*
Y858500D1*
G37*
G36*
X245500Y857500D2*
X386500D1*
Y856500D1*
X245500D1*
Y857500D1*
G37*
G36*
X845500D2*
X986500D1*
Y856500D1*
X845500D1*
Y857500D1*
G37*
G36*
X245500Y856500D2*
X386500D1*
Y855500D1*
X245500D1*
Y856500D1*
G37*
G36*
X845500D2*
X986500D1*
Y855500D1*
X845500D1*
Y856500D1*
G37*
G36*
X245500Y855500D2*
X386500D1*
Y854500D1*
X245500D1*
Y855500D1*
G37*
G36*
X845500D2*
X986500D1*
Y854500D1*
X845500D1*
Y855500D1*
G37*
G36*
X245500Y854500D2*
X386500D1*
Y853500D1*
X245500D1*
Y854500D1*
G37*
G36*
X845500D2*
X986500D1*
Y853500D1*
X845500D1*
Y854500D1*
G37*
G36*
X245500Y853500D2*
X386500D1*
Y852500D1*
X245500D1*
Y853500D1*
G37*
G36*
X845500D2*
X986500D1*
Y852500D1*
X845500D1*
Y853500D1*
G37*
G36*
X245500Y852500D2*
X386500D1*
Y851500D1*
X245500D1*
Y852500D1*
G37*
G36*
X845500D2*
X986500D1*
Y851500D1*
X845500D1*
Y852500D1*
G37*
G36*
X246500Y851500D2*
X386500D1*
Y850500D1*
X246500D1*
Y851500D1*
G37*
G36*
X846500D2*
X986500D1*
Y850500D1*
X846500D1*
Y851500D1*
G37*
G36*
X311500Y818500D2*
X321500D1*
Y817500D1*
X311500D1*
Y818500D1*
G37*
G36*
X911500D2*
X921500D1*
Y817500D1*
X911500D1*
Y818500D1*
G37*
G36*
X245500Y817500D2*
X386500D1*
Y816500D1*
X245500D1*
Y817500D1*
G37*
G36*
X845500D2*
X986500D1*
Y816500D1*
X845500D1*
Y817500D1*
G37*
G36*
X245500Y816500D2*
X386500D1*
Y815500D1*
X245500D1*
Y816500D1*
G37*
G36*
X845500D2*
X986500D1*
Y815500D1*
X845500D1*
Y816500D1*
G37*
G36*
X245500Y815500D2*
X386500D1*
Y814500D1*
X245500D1*
Y815500D1*
G37*
G36*
X845500D2*
X986500D1*
Y814500D1*
X845500D1*
Y815500D1*
G37*
G36*
X245500Y814500D2*
X386500D1*
Y813500D1*
X245500D1*
Y814500D1*
G37*
G36*
X845500D2*
X986500D1*
Y813500D1*
X845500D1*
Y814500D1*
G37*
G36*
X245500Y813500D2*
X386500D1*
Y812500D1*
X245500D1*
Y813500D1*
G37*
G36*
X845500D2*
X986500D1*
Y812500D1*
X845500D1*
Y813500D1*
G37*
G36*
X245500Y812500D2*
X386500D1*
Y811500D1*
X245500D1*
Y812500D1*
G37*
G36*
X845500D2*
X986500D1*
Y811500D1*
X845500D1*
Y812500D1*
G37*
G36*
X245500Y811500D2*
X386500D1*
Y810500D1*
X245500D1*
Y811500D1*
G37*
G36*
X845500D2*
X986500D1*
Y810500D1*
X845500D1*
Y811500D1*
G37*
G36*
X245500Y810500D2*
X386500D1*
Y809500D1*
X245500D1*
Y810500D1*
G37*
G36*
X845500D2*
X986500D1*
Y809500D1*
X845500D1*
Y810500D1*
G37*
G36*
X245500Y809500D2*
X386500D1*
Y808500D1*
X245500D1*
Y809500D1*
G37*
G36*
X845500D2*
X986500D1*
Y808500D1*
X845500D1*
Y809500D1*
G37*
G36*
X245500Y808500D2*
X386500D1*
Y807500D1*
X245500D1*
Y808500D1*
G37*
G36*
X845500D2*
X986500D1*
Y807500D1*
X845500D1*
Y808500D1*
G37*
G36*
X245500Y807500D2*
X309500D1*
Y806500D1*
X245500D1*
Y807500D1*
G37*
G36*
X323500D2*
X386500D1*
Y806500D1*
X323500D1*
Y807500D1*
G37*
G36*
X845500D2*
X909500D1*
Y806500D1*
X845500D1*
Y807500D1*
G37*
G36*
X923500D2*
X986500D1*
Y806500D1*
X923500D1*
Y807500D1*
G37*
G36*
X245500Y806500D2*
X306500D1*
Y805500D1*
X245500D1*
Y806500D1*
G37*
G36*
X325500D2*
X386500D1*
Y805500D1*
X325500D1*
Y806500D1*
G37*
G36*
X845500D2*
X906500D1*
Y805500D1*
X845500D1*
Y806500D1*
G37*
G36*
X925500D2*
X986500D1*
Y805500D1*
X925500D1*
Y806500D1*
G37*
G36*
X245500Y805500D2*
X304500D1*
Y804500D1*
X245500D1*
Y805500D1*
G37*
G36*
X327500D2*
X386500D1*
Y804500D1*
X327500D1*
Y805500D1*
G37*
G36*
X845500D2*
X904500D1*
Y804500D1*
X845500D1*
Y805500D1*
G37*
G36*
X927500D2*
X986500D1*
Y804500D1*
X927500D1*
Y805500D1*
G37*
G36*
X245500Y804500D2*
X303500D1*
Y803500D1*
X245500D1*
Y804500D1*
G37*
G36*
X329500D2*
X386500D1*
Y803500D1*
X329500D1*
Y804500D1*
G37*
G36*
X845500D2*
X903500D1*
Y803500D1*
X845500D1*
Y804500D1*
G37*
G36*
X929500D2*
X986500D1*
Y803500D1*
X929500D1*
Y804500D1*
G37*
G36*
X245500Y803500D2*
X301500D1*
Y802500D1*
X245500D1*
Y803500D1*
G37*
G36*
X330500D2*
X386500D1*
Y802500D1*
X330500D1*
Y803500D1*
G37*
G36*
X845500D2*
X901500D1*
Y802500D1*
X845500D1*
Y803500D1*
G37*
G36*
X930500D2*
X986500D1*
Y802500D1*
X930500D1*
Y803500D1*
G37*
G36*
X245500Y802500D2*
X300500D1*
Y801500D1*
X245500D1*
Y802500D1*
G37*
G36*
X331500D2*
X386500D1*
Y801500D1*
X331500D1*
Y802500D1*
G37*
G36*
X845500D2*
X900500D1*
Y801500D1*
X845500D1*
Y802500D1*
G37*
G36*
X931500D2*
X986500D1*
Y801500D1*
X931500D1*
Y802500D1*
G37*
G36*
X245500Y801500D2*
X299500D1*
Y800500D1*
X245500D1*
Y801500D1*
G37*
G36*
X332500D2*
X386500D1*
Y800500D1*
X332500D1*
Y801500D1*
G37*
G36*
X845500D2*
X899500D1*
Y800500D1*
X845500D1*
Y801500D1*
G37*
G36*
X932500D2*
X986500D1*
Y800500D1*
X932500D1*
Y801500D1*
G37*
G36*
X245500Y800500D2*
X298500D1*
Y799500D1*
X245500D1*
Y800500D1*
G37*
G36*
X333500D2*
X386500D1*
Y799500D1*
X333500D1*
Y800500D1*
G37*
G36*
X845500D2*
X898500D1*
Y799500D1*
X845500D1*
Y800500D1*
G37*
G36*
X933500D2*
X986500D1*
Y799500D1*
X933500D1*
Y800500D1*
G37*
G36*
X245500Y799500D2*
X297500D1*
Y798500D1*
X245500D1*
Y799500D1*
G37*
G36*
X334500D2*
X386500D1*
Y798500D1*
X334500D1*
Y799500D1*
G37*
G36*
X845500D2*
X897500D1*
Y798500D1*
X845500D1*
Y799500D1*
G37*
G36*
X934500D2*
X986500D1*
Y798500D1*
X934500D1*
Y799500D1*
G37*
G36*
X245500Y798500D2*
X297500D1*
Y797500D1*
X245500D1*
Y798500D1*
G37*
G36*
X335500D2*
X386500D1*
Y797500D1*
X335500D1*
Y798500D1*
G37*
G36*
X845500D2*
X896500D1*
Y797500D1*
X845500D1*
Y798500D1*
G37*
G36*
X935500D2*
X986500D1*
Y797500D1*
X935500D1*
Y798500D1*
G37*
G36*
X245500Y797500D2*
X296500D1*
Y796500D1*
X245500D1*
Y797500D1*
G37*
G36*
X336500D2*
X386500D1*
Y796500D1*
X336500D1*
Y797500D1*
G37*
G36*
X845500D2*
X896500D1*
Y796500D1*
X845500D1*
Y797500D1*
G37*
G36*
X936500D2*
X986500D1*
Y796500D1*
X936500D1*
Y797500D1*
G37*
G36*
X245500Y796500D2*
X295500D1*
Y795500D1*
X245500D1*
Y796500D1*
G37*
G36*
X336500D2*
X386500D1*
Y795500D1*
X336500D1*
Y796500D1*
G37*
G36*
X845500D2*
X895500D1*
Y795500D1*
X845500D1*
Y796500D1*
G37*
G36*
X936500D2*
X986500D1*
Y795500D1*
X936500D1*
Y796500D1*
G37*
G36*
X245500Y795500D2*
X295500D1*
Y794500D1*
X245500D1*
Y795500D1*
G37*
G36*
X337500D2*
X386500D1*
Y794500D1*
X337500D1*
Y795500D1*
G37*
G36*
X845500D2*
X895500D1*
Y794500D1*
X845500D1*
Y795500D1*
G37*
G36*
X937500D2*
X986500D1*
Y794500D1*
X937500D1*
Y795500D1*
G37*
G36*
X245500Y794500D2*
X294500D1*
Y793500D1*
X245500D1*
Y794500D1*
G37*
G36*
X337500D2*
X386500D1*
Y793500D1*
X337500D1*
Y794500D1*
G37*
G36*
X845500D2*
X894500D1*
Y793500D1*
X845500D1*
Y794500D1*
G37*
G36*
X937500D2*
X986500D1*
Y793500D1*
X937500D1*
Y794500D1*
G37*
G36*
X245500Y793500D2*
X294500D1*
Y792500D1*
X245500D1*
Y793500D1*
G37*
G36*
X338500D2*
X386500D1*
Y792500D1*
X338500D1*
Y793500D1*
G37*
G36*
X845500D2*
X894500D1*
Y792500D1*
X845500D1*
Y793500D1*
G37*
G36*
X938500D2*
X986500D1*
Y792500D1*
X938500D1*
Y793500D1*
G37*
G36*
X245500Y792500D2*
X294500D1*
Y791500D1*
X245500D1*
Y792500D1*
G37*
G36*
X338500D2*
X386500D1*
Y791500D1*
X338500D1*
Y792500D1*
G37*
G36*
X845500D2*
X893500D1*
Y791500D1*
X845500D1*
Y792500D1*
G37*
G36*
X938500D2*
X986500D1*
Y791500D1*
X938500D1*
Y792500D1*
G37*
G36*
X245500Y791500D2*
X293500D1*
Y790500D1*
X245500D1*
Y791500D1*
G37*
G36*
X338500D2*
X386500D1*
Y790500D1*
X338500D1*
Y791500D1*
G37*
G36*
X845500D2*
X893500D1*
Y790500D1*
X845500D1*
Y791500D1*
G37*
G36*
X938500D2*
X986500D1*
Y790500D1*
X938500D1*
Y791500D1*
G37*
G36*
X245500Y790500D2*
X293500D1*
Y789500D1*
X245500D1*
Y790500D1*
G37*
G36*
X339500D2*
X386500D1*
Y789500D1*
X339500D1*
Y790500D1*
G37*
G36*
X845500D2*
X893500D1*
Y789500D1*
X845500D1*
Y790500D1*
G37*
G36*
X939500D2*
X986500D1*
Y789500D1*
X939500D1*
Y790500D1*
G37*
G36*
X245500Y789500D2*
X293500D1*
Y788500D1*
X245500D1*
Y789500D1*
G37*
G36*
X339500D2*
X386500D1*
Y788500D1*
X339500D1*
Y789500D1*
G37*
G36*
X845500D2*
X893500D1*
Y788500D1*
X845500D1*
Y789500D1*
G37*
G36*
X939500D2*
X986500D1*
Y788500D1*
X939500D1*
Y789500D1*
G37*
G36*
X245500Y788500D2*
X293500D1*
Y787500D1*
X245500D1*
Y788500D1*
G37*
G36*
X339500D2*
X386500D1*
Y787500D1*
X339500D1*
Y788500D1*
G37*
G36*
X845500D2*
X892500D1*
Y787500D1*
X845500D1*
Y788500D1*
G37*
G36*
X939500D2*
X986500D1*
Y787500D1*
X939500D1*
Y788500D1*
G37*
G36*
X245500Y787500D2*
X292500D1*
Y786500D1*
X245500D1*
Y787500D1*
G37*
G36*
X339500D2*
X386500D1*
Y786500D1*
X339500D1*
Y787500D1*
G37*
G36*
X845500D2*
X892500D1*
Y786500D1*
X845500D1*
Y787500D1*
G37*
G36*
X939500D2*
X986500D1*
Y786500D1*
X939500D1*
Y787500D1*
G37*
G36*
X245500Y786500D2*
X292500D1*
Y785500D1*
X245500D1*
Y786500D1*
G37*
G36*
X339500D2*
X386500D1*
Y785500D1*
X339500D1*
Y786500D1*
G37*
G36*
X845500D2*
X892500D1*
Y785500D1*
X845500D1*
Y786500D1*
G37*
G36*
X939500D2*
X986500D1*
Y785500D1*
X939500D1*
Y786500D1*
G37*
G36*
X245500Y785500D2*
X292500D1*
Y784500D1*
X245500D1*
Y785500D1*
G37*
G36*
X339500D2*
X386500D1*
Y784500D1*
X339500D1*
Y785500D1*
G37*
G36*
X845500D2*
X892500D1*
Y784500D1*
X845500D1*
Y785500D1*
G37*
G36*
X939500D2*
X986500D1*
Y784500D1*
X939500D1*
Y785500D1*
G37*
G36*
X245500Y784500D2*
X292500D1*
Y783500D1*
X245500D1*
Y784500D1*
G37*
G36*
X339500D2*
X386500D1*
Y783500D1*
X339500D1*
Y784500D1*
G37*
G36*
X845500D2*
X892500D1*
Y783500D1*
X845500D1*
Y784500D1*
G37*
G36*
X939500D2*
X986500D1*
Y783500D1*
X939500D1*
Y784500D1*
G37*
G36*
X245500Y783500D2*
X292500D1*
Y782500D1*
X245500D1*
Y783500D1*
G37*
G36*
X339500D2*
X386500D1*
Y782500D1*
X339500D1*
Y783500D1*
G37*
G36*
X845500D2*
X892500D1*
Y782500D1*
X845500D1*
Y783500D1*
G37*
G36*
X939500D2*
X986500D1*
Y782500D1*
X939500D1*
Y783500D1*
G37*
G36*
X245500Y782500D2*
X292500D1*
Y781500D1*
X245500D1*
Y782500D1*
G37*
G36*
X339500D2*
X386500D1*
Y781500D1*
X339500D1*
Y782500D1*
G37*
G36*
X845500D2*
X892500D1*
Y781500D1*
X845500D1*
Y782500D1*
G37*
G36*
X939500D2*
X986500D1*
Y781500D1*
X939500D1*
Y782500D1*
G37*
G36*
X245500Y781500D2*
X293500D1*
Y780500D1*
X245500D1*
Y781500D1*
G37*
G36*
X339500D2*
X386500D1*
Y780500D1*
X339500D1*
Y781500D1*
G37*
G36*
X845500D2*
X892500D1*
Y780500D1*
X845500D1*
Y781500D1*
G37*
G36*
X939500D2*
X986500D1*
Y780500D1*
X939500D1*
Y781500D1*
G37*
G36*
X245500Y780500D2*
X293500D1*
Y779500D1*
X245500D1*
Y780500D1*
G37*
G36*
X339500D2*
X386500D1*
Y779500D1*
X339500D1*
Y780500D1*
G37*
G36*
X845500D2*
X893500D1*
Y779500D1*
X845500D1*
Y780500D1*
G37*
G36*
X939500D2*
X986500D1*
Y779500D1*
X939500D1*
Y780500D1*
G37*
G36*
X245500Y779500D2*
X293500D1*
Y778500D1*
X245500D1*
Y779500D1*
G37*
G36*
X339500D2*
X386500D1*
Y778500D1*
X339500D1*
Y779500D1*
G37*
G36*
X845500D2*
X893500D1*
Y778500D1*
X845500D1*
Y779500D1*
G37*
G36*
X939500D2*
X986500D1*
Y778500D1*
X939500D1*
Y779500D1*
G37*
G36*
X245500Y778500D2*
X293500D1*
Y777500D1*
X245500D1*
Y778500D1*
G37*
G36*
X338500D2*
X386500D1*
Y777500D1*
X338500D1*
Y778500D1*
G37*
G36*
X845500D2*
X893500D1*
Y777500D1*
X845500D1*
Y778500D1*
G37*
G36*
X938500D2*
X986500D1*
Y777500D1*
X938500D1*
Y778500D1*
G37*
G36*
X245500Y777500D2*
X293500D1*
Y776500D1*
X245500D1*
Y777500D1*
G37*
G36*
X338500D2*
X386500D1*
Y776500D1*
X338500D1*
Y777500D1*
G37*
G36*
X845500D2*
X893500D1*
Y776500D1*
X845500D1*
Y777500D1*
G37*
G36*
X938500D2*
X986500D1*
Y776500D1*
X938500D1*
Y777500D1*
G37*
G36*
X245500Y776500D2*
X294500D1*
Y775500D1*
X245500D1*
Y776500D1*
G37*
G36*
X338500D2*
X386500D1*
Y775500D1*
X338500D1*
Y776500D1*
G37*
G36*
X845500D2*
X894500D1*
Y775500D1*
X845500D1*
Y776500D1*
G37*
G36*
X938500D2*
X986500D1*
Y775500D1*
X938500D1*
Y776500D1*
G37*
G36*
X245500Y775500D2*
X294500D1*
Y774500D1*
X245500D1*
Y775500D1*
G37*
G36*
X337500D2*
X386500D1*
Y774500D1*
X337500D1*
Y775500D1*
G37*
G36*
X845500D2*
X894500D1*
Y774500D1*
X845500D1*
Y775500D1*
G37*
G36*
X937500D2*
X986500D1*
Y774500D1*
X937500D1*
Y775500D1*
G37*
G36*
X245500Y774500D2*
X295500D1*
Y773500D1*
X245500D1*
Y774500D1*
G37*
G36*
X337500D2*
X386500D1*
Y773500D1*
X337500D1*
Y774500D1*
G37*
G36*
X845500D2*
X895500D1*
Y773500D1*
X845500D1*
Y774500D1*
G37*
G36*
X937500D2*
X986500D1*
Y773500D1*
X937500D1*
Y774500D1*
G37*
G36*
X245500Y773500D2*
X295500D1*
Y772500D1*
X245500D1*
Y773500D1*
G37*
G36*
X336500D2*
X386500D1*
Y772500D1*
X336500D1*
Y773500D1*
G37*
G36*
X845500D2*
X895500D1*
Y772500D1*
X845500D1*
Y773500D1*
G37*
G36*
X936500D2*
X986500D1*
Y772500D1*
X936500D1*
Y773500D1*
G37*
G36*
X245500Y772500D2*
X296500D1*
Y771500D1*
X245500D1*
Y772500D1*
G37*
G36*
X336500D2*
X386500D1*
Y771500D1*
X336500D1*
Y772500D1*
G37*
G36*
X845500D2*
X896500D1*
Y771500D1*
X845500D1*
Y772500D1*
G37*
G36*
X936500D2*
X986500D1*
Y771500D1*
X936500D1*
Y772500D1*
G37*
G36*
X245500Y771500D2*
X297500D1*
Y770500D1*
X245500D1*
Y771500D1*
G37*
G36*
X335500D2*
X386500D1*
Y770500D1*
X335500D1*
Y771500D1*
G37*
G36*
X845500D2*
X896500D1*
Y770500D1*
X845500D1*
Y771500D1*
G37*
G36*
X935500D2*
X986500D1*
Y770500D1*
X935500D1*
Y771500D1*
G37*
G36*
X245500Y770500D2*
X297500D1*
Y769500D1*
X245500D1*
Y770500D1*
G37*
G36*
X334500D2*
X386500D1*
Y769500D1*
X334500D1*
Y770500D1*
G37*
G36*
X845500D2*
X897500D1*
Y769500D1*
X845500D1*
Y770500D1*
G37*
G36*
X934500D2*
X986500D1*
Y769500D1*
X934500D1*
Y770500D1*
G37*
G36*
X245500Y769500D2*
X298500D1*
Y768500D1*
X245500D1*
Y769500D1*
G37*
G36*
X333500D2*
X386500D1*
Y768500D1*
X333500D1*
Y769500D1*
G37*
G36*
X845500D2*
X898500D1*
Y768500D1*
X845500D1*
Y769500D1*
G37*
G36*
X933500D2*
X986500D1*
Y768500D1*
X933500D1*
Y769500D1*
G37*
G36*
X245500Y768500D2*
X299500D1*
Y767500D1*
X245500D1*
Y768500D1*
G37*
G36*
X333500D2*
X386500D1*
Y767500D1*
X333500D1*
Y768500D1*
G37*
G36*
X845500D2*
X899500D1*
Y767500D1*
X845500D1*
Y768500D1*
G37*
G36*
X932500D2*
X986500D1*
Y767500D1*
X932500D1*
Y768500D1*
G37*
G36*
X245500Y767500D2*
X300500D1*
Y766500D1*
X245500D1*
Y767500D1*
G37*
G36*
X331500D2*
X386500D1*
Y766500D1*
X331500D1*
Y767500D1*
G37*
G36*
X845500D2*
X900500D1*
Y766500D1*
X845500D1*
Y767500D1*
G37*
G36*
X931500D2*
X986500D1*
Y766500D1*
X931500D1*
Y767500D1*
G37*
G36*
X245500Y766500D2*
X301500D1*
Y765500D1*
X245500D1*
Y766500D1*
G37*
G36*
X330500D2*
X386500D1*
Y765500D1*
X330500D1*
Y766500D1*
G37*
G36*
X845500D2*
X901500D1*
Y765500D1*
X845500D1*
Y766500D1*
G37*
G36*
X930500D2*
X986500D1*
Y765500D1*
X930500D1*
Y766500D1*
G37*
G36*
X245500Y765500D2*
X303500D1*
Y764500D1*
X245500D1*
Y765500D1*
G37*
G36*
X329500D2*
X386500D1*
Y764500D1*
X329500D1*
Y765500D1*
G37*
G36*
X845500D2*
X903500D1*
Y764500D1*
X845500D1*
Y765500D1*
G37*
G36*
X929500D2*
X986500D1*
Y764500D1*
X929500D1*
Y765500D1*
G37*
G36*
X245500Y764500D2*
X304500D1*
Y763500D1*
X245500D1*
Y764500D1*
G37*
G36*
X327500D2*
X386500D1*
Y763500D1*
X327500D1*
Y764500D1*
G37*
G36*
X845500D2*
X904500D1*
Y763500D1*
X845500D1*
Y764500D1*
G37*
G36*
X927500D2*
X986500D1*
Y763500D1*
X927500D1*
Y764500D1*
G37*
G36*
X245500Y763500D2*
X306500D1*
Y762500D1*
X245500D1*
Y763500D1*
G37*
G36*
X325500D2*
X386500D1*
Y762500D1*
X325500D1*
Y763500D1*
G37*
G36*
X845500D2*
X906500D1*
Y762500D1*
X845500D1*
Y763500D1*
G37*
G36*
X925500D2*
X986500D1*
Y762500D1*
X925500D1*
Y763500D1*
G37*
G36*
X245500Y762500D2*
X309500D1*
Y761500D1*
X245500D1*
Y762500D1*
G37*
G36*
X323500D2*
X386500D1*
Y761500D1*
X323500D1*
Y762500D1*
G37*
G36*
X845500D2*
X909500D1*
Y761500D1*
X845500D1*
Y762500D1*
G37*
G36*
X923500D2*
X986500D1*
Y761500D1*
X923500D1*
Y762500D1*
G37*
G36*
X245500Y761500D2*
X386500D1*
Y760500D1*
X245500D1*
Y761500D1*
G37*
G36*
X845500D2*
X986500D1*
Y760500D1*
X845500D1*
Y761500D1*
G37*
G36*
X245500Y760500D2*
X386500D1*
Y759500D1*
X245500D1*
Y760500D1*
G37*
G36*
X845500D2*
X986500D1*
Y759500D1*
X845500D1*
Y760500D1*
G37*
G36*
X245500Y759500D2*
X386500D1*
Y758500D1*
X245500D1*
Y759500D1*
G37*
G36*
X845500D2*
X986500D1*
Y758500D1*
X845500D1*
Y759500D1*
G37*
G36*
X245500Y758500D2*
X386500D1*
Y757500D1*
X245500D1*
Y758500D1*
G37*
G36*
X845500D2*
X986500D1*
Y757500D1*
X845500D1*
Y758500D1*
G37*
G36*
X245500Y757500D2*
X386500D1*
Y756500D1*
X245500D1*
Y757500D1*
G37*
G36*
X845500D2*
X986500D1*
Y756500D1*
X845500D1*
Y757500D1*
G37*
G36*
X245500Y756500D2*
X386500D1*
Y755500D1*
X245500D1*
Y756500D1*
G37*
G36*
X845500D2*
X986500D1*
Y755500D1*
X845500D1*
Y756500D1*
G37*
G36*
X245500Y755500D2*
X386500D1*
Y754500D1*
X245500D1*
Y755500D1*
G37*
G36*
X845500D2*
X986500D1*
Y754500D1*
X845500D1*
Y755500D1*
G37*
G36*
X245500Y754500D2*
X386500D1*
Y753500D1*
X245500D1*
Y754500D1*
G37*
G36*
X845500D2*
X986500D1*
Y753500D1*
X845500D1*
Y754500D1*
G37*
G36*
X245500Y753500D2*
X386500D1*
Y752500D1*
X245500D1*
Y753500D1*
G37*
G36*
X845500D2*
X986500D1*
Y752500D1*
X845500D1*
Y753500D1*
G37*
G36*
X245500Y752500D2*
X386500D1*
Y751500D1*
X245500D1*
Y752500D1*
G37*
G36*
X845500D2*
X986500D1*
Y751500D1*
X845500D1*
Y752500D1*
G37*
G36*
X246500Y751500D2*
X386500D1*
Y750500D1*
X246500D1*
Y751500D1*
G37*
G36*
X846500D2*
X986500D1*
Y750500D1*
X846500D1*
Y751500D1*
G37*
G36*
X246500Y718500D2*
X386500D1*
Y717500D1*
X246500D1*
Y718500D1*
G37*
G36*
X846500D2*
X986500D1*
Y717500D1*
X846500D1*
Y718500D1*
G37*
G36*
X245500Y717500D2*
X386500D1*
Y716500D1*
X245500D1*
Y717500D1*
G37*
G36*
X845500D2*
X986500D1*
Y716500D1*
X845500D1*
Y717500D1*
G37*
G36*
X245500Y716500D2*
X386500D1*
Y715500D1*
X245500D1*
Y716500D1*
G37*
G36*
X845500D2*
X986500D1*
Y715500D1*
X845500D1*
Y716500D1*
G37*
G36*
X245500Y715500D2*
X386500D1*
Y714500D1*
X245500D1*
Y715500D1*
G37*
G36*
X845500D2*
X986500D1*
Y714500D1*
X845500D1*
Y715500D1*
G37*
G36*
X245500Y714500D2*
X386500D1*
Y713500D1*
X245500D1*
Y714500D1*
G37*
G36*
X845500D2*
X986500D1*
Y713500D1*
X845500D1*
Y714500D1*
G37*
G36*
X245500Y713500D2*
X386500D1*
Y712500D1*
X245500D1*
Y713500D1*
G37*
G36*
X845500D2*
X986500D1*
Y712500D1*
X845500D1*
Y713500D1*
G37*
G36*
X245500Y712500D2*
X386500D1*
Y711500D1*
X245500D1*
Y712500D1*
G37*
G36*
X845500D2*
X986500D1*
Y711500D1*
X845500D1*
Y712500D1*
G37*
G36*
X245500Y711500D2*
X386500D1*
Y710500D1*
X245500D1*
Y711500D1*
G37*
G36*
X845500D2*
X986500D1*
Y710500D1*
X845500D1*
Y711500D1*
G37*
G36*
X245500Y710500D2*
X386500D1*
Y709500D1*
X245500D1*
Y710500D1*
G37*
G36*
X845500D2*
X986500D1*
Y709500D1*
X845500D1*
Y710500D1*
G37*
G36*
X245500Y709500D2*
X386500D1*
Y708500D1*
X245500D1*
Y709500D1*
G37*
G36*
X845500D2*
X986500D1*
Y708500D1*
X845500D1*
Y709500D1*
G37*
G36*
X245500Y708500D2*
X386500D1*
Y707500D1*
X245500D1*
Y708500D1*
G37*
G36*
X845500D2*
X986500D1*
Y707500D1*
X845500D1*
Y708500D1*
G37*
G36*
X245500Y707500D2*
X309500D1*
Y706500D1*
X245500D1*
Y707500D1*
G37*
G36*
X323500D2*
X386500D1*
Y706500D1*
X323500D1*
Y707500D1*
G37*
G36*
X845500D2*
X909500D1*
Y706500D1*
X845500D1*
Y707500D1*
G37*
G36*
X923500D2*
X986500D1*
Y706500D1*
X923500D1*
Y707500D1*
G37*
G36*
X245500Y706500D2*
X306500D1*
Y705500D1*
X245500D1*
Y706500D1*
G37*
G36*
X325500D2*
X386500D1*
Y705500D1*
X325500D1*
Y706500D1*
G37*
G36*
X845500D2*
X906500D1*
Y705500D1*
X845500D1*
Y706500D1*
G37*
G36*
X925500D2*
X986500D1*
Y705500D1*
X925500D1*
Y706500D1*
G37*
G36*
X245500Y705500D2*
X304500D1*
Y704500D1*
X245500D1*
Y705500D1*
G37*
G36*
X327500D2*
X386500D1*
Y704500D1*
X327500D1*
Y705500D1*
G37*
G36*
X845500D2*
X904500D1*
Y704500D1*
X845500D1*
Y705500D1*
G37*
G36*
X927500D2*
X986500D1*
Y704500D1*
X927500D1*
Y705500D1*
G37*
G36*
X245500Y704500D2*
X303500D1*
Y703500D1*
X245500D1*
Y704500D1*
G37*
G36*
X329500D2*
X386500D1*
Y703500D1*
X329500D1*
Y704500D1*
G37*
G36*
X845500D2*
X903500D1*
Y703500D1*
X845500D1*
Y704500D1*
G37*
G36*
X929500D2*
X986500D1*
Y703500D1*
X929500D1*
Y704500D1*
G37*
G36*
X245500Y703500D2*
X301500D1*
Y702500D1*
X245500D1*
Y703500D1*
G37*
G36*
X330500D2*
X386500D1*
Y702500D1*
X330500D1*
Y703500D1*
G37*
G36*
X845500D2*
X901500D1*
Y702500D1*
X845500D1*
Y703500D1*
G37*
G36*
X930500D2*
X986500D1*
Y702500D1*
X930500D1*
Y703500D1*
G37*
G36*
X245500Y702500D2*
X300500D1*
Y701500D1*
X245500D1*
Y702500D1*
G37*
G36*
X331500D2*
X386500D1*
Y701500D1*
X331500D1*
Y702500D1*
G37*
G36*
X845500D2*
X900500D1*
Y701500D1*
X845500D1*
Y702500D1*
G37*
G36*
X931500D2*
X986500D1*
Y701500D1*
X931500D1*
Y702500D1*
G37*
G36*
X245500Y701500D2*
X299500D1*
Y700500D1*
X245500D1*
Y701500D1*
G37*
G36*
X332500D2*
X386500D1*
Y700500D1*
X332500D1*
Y701500D1*
G37*
G36*
X845500D2*
X899500D1*
Y700500D1*
X845500D1*
Y701500D1*
G37*
G36*
X932500D2*
X986500D1*
Y700500D1*
X932500D1*
Y701500D1*
G37*
G36*
X245500Y700500D2*
X298500D1*
Y699500D1*
X245500D1*
Y700500D1*
G37*
G36*
X333500D2*
X386500D1*
Y699500D1*
X333500D1*
Y700500D1*
G37*
G36*
X845500D2*
X898500D1*
Y699500D1*
X845500D1*
Y700500D1*
G37*
G36*
X933500D2*
X986500D1*
Y699500D1*
X933500D1*
Y700500D1*
G37*
G36*
X245500Y699500D2*
X297500D1*
Y698500D1*
X245500D1*
Y699500D1*
G37*
G36*
X334500D2*
X386500D1*
Y698500D1*
X334500D1*
Y699500D1*
G37*
G36*
X845500D2*
X897500D1*
Y698500D1*
X845500D1*
Y699500D1*
G37*
G36*
X934500D2*
X986500D1*
Y698500D1*
X934500D1*
Y699500D1*
G37*
G36*
X245500Y698500D2*
X297500D1*
Y697500D1*
X245500D1*
Y698500D1*
G37*
G36*
X335500D2*
X386500D1*
Y697500D1*
X335500D1*
Y698500D1*
G37*
G36*
X845500D2*
X896500D1*
Y697500D1*
X845500D1*
Y698500D1*
G37*
G36*
X935500D2*
X986500D1*
Y697500D1*
X935500D1*
Y698500D1*
G37*
G36*
X245500Y697500D2*
X296500D1*
Y696500D1*
X245500D1*
Y697500D1*
G37*
G36*
X336500D2*
X386500D1*
Y696500D1*
X336500D1*
Y697500D1*
G37*
G36*
X845500D2*
X896500D1*
Y696500D1*
X845500D1*
Y697500D1*
G37*
G36*
X936500D2*
X986500D1*
Y696500D1*
X936500D1*
Y697500D1*
G37*
G36*
X245500Y696500D2*
X295500D1*
Y695500D1*
X245500D1*
Y696500D1*
G37*
G36*
X336500D2*
X386500D1*
Y695500D1*
X336500D1*
Y696500D1*
G37*
G36*
X845500D2*
X895500D1*
Y695500D1*
X845500D1*
Y696500D1*
G37*
G36*
X936500D2*
X986500D1*
Y695500D1*
X936500D1*
Y696500D1*
G37*
G36*
X245500Y695500D2*
X295500D1*
Y694500D1*
X245500D1*
Y695500D1*
G37*
G36*
X337500D2*
X386500D1*
Y694500D1*
X337500D1*
Y695500D1*
G37*
G36*
X845500D2*
X895500D1*
Y694500D1*
X845500D1*
Y695500D1*
G37*
G36*
X937500D2*
X986500D1*
Y694500D1*
X937500D1*
Y695500D1*
G37*
G36*
X245500Y694500D2*
X294500D1*
Y693500D1*
X245500D1*
Y694500D1*
G37*
G36*
X337500D2*
X386500D1*
Y693500D1*
X337500D1*
Y694500D1*
G37*
G36*
X845500D2*
X894500D1*
Y693500D1*
X845500D1*
Y694500D1*
G37*
G36*
X937500D2*
X986500D1*
Y693500D1*
X937500D1*
Y694500D1*
G37*
G36*
X245500Y693500D2*
X294500D1*
Y692500D1*
X245500D1*
Y693500D1*
G37*
G36*
X338500D2*
X386500D1*
Y692500D1*
X338500D1*
Y693500D1*
G37*
G36*
X845500D2*
X894500D1*
Y692500D1*
X845500D1*
Y693500D1*
G37*
G36*
X938500D2*
X986500D1*
Y692500D1*
X938500D1*
Y693500D1*
G37*
G36*
X245500Y692500D2*
X293500D1*
Y691500D1*
X245500D1*
Y692500D1*
G37*
G36*
X338500D2*
X386500D1*
Y691500D1*
X338500D1*
Y692500D1*
G37*
G36*
X845500D2*
X893500D1*
Y691500D1*
X845500D1*
Y692500D1*
G37*
G36*
X938500D2*
X986500D1*
Y691500D1*
X938500D1*
Y692500D1*
G37*
G36*
X245500Y691500D2*
X293500D1*
Y690500D1*
X245500D1*
Y691500D1*
G37*
G36*
X338500D2*
X386500D1*
Y690500D1*
X338500D1*
Y691500D1*
G37*
G36*
X845500D2*
X893500D1*
Y690500D1*
X845500D1*
Y691500D1*
G37*
G36*
X938500D2*
X986500D1*
Y690500D1*
X938500D1*
Y691500D1*
G37*
G36*
X245500Y690500D2*
X293500D1*
Y689500D1*
X245500D1*
Y690500D1*
G37*
G36*
X339500D2*
X386500D1*
Y689500D1*
X339500D1*
Y690500D1*
G37*
G36*
X845500D2*
X893500D1*
Y689500D1*
X845500D1*
Y690500D1*
G37*
G36*
X939500D2*
X986500D1*
Y689500D1*
X939500D1*
Y690500D1*
G37*
G36*
X245500Y689500D2*
X293500D1*
Y688500D1*
X245500D1*
Y689500D1*
G37*
G36*
X339500D2*
X386500D1*
Y688500D1*
X339500D1*
Y689500D1*
G37*
G36*
X845500D2*
X893500D1*
Y688500D1*
X845500D1*
Y689500D1*
G37*
G36*
X939500D2*
X986500D1*
Y688500D1*
X939500D1*
Y689500D1*
G37*
G36*
X245500Y688500D2*
X293500D1*
Y687500D1*
X245500D1*
Y688500D1*
G37*
G36*
X339500D2*
X386500D1*
Y687500D1*
X339500D1*
Y688500D1*
G37*
G36*
X845500D2*
X892500D1*
Y687500D1*
X845500D1*
Y688500D1*
G37*
G36*
X939500D2*
X986500D1*
Y687500D1*
X939500D1*
Y688500D1*
G37*
G36*
X245500Y687500D2*
X292500D1*
Y686500D1*
X245500D1*
Y687500D1*
G37*
G36*
X339500D2*
X386500D1*
Y686500D1*
X339500D1*
Y687500D1*
G37*
G36*
X845500D2*
X892500D1*
Y686500D1*
X845500D1*
Y687500D1*
G37*
G36*
X939500D2*
X986500D1*
Y686500D1*
X939500D1*
Y687500D1*
G37*
G36*
X245500Y686500D2*
X292500D1*
Y685500D1*
X245500D1*
Y686500D1*
G37*
G36*
X339500D2*
X386500D1*
Y685500D1*
X339500D1*
Y686500D1*
G37*
G36*
X845500D2*
X892500D1*
Y685500D1*
X845500D1*
Y686500D1*
G37*
G36*
X939500D2*
X986500D1*
Y685500D1*
X939500D1*
Y686500D1*
G37*
G36*
X245500Y685500D2*
X292500D1*
Y684500D1*
X245500D1*
Y685500D1*
G37*
G36*
X339500D2*
X386500D1*
Y684500D1*
X339500D1*
Y685500D1*
G37*
G36*
X845500D2*
X892500D1*
Y684500D1*
X845500D1*
Y685500D1*
G37*
G36*
X939500D2*
X986500D1*
Y684500D1*
X939500D1*
Y685500D1*
G37*
G36*
X245500Y684500D2*
X292500D1*
Y683500D1*
X245500D1*
Y684500D1*
G37*
G36*
X339500D2*
X386500D1*
Y683500D1*
X339500D1*
Y684500D1*
G37*
G36*
X845500D2*
X892500D1*
Y683500D1*
X845500D1*
Y684500D1*
G37*
G36*
X939500D2*
X986500D1*
Y683500D1*
X939500D1*
Y684500D1*
G37*
G36*
X245500Y683500D2*
X292500D1*
Y682500D1*
X245500D1*
Y683500D1*
G37*
G36*
X339500D2*
X386500D1*
Y682500D1*
X339500D1*
Y683500D1*
G37*
G36*
X845500D2*
X892500D1*
Y682500D1*
X845500D1*
Y683500D1*
G37*
G36*
X939500D2*
X986500D1*
Y682500D1*
X939500D1*
Y683500D1*
G37*
G36*
X245500Y682500D2*
X292500D1*
Y681500D1*
X245500D1*
Y682500D1*
G37*
G36*
X339500D2*
X386500D1*
Y681500D1*
X339500D1*
Y682500D1*
G37*
G36*
X845500D2*
X892500D1*
Y681500D1*
X845500D1*
Y682500D1*
G37*
G36*
X939500D2*
X986500D1*
Y681500D1*
X939500D1*
Y682500D1*
G37*
G36*
X245500Y681500D2*
X293500D1*
Y680500D1*
X245500D1*
Y681500D1*
G37*
G36*
X339500D2*
X386500D1*
Y680500D1*
X339500D1*
Y681500D1*
G37*
G36*
X845500D2*
X892500D1*
Y680500D1*
X845500D1*
Y681500D1*
G37*
G36*
X939500D2*
X986500D1*
Y680500D1*
X939500D1*
Y681500D1*
G37*
G36*
X245500Y680500D2*
X293500D1*
Y679500D1*
X245500D1*
Y680500D1*
G37*
G36*
X339500D2*
X386500D1*
Y679500D1*
X339500D1*
Y680500D1*
G37*
G36*
X845500D2*
X893500D1*
Y679500D1*
X845500D1*
Y680500D1*
G37*
G36*
X939500D2*
X986500D1*
Y679500D1*
X939500D1*
Y680500D1*
G37*
G36*
X245500Y679500D2*
X293500D1*
Y678500D1*
X245500D1*
Y679500D1*
G37*
G36*
X339500D2*
X386500D1*
Y678500D1*
X339500D1*
Y679500D1*
G37*
G36*
X845500D2*
X893500D1*
Y678500D1*
X845500D1*
Y679500D1*
G37*
G36*
X939500D2*
X986500D1*
Y678500D1*
X939500D1*
Y679500D1*
G37*
G36*
X245500Y678500D2*
X293500D1*
Y677500D1*
X245500D1*
Y678500D1*
G37*
G36*
X338500D2*
X386500D1*
Y677500D1*
X338500D1*
Y678500D1*
G37*
G36*
X845500D2*
X893500D1*
Y677500D1*
X845500D1*
Y678500D1*
G37*
G36*
X938500D2*
X986500D1*
Y677500D1*
X938500D1*
Y678500D1*
G37*
G36*
X245500Y677500D2*
X293500D1*
Y676500D1*
X245500D1*
Y677500D1*
G37*
G36*
X338500D2*
X386500D1*
Y676500D1*
X338500D1*
Y677500D1*
G37*
G36*
X845500D2*
X893500D1*
Y676500D1*
X845500D1*
Y677500D1*
G37*
G36*
X938500D2*
X986500D1*
Y676500D1*
X938500D1*
Y677500D1*
G37*
G36*
X245500Y676500D2*
X294500D1*
Y675500D1*
X245500D1*
Y676500D1*
G37*
G36*
X338500D2*
X386500D1*
Y675500D1*
X338500D1*
Y676500D1*
G37*
G36*
X845500D2*
X894500D1*
Y675500D1*
X845500D1*
Y676500D1*
G37*
G36*
X938500D2*
X986500D1*
Y675500D1*
X938500D1*
Y676500D1*
G37*
G36*
X245500Y675500D2*
X294500D1*
Y674500D1*
X245500D1*
Y675500D1*
G37*
G36*
X337500D2*
X386500D1*
Y674500D1*
X337500D1*
Y675500D1*
G37*
G36*
X845500D2*
X894500D1*
Y674500D1*
X845500D1*
Y675500D1*
G37*
G36*
X937500D2*
X986500D1*
Y674500D1*
X937500D1*
Y675500D1*
G37*
G36*
X245500Y674500D2*
X295500D1*
Y673500D1*
X245500D1*
Y674500D1*
G37*
G36*
X337500D2*
X386500D1*
Y673500D1*
X337500D1*
Y674500D1*
G37*
G36*
X845500D2*
X895500D1*
Y673500D1*
X845500D1*
Y674500D1*
G37*
G36*
X937500D2*
X986500D1*
Y673500D1*
X937500D1*
Y674500D1*
G37*
G36*
X245500Y673500D2*
X295500D1*
Y672500D1*
X245500D1*
Y673500D1*
G37*
G36*
X336500D2*
X386500D1*
Y672500D1*
X336500D1*
Y673500D1*
G37*
G36*
X845500D2*
X895500D1*
Y672500D1*
X845500D1*
Y673500D1*
G37*
G36*
X936500D2*
X986500D1*
Y672500D1*
X936500D1*
Y673500D1*
G37*
G36*
X245500Y672500D2*
X296500D1*
Y671500D1*
X245500D1*
Y672500D1*
G37*
G36*
X336500D2*
X386500D1*
Y671500D1*
X336500D1*
Y672500D1*
G37*
G36*
X845500D2*
X896500D1*
Y671500D1*
X845500D1*
Y672500D1*
G37*
G36*
X936500D2*
X986500D1*
Y671500D1*
X936500D1*
Y672500D1*
G37*
G36*
X245500Y671500D2*
X297500D1*
Y670500D1*
X245500D1*
Y671500D1*
G37*
G36*
X335500D2*
X386500D1*
Y670500D1*
X335500D1*
Y671500D1*
G37*
G36*
X845500D2*
X896500D1*
Y670500D1*
X845500D1*
Y671500D1*
G37*
G36*
X935500D2*
X986500D1*
Y670500D1*
X935500D1*
Y671500D1*
G37*
G36*
X245500Y670500D2*
X297500D1*
Y669500D1*
X245500D1*
Y670500D1*
G37*
G36*
X334500D2*
X386500D1*
Y669500D1*
X334500D1*
Y670500D1*
G37*
G36*
X845500D2*
X897500D1*
Y669500D1*
X845500D1*
Y670500D1*
G37*
G36*
X934500D2*
X986500D1*
Y669500D1*
X934500D1*
Y670500D1*
G37*
G36*
X245500Y669500D2*
X298500D1*
Y668500D1*
X245500D1*
Y669500D1*
G37*
G36*
X333500D2*
X386500D1*
Y668500D1*
X333500D1*
Y669500D1*
G37*
G36*
X845500D2*
X898500D1*
Y668500D1*
X845500D1*
Y669500D1*
G37*
G36*
X933500D2*
X986500D1*
Y668500D1*
X933500D1*
Y669500D1*
G37*
G36*
X245500Y668500D2*
X299500D1*
Y667500D1*
X245500D1*
Y668500D1*
G37*
G36*
X332500D2*
X386500D1*
Y667500D1*
X332500D1*
Y668500D1*
G37*
G36*
X845500D2*
X899500D1*
Y667500D1*
X845500D1*
Y668500D1*
G37*
G36*
X932500D2*
X986500D1*
Y667500D1*
X932500D1*
Y668500D1*
G37*
G36*
X245500Y667500D2*
X300500D1*
Y666500D1*
X245500D1*
Y667500D1*
G37*
G36*
X331500D2*
X386500D1*
Y666500D1*
X331500D1*
Y667500D1*
G37*
G36*
X845500D2*
X900500D1*
Y666500D1*
X845500D1*
Y667500D1*
G37*
G36*
X931500D2*
X986500D1*
Y666500D1*
X931500D1*
Y667500D1*
G37*
G36*
X245500Y666500D2*
X301500D1*
Y665500D1*
X245500D1*
Y666500D1*
G37*
G36*
X330500D2*
X386500D1*
Y665500D1*
X330500D1*
Y666500D1*
G37*
G36*
X845500D2*
X901500D1*
Y665500D1*
X845500D1*
Y666500D1*
G37*
G36*
X930500D2*
X986500D1*
Y665500D1*
X930500D1*
Y666500D1*
G37*
G36*
X245500Y665500D2*
X303500D1*
Y664500D1*
X245500D1*
Y665500D1*
G37*
G36*
X329500D2*
X386500D1*
Y664500D1*
X329500D1*
Y665500D1*
G37*
G36*
X845500D2*
X903500D1*
Y664500D1*
X845500D1*
Y665500D1*
G37*
G36*
X929500D2*
X986500D1*
Y664500D1*
X929500D1*
Y665500D1*
G37*
G36*
X245500Y664500D2*
X304500D1*
Y663500D1*
X245500D1*
Y664500D1*
G37*
G36*
X327500D2*
X386500D1*
Y663500D1*
X327500D1*
Y664500D1*
G37*
G36*
X845500D2*
X904500D1*
Y663500D1*
X845500D1*
Y664500D1*
G37*
G36*
X927500D2*
X986500D1*
Y663500D1*
X927500D1*
Y664500D1*
G37*
G36*
X245500Y663500D2*
X306500D1*
Y662500D1*
X245500D1*
Y663500D1*
G37*
G36*
X325500D2*
X386500D1*
Y662500D1*
X325500D1*
Y663500D1*
G37*
G36*
X845500D2*
X906500D1*
Y662500D1*
X845500D1*
Y663500D1*
G37*
G36*
X925500D2*
X986500D1*
Y662500D1*
X925500D1*
Y663500D1*
G37*
G36*
X245500Y662500D2*
X309500D1*
Y661500D1*
X245500D1*
Y662500D1*
G37*
G36*
X323500D2*
X386500D1*
Y661500D1*
X323500D1*
Y662500D1*
G37*
G36*
X845500D2*
X909500D1*
Y661500D1*
X845500D1*
Y662500D1*
G37*
G36*
X923500D2*
X986500D1*
Y661500D1*
X923500D1*
Y662500D1*
G37*
G36*
X245500Y661500D2*
X386500D1*
Y660500D1*
X245500D1*
Y661500D1*
G37*
G36*
X845500D2*
X986500D1*
Y660500D1*
X845500D1*
Y661500D1*
G37*
G36*
X245500Y660500D2*
X386500D1*
Y659500D1*
X245500D1*
Y660500D1*
G37*
G36*
X845500D2*
X986500D1*
Y659500D1*
X845500D1*
Y660500D1*
G37*
G36*
X245500Y659500D2*
X386500D1*
Y658500D1*
X245500D1*
Y659500D1*
G37*
G36*
X845500D2*
X986500D1*
Y658500D1*
X845500D1*
Y659500D1*
G37*
G36*
X245500Y658500D2*
X386500D1*
Y657500D1*
X245500D1*
Y658500D1*
G37*
G36*
X845500D2*
X986500D1*
Y657500D1*
X845500D1*
Y658500D1*
G37*
G36*
X245500Y657500D2*
X386500D1*
Y656500D1*
X245500D1*
Y657500D1*
G37*
G36*
X845500D2*
X986500D1*
Y656500D1*
X845500D1*
Y657500D1*
G37*
G36*
X245500Y656500D2*
X386500D1*
Y655500D1*
X245500D1*
Y656500D1*
G37*
G36*
X845500D2*
X986500D1*
Y655500D1*
X845500D1*
Y656500D1*
G37*
G36*
X245500Y655500D2*
X386500D1*
Y654500D1*
X245500D1*
Y655500D1*
G37*
G36*
X845500D2*
X986500D1*
Y654500D1*
X845500D1*
Y655500D1*
G37*
G36*
X245500Y654500D2*
X386500D1*
Y653500D1*
X245500D1*
Y654500D1*
G37*
G36*
X845500D2*
X986500D1*
Y653500D1*
X845500D1*
Y654500D1*
G37*
G36*
X245500Y653500D2*
X386500D1*
Y652500D1*
X245500D1*
Y653500D1*
G37*
G36*
X845500D2*
X986500D1*
Y652500D1*
X845500D1*
Y653500D1*
G37*
G36*
X245500Y652500D2*
X386500D1*
Y651500D1*
X245500D1*
Y652500D1*
G37*
G36*
X845500D2*
X986500D1*
Y651500D1*
X845500D1*
Y652500D1*
G37*
G36*
X311500Y651500D2*
X321500D1*
Y650500D1*
X311500D1*
Y651500D1*
G37*
G36*
X910500D2*
X921500D1*
Y650500D1*
X910500D1*
Y651500D1*
G37*
M02*
