M48
INCH
T01C0.0315
T02C0.035
T03C0.0354
T04C0.036
T05C0.038
T06C0.04
T07C0.126
%
T01
X+014169Y+002347
X+014169Y+003331
X+018169Y+003331
X+018169Y+002347
T02
X+004669Y+006831
X+007669Y+006831
X+008721Y+004831
X+010493Y+004831
X+010493Y+002272
X+008721Y+002272
X+015114Y+003331
X+017169Y+003331
X+017169Y+006331
X+015114Y+006331
X+011169Y+009831
X+011169Y+013831
X+007669Y+014831
X+003669Y+014831
X+021397Y+004831
X+023169Y+004831
X+023169Y+002272
X+021397Y+002272
T03
X+015110Y+024831
X+017669Y+024831
T04
X+019169Y+009831
X+019169Y+010831
X+019169Y+011831
X+019169Y+012831
X+019169Y+013831
X+019169Y+014831
X+019169Y+015831
X+019169Y+016831
X+019169Y+017831
X+019169Y+018831
X+019169Y+019831
X+019169Y+020831
X+013169Y+020831
X+013169Y+019831
X+013169Y+018831
X+013169Y+017831
X+013169Y+016831
X+013169Y+015831
X+013169Y+014831
X+013169Y+013831
X+013169Y+012831
X+013169Y+011831
X+013169Y+010831
X+013169Y+009831
X+013169Y+008831
X+013169Y+007831
X+013169Y+006831
X+019169Y+006831
X+019169Y+007831
X+019169Y+008831
T05
X+021669Y+024831
X+022669Y+024831
X+022669Y+025831
X+023669Y+025831
X+023669Y+026831
X+022669Y+026831
X+022669Y+027831
X+023669Y+027831
X+024669Y+027831
X+024669Y+026831
X+024669Y+025831
X+025669Y+025831
X+026669Y+025831
X+026669Y+026831
X+026669Y+027831
X+025669Y+027831
X+025669Y+026831
X+021669Y+026831
X+021669Y+025831
X+020669Y+025831
X+020669Y+026831
X+019669Y+026831
X+019669Y+027831
X+020669Y+027831
X+021669Y+027831
X+019669Y+025831
X+013169Y+027331
X+013169Y+028331
X+011169Y+028331
X+010169Y+028331
X+009169Y+028331
X+008169Y+028331
X+008669Y+022331
X+009669Y+022331
X+009669Y+021331
X+010669Y+021331
X+010669Y+022331
X+007669Y+022331
X+010169Y+016831
X+010169Y+015831
X+011169Y+015831
X+011169Y+016831
X+012169Y+016831
X+012169Y+015831
X+012169Y+014831
X+012169Y+013831
X+020669Y+008831
X+020669Y+007831
X+025669Y+012331
X+026669Y+012331
X+027669Y+012331
X+028669Y+012331
X+027669Y+015331
X+027669Y+016331
X+027669Y+017331
X+006669Y+004831
X+005669Y+004831
T06
X+003169Y+013831
X+003169Y+012831
X+003169Y+011831
X+003169Y+010831
X+003169Y+009831
X+003169Y+008831
X+003169Y+007831
X+003169Y+006831
X+009169Y+006831
X+009169Y+007831
X+009169Y+008831
X+009169Y+009831
X+009169Y+010831
X+009169Y+011831
X+009169Y+012831
X+009169Y+013831
X+002669Y+016831
X+002669Y+018831
X+002669Y+021831
X+002669Y+023831
X+028169Y+022331
X+028169Y+020331
T07
X+001048Y+001103
X+028370Y+001103
X+028421Y+028438
X+001098Y+028438
T00
M30
